<?xml version="1.0" encoding="utf-8"?><svg xmlns="http://www.w3.org/2000/svg" xmlns:xlink="http://www.w3.org/1999/xlink"><symbol viewBox="0 0 512.023 512.023" id="chrome-col-ico" xmlns="http://www.w3.org/2000/svg"><path d="M493.248 160.021H256.021c-53.019-.052-96.042 42.886-96.095 95.905a95.999 95.999 0 0012.255 47.028L53.568 99.434c86.393-111.815 247.073-132.423 358.888-46.03a255.85 255.85 0 0180.792 106.617z" fill="#f44336"/><path d="M512.021 256.021c-.118 141.336-114.664 255.882-256 256a228.332 228.332 0 01-32-2.133l115.2-205.867c26.403-45.964 10.664-104.625-35.2-131.2a95.106 95.106 0 00-47.787-12.8h237.013a252.409 252.409 0 0118.774 96z" fill="#ffc107"/><path d="M339.221 304.021l-115.2 205.867h-.213C83.62 492.176-15.666 364.172 2.046 223.984a255.853 255.853 0 0151.522-124.55l118.613 203.52.64 1.067c26.451 45.95 85.143 61.757 131.093 35.307a95.992 95.992 0 0035.307-35.307z" fill="#4caf50"/><path d="M339.221 304.021c-26.451 45.95-85.143 61.757-131.093 35.307a96.007 96.007 0 01-35.307-35.307l-.64-1.067c-25.921-46.251-9.439-104.758 36.812-130.679a96.004 96.004 0 0147.028-12.255h.213a95.106 95.106 0 0147.787 12.8c45.865 26.576 61.603 85.237 35.2 131.201z" fill="#f44336"/><path d="M339.221 304.021c-26.451 45.95-85.143 61.757-131.093 35.307a96.007 96.007 0 01-35.307-35.307l-.64-1.067c-25.921-46.251-9.439-104.758 36.812-130.679a96.004 96.004 0 0147.028-12.255h.213a95.106 95.106 0 0147.787 12.8c45.865 26.576 61.603 85.237 35.2 131.201z" fill="#2196f3"/><path d="M255.659 362.688a105.899 105.899 0 01-52.971-14.208 107.06 107.06 0 01-39.104-39.125c-29.455-51.018-11.975-116.254 39.043-145.709a106.678 106.678 0 0153.395-14.291c58.91-.046 106.704 47.674 106.749 106.584a106.663 106.663 0 01-14.291 53.416 107.265 107.265 0 01-92.821 53.333zm.554-192a85.099 85.099 0 00-74.219 42.667c-23.564 40.86-9.543 93.087 31.317 116.651s93.087 9.543 116.651-31.317c23.564-40.814 9.58-93.003-31.234-116.568a85.337 85.337 0 00-42.494-11.432h-.021z" fill="#fafafa"/></symbol><symbol viewBox="0 0 512.005 512.005" id="edge-col-ico" xmlns="http://www.w3.org/2000/svg"><path d="M19.443 227.392h.288c3.04-24.032 8.64-47.04 16.736-69.088s19.072-42.72 32.896-62.08 29.792-36.128 47.904-50.336 39.424-25.408 63.936-33.6S232.083 0 260.275 0c44.064 0 83.52 10.048 118.432 30.176s62.912 49.056 84.096 86.816c19.84 35.648 29.76 77.792 29.76 126.432v53.76H170.739c.192 21.152 5.28 39.52 15.296 55.072s23.04 27.232 39.04 35.04 34.08 13.248 54.208 16.288 40.416 3.328 60.928.864 40.32-6.912 59.488-13.312c19.168-6.4 35.712-14.432 49.632-24.16v107.84c-17.536 10.496-39.424 19.264-65.632 26.304-26.208 7.04-56 10.688-89.376 10.88-33.376.192-63.488-4.864-90.4-15.168-36.032-13.92-65.728-37.664-89.088-71.2S79.603 356.576 79.219 319.2c-.576-46.144 10.016-85.408 31.744-117.824s52.736-57.984 92.96-76.672c-9.152 11.456-16.576 23.424-22.304 35.904s-10.112 27.712-13.152 45.632h181.632c1.536-14.688.768-28.032-2.304-40.032-3.04-12-7.52-21.696-13.44-29.024s-12.64-13.696-20.16-19.008c-7.52-5.344-15.2-9.248-23.04-11.712-7.808-2.464-14.976-4.448-21.44-5.856s-11.808-2.24-16.032-2.432l-6.272-.352c-25.728.96-50.496 5.184-74.24 12.736s-45.024 17.504-63.904 29.888-35.68 25.792-50.336 40.192-27.872 29.984-39.488 46.752z" fill="#2196f3"/></symbol><symbol viewBox="0 0 512 512" id="firefox-col-ico" xmlns="http://www.w3.org/2000/svg"><path d="M256.007 512C114.53 512 .035 397.503.035 256 .035 114.508 114.52 0 256.007 0c141.476 0 255.972 114.497 255.972 256-.001 141.492-114.485 256-255.972 256z" fill="#3fa0e1"/><path d="M256.007 0v512c141.487 0 255.972-114.508 255.972-256C511.978 114.498 397.483 0 256.007 0z" fill="#2568bd"/><path d="M256.007.001c-5.378 0-10.727.184-16.048.511 73.415 25.748 163.669 134.691 172.176 246.086 7.541 98.771-50.199 203.193-266.039 240.742C179.998 503.48 217.347 512 256.007 512c141.476 0 255.972-114.497 255.972-256C511.978 114.508 397.494.001 256.007.001z" fill="#ff9842"/><path d="M256.007 0v7.332c69.914 34.606 148.232 135.872 156.127 239.265 6.054 79.302-29.978 162.246-156.127 211.297V512c141.476 0 255.972-114.497 255.972-256C511.978 114.508 397.494 0 256.007 0z" fill="#ff8322"/><path d="M102.598 90.058L26.192 4.978A14.998 14.998 0 00.035 15.001V256c0 8.284 6.715 15 14.998 15s14.998-6.716 14.998-15c0-44.546 12.924-87.338 36.933-123.874l35.634-42.068zm54.83 245.5a15.003 15.003 0 01-9.603-5.73c-22.578-29.655-34.512-65.398-34.512-103.367 0-13.089 15.679-19.905 25.247-10.952 25.509 23.876 47.056 20.416 74.335 16.036 32.381-5.199 72.682-11.672 115.757 38.212 8.39 9.713 9.412 23.547 2.543 34.423-6.868 10.874-19.797 15.89-32.171 12.484-29.967-8.242-43.709-1.818-61.099 6.318-17.985 8.412-40.378 18.886-80.497 12.576z" fill="#ff9842"/><path d="M501.76 184.034c-47.3 273.425-348.299 221.884-358.202 51.019l82.048-46.578a15 15 0 007.594-13.045v-22.359a15 15 0 00-8.655-13.592l-60.857-28.412V15.001A15 15 0 00137.53 4.979L70.763 79.336c-95.439 100.067-94.644 258.782 4.245 357.683 47.042 47.046 111.081 74.98 180.999 74.98 67.785 0 132.389-26.364 180.999-74.98 69.033-69.041 89.846-166.832 64.754-252.985z" fill="#ffd664"/><path d="M328.651 269.756c-25.549-29.587-50.121-39.348-72.644-41.309v87.084c11.149-3.398 23.716-4.177 43.016 1.131 12.375 3.406 25.303-1.61 32.171-12.484 6.869-10.875 5.847-24.709-2.543-34.422z" fill="#ff8322"/><path d="M501.76 184.034c-28.817 166.581-151.8 212.543-245.753 184.39v143.575c67.785 0 132.389-26.364 180.999-74.98 69.033-69.041 89.846-166.832 64.754-252.985z" fill="#ff9842"/></symbol><symbol viewBox="0 0 494.046 494.046" id="ie-col-ico" xmlns="http://www.w3.org/2000/svg"><path d="M238.989 84.018c4.537-3.758 5.169-10.482 1.411-15.019a10.67 10.67 0 00-9.731-3.755C128.216 82.808 53.915 172.514 55.736 276.445c.04 8.742.653 17.472 1.835 26.133a10.667 10.667 0 009.28 9.195c.44.032.882.032 1.323 0a10.667 10.667 0 009.92-6.741 545.5 545.5 0 0165.493-117.781 567.448 567.448 0 0195.402-103.233zm219.435 158.827c-10.537-76.605-62.266-141.247-134.699-168.32a10.666 10.666 0 00-10.56 1.92 570.473 570.473 0 00-55.253 55.019 10.668 10.668 0 007.019 17.707c38.101 3.456 71.317 37.525 83.904 84.523H183.352a10.668 10.668 0 00-8.768 4.587c-13.675 19.712-26.624 39.467-38.4 58.709a482.102 482.102 0 00-45.355 91.733 10.668 10.668 0 001.536 9.621c.175.261.368.511.576.747 36.517 56.005 98.648 90.01 165.504 90.581 84.889-.929 160.139-54.835 188.331-134.912 2.074-5.514-.715-11.665-6.229-13.739a10.674 10.674 0 00-3.755-.683h-88.533a10.665 10.665 0 00-9.557 5.931c-13.387 33.157-44.575 55.723-80.256 58.069-41.045 0-76.608-34.603-90.048-85.333h279.467a10.667 10.667 0 0010.667-9.152 234.319 234.319 0 002.667-33.515 233.356 233.356 0 00-2.775-33.493z" fill="#2196f3"/><path d="M399.522 10.312C364.514-14.947 297.805 6.984 225.4 67.485a589.113 589.113 0 00-99.115 107.221 567.577 567.577 0 00-68.032 122.453 9.442 9.442 0 00-.363 1.088c-34.133 85.547-33.323 157.056 2.133 182.336a75.843 75.843 0 0039.403 13.461c2.392.019 4.78-.209 7.125-.683a22.38 22.38 0 0015.424-10.389c2.997-5.024 1.389-11.524-3.605-14.571-6.571-4.011-26.56-16.256-7.403-72.811a467.257 467.257 0 0143.349-87.467c11.669-18.944 24.405-38.4 37.824-57.728l15.083-21.205a1055.11 1055.11 0 0166.709-83.627 549.319 549.319 0 0153.141-52.971c40.299-34.539 58.048-33.813 63.787-32s9.728 8.107 12.096 18.539a10.517 10.517 0 0011.371 8.256 10.667 10.667 0 009.664-10.091c1.558-39.486-12.437-58.174-24.469-66.984z" fill="#ffc107"/></symbol><symbol viewBox="0 0 512 512" id="opera-col-ico" xmlns="http://www.w3.org/2000/svg"><path d="M171.744 111.744C195.232 84 225.568 67.296 258.72 67.296c74.528 0 134.944 84.48 134.944 188.704S333.248 444.736 258.72 444.736c-33.152 0-63.488-16.736-86.976-44.448 36.736 47.68 91.328 77.92 152.288 77.92 37.504 0 72.576-11.456 102.592-31.36C479.008 399.968 512 331.84 512 256s-32.992-143.968-85.376-190.816c-30.016-19.904-65.088-31.36-102.592-31.36-60.96-.032-115.584 30.24-152.288 77.92" fill="#d32f2f"/><path d="M256 0C114.624 0 0 114.624 0 256c0 137.28 108.096 249.344 243.808 255.712 4.032.192 8.096.288 12.192.288 65.536 0 125.312-24.64 170.592-65.152-30.016 19.904-65.088 31.36-102.592 31.36-60.96 0-115.552-30.24-152.288-77.92-28.32-33.408-46.656-82.784-47.872-138.24v-12.064c1.248-55.424 19.584-104.832 47.872-138.24 36.736-47.68 91.328-77.92 152.288-77.92 37.504 0 72.576 11.456 102.592 31.36C381.568 24.864 322.144.256 256.96 0H256z" fill="#f44336"/></symbol><symbol viewBox="0 0 512 512" id="safari-col-ico" xmlns="http://www.w3.org/2000/svg"><circle cx="256" cy="256" r="256" fill="#2196f3"/><path fill="#fafafa" d="M224 224L96 416l192-128z"/><path fill="#f44336" d="M224 224l64 64L416 96z"/></symbol></svg>