<?xml version="1.0" encoding="utf-8"?><svg xmlns="http://www.w3.org/2000/svg" xmlns:xlink="http://www.w3.org/1999/xlink"><symbol viewBox="0 0 94.691 94.691" id="accesibility-ico" xmlns="http://www.w3.org/2000/svg"><path d="M41.035 83.61c-11.92 0-21.617-9.697-21.617-21.617 0-7.323 3.771-14.187 9.909-18.158l-2.195-11.429C15.655 37.799 8.336 49.221 8.336 61.992c0 18.029 14.669 32.699 32.699 32.699 8.829 0 17.336-3.624 23.486-9.975l-4.729-11.988C55.979 79.355 48.826 83.61 41.035 83.61z"/><path d="M85.932 86.391L70.962 48.43a6.052 6.052 0 00-5.88-4.619l-16.108-.021-1.126-5.862h17.359a6.077 6.077 0 006.072-6.069 6.079 6.079 0 00-6.072-6.071H45.515l-1.002-5.218.543-.561a11.743 11.743 0 003.331-8.207C48.387 5.294 43.093 0 36.584 0c-6.508 0-11.801 5.294-11.801 11.802 0 4.695 2.785 8.943 7.096 10.821l.725.315 5.392 28.064c.021.098.041.174.062.252l.176.606c.031.087.063.18.099.269l.088.201c.055.121.104.227.157.329l.099.179c.06.105.125.215.193.319l.102.153c.074.106.154.213.237.316l.092.116c.093.11.19.216.289.319l.077.08c.133.135.253.242.376.346l.091.081c.106.086.254.196.406.301l.151.095c.095.061.201.129.314.19l.131.067c.171.086.271.138.374.184l.181.074c.139.055.242.094.348.129l.207.064c.123.037.246.066.37.096l.185.041c.143.027.294.05.446.066l.118.018c.168.017.351.029.536.031l.086-.002 16.881.021 13.771 34.9a6.043 6.043 0 005.649 3.844c.759 0 1.509-.145 2.228-.428 3.111-1.223 4.644-4.755 3.416-7.868z"/></symbol><symbol viewBox="0 0 512 512" id="adaptivity-ico" xmlns="http://www.w3.org/2000/svg"><path d="M298.667 25.6h-85.333a8.536 8.536 0 00-8.533 8.533 8.536 8.536 0 008.533 8.533h85.333a8.536 8.536 0 008.533-8.533 8.536 8.536 0 00-8.533-8.533zm59.733 0h-8.533a8.536 8.536 0 00-8.533 8.533 8.536 8.536 0 008.533 8.533h8.533a8.536 8.536 0 008.533-8.533A8.536 8.536 0 00358.4 25.6zm-91.802 409.6H245.41c-12.979 0-23.543 10.564-23.543 23.543v4.122c0 12.979 10.564 23.535 23.535 23.535h21.188c12.979 0 23.543-10.556 23.543-23.535v-4.122c0-12.979-10.564-23.543-23.535-23.543zm6.469 27.665a6.475 6.475 0 01-6.468 6.468H245.41c-3.575 0-6.477-2.901-6.477-6.468v-4.122a6.48 6.48 0 016.477-6.477h21.18a6.478 6.478 0 016.477 6.477v4.122z"/><path d="M370.227 0H141.781c-17.007 0-30.848 13.841-30.848 30.848v450.304c0 17.007 13.841 30.848 30.848 30.848h228.437c17.007 0 30.848-13.841 30.848-30.839V30.848C401.067 13.841 387.226 0 370.227 0zM384 481.152c0 7.595-6.178 13.781-13.773 13.781H141.781c-7.603 0-13.781-6.187-13.781-13.773V30.848c0-7.595 6.178-13.781 13.781-13.781h228.437c7.603 0 13.781 6.187 13.781 13.781v450.304z"/><path d="M392.533 51.2H119.467a8.536 8.536 0 00-8.533 8.533v358.4a8.536 8.536 0 008.533 8.533h273.067a8.536 8.536 0 008.533-8.533v-358.4c0-4.71-3.823-8.533-8.534-8.533zM384 409.6H128V68.267h256V409.6z"/></symbol><symbol viewBox="0 0 512.171 512.171" id="arrow-ico" xmlns="http://www.w3.org/2000/svg"><path d="M479.046 283.925c-1.664-3.989-5.547-6.592-9.856-6.592H352.305V10.667C352.305 4.779 347.526 0 341.638 0H170.971c-5.888 0-10.667 4.779-10.667 10.667v266.667H42.971a10.702 10.702 0 00-9.856 6.571c-1.643 3.989-.747 8.576 2.304 11.627l212.8 213.504c2.005 2.005 4.715 3.136 7.552 3.136s5.547-1.131 7.552-3.115l213.419-213.504a10.645 10.645 0 002.304-11.628z"/></symbol><symbol viewBox="0 0 512.001 512.001" id="cancel-ico" xmlns="http://www.w3.org/2000/svg"><path d="M284.286 256.002L506.143 34.144c7.811-7.811 7.811-20.475 0-28.285-7.811-7.81-20.475-7.811-28.285 0L256 227.717 34.143 5.859c-7.811-7.811-20.475-7.811-28.285 0-7.81 7.811-7.811 20.475 0 28.285l221.857 221.857L5.858 477.859c-7.811 7.811-7.811 20.475 0 28.285a19.938 19.938 0 0014.143 5.857 19.94 19.94 0 0014.143-5.857L256 284.287l221.857 221.857c3.905 3.905 9.024 5.857 14.143 5.857s10.237-1.952 14.143-5.857c7.811-7.811 7.811-20.475 0-28.285L284.286 256.002z"/></symbol><symbol viewBox="0 0 61 60" id="constructor-ico" xmlns="http://www.w3.org/2000/svg"><path d="M16 11c0 1.71 2.149 3 5 3s5-1.29 5-3-2.149-3-5-3-5 1.29-5 3zm5-1c1.936 0 3 .751 3 1s-1.064 1-3 1-3-.751-3-1 1.064-1 3-1zm14 26c0 1.71 2.149 3 5 3s5-1.29 5-3-2.149-3-5-3-5 1.29-5 3zm8 0c0 .249-1.064 1-3 1s-3-.751-3-1 1.064-1 3-1 3 .751 3 1z"/><path d="M60 35a.959.959 0 00-.042-.208 1 1 0 00-.569-1.2l-5.553-2.341C53.305 29.928 51.411 29 49 29c-.715 0 .268.332-4.079-1.5-.321-1.257-1.85-2.21-3.921-2.443 0-16.4.039-15.657-.078-15.935a1.042 1.042 0 00-.525-.529c-.192-.083.006 0-5.561-2.346C34.305 4.928 32.411 4 30 4c-.715 0 .268.332-4.079-1.5-.86-3.331-8.981-3.336-9.842 0C11.741 4.328 12.717 4 12 4c-2.411 0-4.3.928-4.836 2.247-2.79 1.177-5.7 2.4-5.56 2.346a.957.957 0 00-.488.473C.943 9.409 1 7.085 1 43a1 1 0 00.612.922C41.715 60.807 39.555 60 40 60c.338 0-.92.472 19.388-8.078a.779.779 0 00.431-.38c.25-.377.181.826.181-16.542zm-19 8.174l17-7.158v14.32l-17 7.158zM52 32c0 .249-1.064 1-3 1s-3-.751-3-1 1.064-1 3-1 3 .751 3 1zm-3 3a5.7 5.7 0 004.532-1.71l2.893 1.219L40 41.425l-16.425-6.916 2.893-1.219A5.7 5.7 0 0031 35c4.881 0 6.418-3.4 3.592-5.124l1.016-.428c1.833 2.074 6.952 2.073 8.784 0l1.016.428C42.554 31.615 44.177 35 49 35zm-13.921-7.5C30.741 29.328 31.717 29 31 29c-2.411 0-4.3.928-4.836 2.247L22 33V18.174l17-7.158v14.041c-2.071.233-3.6 1.186-3.921 2.443zM31 31c1.936 0 3 .751 3 1s-1.064 1-3 1-3-.751-3-1 1.064-1 3-1zM3 11.016l17 7.158V33L3 25.846zM43 28c0 .249-1.064 1-3 1s-3-.751-3-1 1.064-1 3-1 3 .751 3 1zM33 7c0 .249-1.064 1-3 1s-3-.751-3-1 1.064-1 3-1 3 .751 3 1zM21 2c1.936 0 3 .751 3 1s-1.064 1-3 1-3-.751-3-1 1.064-1 3-1zm-4.392 2.448c1.833 2.074 6.952 2.073 8.784 0l1.016.428A2.554 2.554 0 0025 7c0 3.354 7.44 4.054 9.532 1.29l2.892 1.219L21 16.425 4.576 9.509 7.468 8.29C9.558 11.051 17 10.357 17 7a2.554 2.554 0 00-1.408-2.124zM12 6c1.936 0 3 .751 3 1s-1.064 1-3 1-3-.751-3-1 1.064-1 3-1zM3 28.016l17.61 7.415L39 43.174v14.32L3 42.336z"/><path d="M36.4 52.083l-22-9.53a1 1 0 10-.794 1.835l22 9.529a1 1 0 10.794-1.834zm-27-11.701l-3-1.3a1 1 0 10-.8 1.835l3 1.3a1 1 0 10.8-1.835z"/></symbol><symbol viewBox="0 0 512 512" id="css-ico" xmlns="http://www.w3.org/2000/svg"><path d="M32 0l40.8 460.8L256 512l183.136-51.168L480 0H32zm360.768 150.688l-5.152 57.888-15.52 173.568L256 414.208l-.064.032-116-32.128-8.128-90.752h56.832l4.224 47.104 63.072 17.024.064-.064 63.136-17.024 8.608-78.432-198.656.544-5.632-53.664 209.056-2.432 4.224-57.44-218.88.608-3.68-53.376h283.648l-5.056 56.48z"/></symbol><symbol viewBox="0 0 96.124 96.123" id="fb-ico" xmlns="http://www.w3.org/2000/svg"><path d="M72.089.02L59.624 0C45.62 0 36.57 9.285 36.57 23.656v10.907H24.037a1.96 1.96 0 00-1.96 1.961v15.803a1.96 1.96 0 001.96 1.96H36.57v39.876a1.96 1.96 0 001.96 1.96h16.352a1.96 1.96 0 001.96-1.96V54.287h14.654a1.96 1.96 0 001.96-1.96l.006-15.803a1.963 1.963 0 00-1.961-1.961H56.842v-9.246c0-4.444 1.059-6.7 6.848-6.7l8.397-.003a1.96 1.96 0 001.959-1.96V1.98A1.96 1.96 0 0072.089.02z"/></symbol><symbol viewBox="0 0 438.549 438.549" id="github-ico" xmlns="http://www.w3.org/2000/svg"><path d="M409.132 114.573c-19.608-33.596-46.205-60.194-79.798-79.8-33.598-19.607-70.277-29.408-110.063-29.408-39.781 0-76.472 9.804-110.063 29.408-33.596 19.605-60.192 46.204-79.8 79.8C9.803 148.168 0 184.854 0 224.63c0 47.78 13.94 90.745 41.827 128.906 27.884 38.164 63.906 64.572 108.063 79.227 5.14.954 8.945.283 11.419-1.996 2.475-2.282 3.711-5.14 3.711-8.562 0-.571-.049-5.708-.144-15.417a2549.81 2549.81 0 01-.144-25.406l-6.567 1.136c-4.187.767-9.469 1.092-15.846 1-6.374-.089-12.991-.757-19.842-1.999-6.854-1.231-13.229-4.086-19.13-8.559-5.898-4.473-10.085-10.328-12.56-17.556l-2.855-6.57c-1.903-4.374-4.899-9.233-8.992-14.559-4.093-5.331-8.232-8.945-12.419-10.848l-1.999-1.431c-1.332-.951-2.568-2.098-3.711-3.429-1.142-1.331-1.997-2.663-2.568-3.997-.572-1.335-.098-2.43 1.427-3.289 1.525-.859 4.281-1.276 8.28-1.276l5.708.853c3.807.763 8.516 3.042 14.133 6.851 5.614 3.806 10.229 8.754 13.846 14.842 4.38 7.806 9.657 13.754 15.846 17.847 6.184 4.093 12.419 6.136 18.699 6.136 6.28 0 11.704-.476 16.274-1.423 4.565-.952 8.848-2.383 12.847-4.285 1.713-12.758 6.377-22.559 13.988-29.41-10.848-1.14-20.601-2.857-29.264-5.14-8.658-2.286-17.605-5.996-26.835-11.14-9.235-5.137-16.896-11.516-22.985-19.126-6.09-7.614-11.088-17.61-14.987-29.979-3.901-12.374-5.852-26.648-5.852-42.826 0-23.035 7.52-42.637 22.557-58.817-7.044-17.318-6.379-36.732 1.997-58.24 5.52-1.715 13.706-.428 24.554 3.853 10.85 4.283 18.794 7.952 23.84 10.994 5.046 3.041 9.089 5.618 12.135 7.708 17.705-4.947 35.976-7.421 54.818-7.421s37.117 2.474 54.823 7.421l10.849-6.849c7.419-4.57 16.18-8.758 26.262-12.565 10.088-3.805 17.802-4.853 23.134-3.138 8.562 21.509 9.325 40.922 2.279 58.24 15.036 16.18 22.559 35.787 22.559 58.817 0 16.178-1.958 30.497-5.853 42.966-3.9 12.471-8.941 22.457-15.125 29.979-6.191 7.521-13.901 13.85-23.131 18.986-9.232 5.14-18.182 8.85-26.84 11.136-8.662 2.286-18.415 4.004-29.263 5.146 9.894 8.562 14.842 22.077 14.842 40.539v60.237c0 3.422 1.19 6.279 3.572 8.562 2.379 2.279 6.136 2.95 11.276 1.995 44.163-14.653 80.185-41.062 108.068-79.226 27.88-38.161 41.825-81.126 41.825-128.906-.01-39.771-9.818-76.454-29.414-110.049z"/></symbol><symbol viewBox="0 0 299.215 299.215" id="html5-ico" xmlns="http://www.w3.org/2000/svg"><path d="M22.347 0c-2.75 0-4.799 2.241-4.555 4.98l23.184 260.047c.244 2.739 2.611 5.582 5.262 6.318l98.381 27.316c2.65.736 6.986.736 9.637.002l98.68-27.361c2.65-.735 5.02-3.578 5.264-6.316L281.422 4.98c.246-2.739-1.805-4.98-4.555-4.98H22.347zm209.702 59.641l-.842 9.423-.611 6.823c-.246 2.738-.596 6.654-.781 8.701-.184 2.048-.359 3.723-.391 3.723H107.759c-2.75 0-4.799 2.241-4.555 4.98l2.143 23.955c.244 2.738 2.695 4.98 5.445 4.98h111.212c2.449 0 4.273 1.999 4.051 4.442a5396.99 5396.99 0 00-.848 9.423l-6.891 77.228c-.246 2.739-.557 6.238-.691 7.776-.137 1.537-2.416 3.396-5.066 4.131l-58.133 16.119c-2.65.734-4.852 1.342-4.893 1.351-.041.009-2.242-.586-4.893-1.321l-58.195-16.148c-2.65-.735-5.018-3.578-5.262-6.317l-3.746-42.045c-.244-2.739 1.807-4.98 4.557-4.98h23.231c2.75 0 5.199 2.241 5.445 4.98l1.469 16.459c.244 2.739 2.615 5.566 5.271 6.283l27.221 7.351c2.654.717 4.836 1.304 4.848 1.304s2.193-.588 4.848-1.305l27.27-7.369c2.654-.717 5.027-3.545 5.273-6.283l2.957-32.976c.246-2.739-1.803-4.98-4.553-4.98H80.511c-2.75 0-5.199-2.242-5.443-4.98l-7.256-81.306-.842-9.423c-.217-2.443 1.854-4.442 4.604-4.442h155.872c2.749 0 4.821 1.999 4.603 4.443z"/></symbol><symbol viewBox="0 0 97.395 97.395" id="instagram-ico" xmlns="http://www.w3.org/2000/svg"><path d="M12.501 0h72.393c6.875 0 12.5 5.09 12.5 12.5v72.395c0 7.41-5.625 12.5-12.5 12.5H12.501C5.624 97.395 0 92.305 0 84.895V12.5C0 5.09 5.624 0 12.501 0zm58.447 10.821a4.395 4.395 0 00-4.383 4.385v10.495a4.396 4.396 0 004.383 4.385h11.008a4.398 4.398 0 004.385-4.385V15.206a4.397 4.397 0 00-4.385-4.385H70.948zm15.439 30.367h-8.572a28.486 28.486 0 011.25 8.355c0 16.2-13.556 29.332-30.275 29.332-16.718 0-30.272-13.132-30.272-29.332 0-2.904.438-5.708 1.25-8.355h-8.945v41.141a3.884 3.884 0 003.872 3.872h67.822a3.883 3.883 0 003.872-3.872V41.188h-.002zM48.789 29.533c-10.802 0-19.56 8.485-19.56 18.953s8.758 18.953 19.56 18.953c10.803 0 19.562-8.485 19.562-18.953s-8.758-18.953-19.562-18.953z"/></symbol><symbol viewBox="0 0 512 512" id="java-script-ico" xmlns="http://www.w3.org/2000/svg"><path d="M488.534 4.267C486.4 2.133 484.267 0 480.001 0H32c-2.133 0-6.399 2.133-8.533 4.267s-2.133 4.267-2.133 8.533l42.667 426.667c0 4.267 4.267 8.533 6.399 8.533l192 64h8.534L441.6 448c4.267-2.133 6.399-4.267 6.399-8.533L490.666 12.8c.002-2.132.002-6.4-2.132-8.533zM256.001 386.134c0 2.133-2.134 6.4-4.267 8.533s-4.393 2.416-6.525 2.416l-2.007-.283-74.667-21.333c-4.267-2.133-6.399-4.267-8.533-8.533L149.335 313.6c-2.133-6.399 2.133-10.667 8.533-12.8 6.399-2.133 10.667 2.133 12.801 8.533l8.533 46.933 55.467 14.934V130.134H117.334c-6.399 0-10.667-4.267-10.667-10.667 0-6.399 4.267-10.667 10.667-10.667h128c6.399 0 10.667 4.267 10.667 10.667zM405.334 121.6l-10.667 42.667c-2.133 6.399-6.482 9.559-12.8 8.533-6.658-1.08-9.208-6.435-8.533-12.801.804-7.594 6.399-29.866 6.399-29.866h-83.2V236.8H371.2c2.133 0 6.399 2.133 8.533 4.267 2.133 2.133 2.133 6.399 2.133 8.533l-21.333 117.333c0 4.267-4.267 6.399-6.399 8.533l-64 21.333c-2.133 0-9.884 2.95-14.934-6.399-2.133-6.399 2.133-10.667 6.399-12.801l57.6-19.2 17.067-98.134h-72.534c-6.399 0-10.667-4.267-10.667-10.667v-128c0-6.399 4.267-10.667 10.667-10.667h106.667c4.267 0 7.187.912 9.975 2.067 5.915 2.451 4.96 6.469 4.96 8.602z"/></symbol><symbol viewBox="0 0 384 384" id="js-ico" xmlns="http://www.w3.org/2000/svg"><path d="M64 0v80H0v144h64v160h224l96-96V0H64zM16 208V96h240v112H16zm272 153.376V288h73.376L288 361.376zM368 272h-96v96H80V224h192V80H80V16h288v256z"/><path d="M70.416 117.84v48.976c0 3.648-.4 6.352-1.2 8.112-.8 1.744-2.464 2.64-4.944 2.64-2.512 0-4.16-.896-4.96-2.64-.8-1.776-1.2-4.464-1.2-8.112v-2.128H45.44v2.992c0 2.688.256 5.264.784 7.68.496 2.432 1.44 4.544 2.816 6.384 1.376 1.84 3.232 3.232 5.568 4.224 2.352 1.008 5.328 1.504 8.992 1.504 6.976 0 12.16-1.568 15.552-4.656 3.392-3.12 5.088-8.32 5.088-15.616v-49.36H70.416zm74.752 43.136c-.4-1.744-1.072-3.312-2.064-4.752s-2.32-2.784-3.984-4.032c-1.664-1.264-3.808-2.464-6.432-3.616l-10.656-4.608c-2.928-1.2-4.848-2.528-5.744-3.984-.912-1.44-1.344-3.2-1.344-5.328 0-1.024.112-2.016.336-2.976a6.3 6.3 0 011.28-2.576c.608-.736 1.424-1.328 2.448-1.776 1.008-.432 2.288-.672 3.824-.672 2.688 0 4.608.896 5.76 2.64 1.152 1.776 1.728 4.288 1.728 7.552h13.248v-1.92c0-3.264-.544-6.064-1.6-8.4-1.04-2.32-2.528-4.24-4.4-5.744-1.888-1.52-4.144-2.592-6.736-3.264-2.576-.672-5.424-1.008-8.48-1.008-6.592 0-11.792 1.664-15.568 4.992s-5.664 8.368-5.664 15.152c0 2.832.336 5.296 1.04 7.456a15.298 15.298 0 003.312 5.664c1.52 1.648 3.376 3.072 5.632 4.272 2.24 1.216 4.896 2.352 7.968 3.376 2.288.768 4.224 1.52 5.792 2.256 1.568.736 2.832 1.536 3.792 2.448.976.88 1.664 1.888 2.064 3.008.416 1.12.624 2.448.624 3.984 0 2.864-.848 5.008-2.544 6.384-1.68 1.376-3.584 2.064-5.696 2.064-1.792 0-3.28-.272-4.464-.768-1.184-.512-2.128-1.216-2.832-2.128-.704-.896-1.184-2-1.44-3.312-.256-1.296-.384-2.752-.384-4.352v-2.016H100.16v2.784c0 6.352 1.648 11.216 5.008 14.608 3.36 3.392 8.944 5.088 16.752 5.088 7.488 0 13.328-1.664 17.52-4.96 4.208-3.296 6.304-8.56 6.304-15.792 0-2.096-.192-4.032-.576-5.744z"/></symbol><symbol viewBox="0 0 512 512" id="png-ico" xmlns="http://www.w3.org/2000/svg"><path d="M32 464V48c0-8.837 7.163-16 16-16h240v64c0 17.673 14.327 32 32 32h64v48h32v-64a15.997 15.997 0 00-4.64-11.36l-96-96A16.001 16.001 0 00304 0H48C21.49 0 0 21.491 0 48v416c0 26.51 21.49 48 48 48h112v-32H48c-8.836 0-16-7.163-16-16zm448-144h-32v32h32v32h-64v-96h96c0-17.673-14.327-32-32-32h-64c-17.673 0-32 14.327-32 32v96c0 17.673 14.327 32 32 32h64c17.673 0 32-14.327 32-32v-32c0-17.673-14.327-32-32-32z"/><path d="M192 256h-64c-8.837 0-16 7.163-16 16v144h32v-48h48c17.673 0 32-14.327 32-32v-48c0-17.673-14.327-32-32-32zm0 80h-48v-48h48v48zm144 16l-67.2-89.6c-5.302-7.069-15.331-8.502-22.4-3.2A16 16 0 00240 272v144h32v-96l67.2 89.6A16 16 0 00352 416a16.012 16.012 0 005.12-.8A16 16 0 00368 400V256h-32v96z"/></symbol><symbol viewBox="0 0 512.001 512" id="progressive-ico" xmlns="http://www.w3.org/2000/svg"><path d="M40.46 313.34c1.954 1.953 4.513 2.93 7.071 2.93s5.117-.977 7.07-2.93l151.36-151.356 91.633 91.637a10.006 10.006 0 007.07 2.93c2.652 0 5.195-1.055 7.074-2.93l53.149-53.152c3.906-3.903 3.906-10.235 0-14.14s-10.235-3.907-14.14 0l-46.083 46.077-91.633-91.636a10.013 10.013 0 00-7.07-2.93 10.015 10.015 0 00-7.074 2.93L47.53 292.129l-23.39-23.39L205.96 86.921l91.637 91.637a10 10 0 0014.14 0l120.766-120.77c3.906-3.902 3.906-10.234 0-14.14l-3.684-3.688 59.035-15.816L472.04 83.18l-2.004-2a10 10 0 00-14.14 0l-48.579 48.578c-3.906 3.906-3.906 10.238 0 14.144 3.907 3.903 10.235 3.903 14.145 0l41.508-41.507 7.176 7.175a10.006 10.006 0 009.66 2.59 10.008 10.008 0 007.07-7.07l24.785-92.5a9.997 9.997 0 00-2.59-9.66 9.999 9.999 0 00-9.656-2.59l-92.5 24.785a10.006 10.006 0 00-7.07 7.074 9.997 9.997 0 002.586 9.656l8.863 8.864-106.625 106.625-91.637-91.637c-3.902-3.902-10.234-3.906-14.14 0L2.93 261.668c-3.907 3.906-3.907 10.238 0 14.145zm0 0"/><path d="M502 492h-10V189.668c0-5.523-4.477-10-10-10h-56c-5.523 0-10 4.477-10 10V492h-23V309c0-5.52-4.477-10-10-10h-56c-5.523 0-10 4.48-10 10v183h-23V362c0-5.52-4.477-10-10-10h-56c-5.523 0-10 4.48-10 10v130h-23V309c0-5.52-4.477-10-10-10h-56c-5.523 0-10 4.48-10 10v183H96v-91.668c0-5.52-4.477-10-10-10H30c-5.523 0-10 4.48-10 10V492H10c-5.523 0-10 4.48-10 10 0 5.523 4.477 10 10 10h492c5.523 0 10-4.477 10-10 0-5.52-4.477-10-10-10zm-462 0v-81.668h36V492zm99 0V319h36v173zm99 0V372h36v120zm99 0V319h36v173zm99 0V199.668h36V492zm-56.969-333.96a10.08 10.08 0 00-2.93 7.07c0 2.64 1.07 5.21 2.93 7.07a10.023 10.023 0 007.07 2.93c2.63 0 5.208-1.06 7.07-2.93a10.04 10.04 0 002.93-7.07c0-2.63-1.062-5.2-2.93-7.07a10.087 10.087 0 00-7.07-2.93c-2.632 0-5.21 1.07-7.07 2.93zm0 0"/></symbol><symbol viewBox="-2 0 511 512" id="svg-ico" xmlns="http://www.w3.org/2000/svg"><path d="M85.5 60c0-11.027 8.973-20 20-20h174.89v71.11c0 33.085 26.915 60 60 60h71V290h40V142.855L309.259 0H105.5c-33.086 0-60 26.914-60 60v230h40zm234.89 51.11V67.901l62.887 63.207h-42.886c-11.032 0-20-8.968-20-20zM506.5 401v20c0 50.055-40.707 90.8-90.816 91h-.368c-50.109-.2-90.816-40.945-90.816-91 0-50.18 40.8-91 90.945-91 12.868 0 25.32 2.645 37.008 7.86l-16.297 36.527c-6.527-2.91-13.496-4.387-20.71-4.387-28.09 0-50.946 22.879-50.946 51 0 28.059 22.863 50.898 51 51 21.023-.074 39.102-12.848 46.898-31H419.5v-40zm-361 55.5c0 30.602-24.898 55.5-55.5 55.5H.5v-40H90c8.547 0 15.5-6.953 15.5-15.5S98.547 441 90 441H56C25.398 441 .5 416.102.5 385.5S25.398 330 56 330h68.5v40H56c-8.547 0-15.5 6.953-15.5 15.5S47.453 401 56 401h34c30.602 0 55.5 24.898 55.5 55.5zM271.121 330h42.316l-62.792 182h-30.446L156.5 330h42.379l36.383 103.95zm0 0"/></symbol><symbol viewBox="0 0 482.13 482.13" id="technology-ico" xmlns="http://www.w3.org/2000/svg"><path d="M475.266 126.603h-.002l-.016-.016-31.12-4.44a8 8 0 01-3.672-14.32l25.152-18.864a8 8 0 001.6-11.2l-28.8-38.4a8 8 0 00-11.2-1.6l-25.144 18.864a8 8 0 01-12.752-7.528l4.448-31.12a8 8 0 00-6.783-9.055l-.009-.001-47.488-6.784a8 8 0 00-9.056 6.782v.002l-4.448 31.12a8 8 0 01-14.32 3.672L292.8 18.563a8 8 0 00-11.2-1.6l-24.04 18.04a154.787 154.787 0 00-32.72 0C153.614 43.144 97.759 99.946 90.816 171.299c-.216 2.264-.296 4.512-.408 6.76h-2.4a8 8 0 00-7.824 6.4l-5.528 26.288-22.144-15.272a8 8 0 00-10.2.928l-24 24a8 8 0 00-.928 10.192l15.2 22.104-26.296 5.528A8 8 0 000 266.059v32a8 8 0 006.352 7.832l26.296 5.528-15.2 22.104a8 8 0 00.928 10.192l24 24a8 8 0 0010.2.928l22.104-15.24 5.528 26.296a8 8 0 007.824 6.4h32a8 8 0 007.832-6.352l5.528-26.296 22.104 15.2a8 8 0 0010.192-.928l12.424-12.464v22.8a31.896 31.896 0 0016 27.552v44.448c0 17.673 14.327 32 32 32h32c17.673 0 32-14.327 32-32v-44.448a31.896 31.896 0 0016-27.552v-31.664a39.2 39.2 0 0118.504-32.656 153.525 153.525 0 0018.832-14.4l-10.672-11.92a136.188 136.188 0 01-16.856 12.888 55.104 55.104 0 00-25.808 46.088v31.664c0 8.837-7.163 16-16 16h-64c-8.837 0-16-7.163-16-16v-32.328a53.824 53.824 0 00-25.376-45.152c-63.407-39.842-82.511-123.541-42.669-186.948a135.593 135.593 0 01114.325-63.452 8.698 8.698 0 00-.312.872 8 8 0 001.528 5.928l18.856 25.144a7.832 7.832 0 01.48 8.88 7.952 7.952 0 01-8 3.848l-31.12-4.448a8 8 0 00-9.055 6.783l-.001.009-6.792 47.512a8.001 8.001 0 006.783 9.055l.009.001 31.12 4.448a8 8 0 013.672 14.32l-25.144 18.856a8 8 0 00-1.6 11.2l28.8 38.4a8 8 0 0011.2 1.6l25.152-18.856a8 8 0 0112.712 7.528l-4.44 31.12a8 8 0 006.782 9.056h.002l47.52 6.792c.374.048.751.072 1.128.072a8 8 0 007.928-6.864l4.44-31.12a8 8 0 0114.32-3.672l18.864 25.144a8 8 0 0011.2 1.6l38.4-28.8a8 8 0 001.6-11.2l-18.856-25.144a7.863 7.863 0 01-.48-8.88 7.768 7.768 0 018-3.84l31.12 4.44a8 8 0 009.056-6.782v-.002l6.784-47.52a8 8 0 00-6.782-9.056zM210.112 410.059h64v16h-64v-16zm0 32h64v8c0 8.837-7.163 16-16 16h-32c-8.837 0-16-7.163-16-16v-8zm-63.688-137.96a151.206 151.206 0 0013.672 9.96 39.05 39.05 0 0116.12 20.472l-17.16 17.128-16.616-11.456c-7.276-5.014-17.239-3.18-22.254 4.096a16.003 16.003 0 00-2.482 5.784l-4.192 19.976H94.496l-4.192-19.944c-1.82-8.647-10.305-14.182-18.952-12.362a16.003 16.003 0 00-5.784 2.482l-16.624 11.424-14.576-14.544 11.448-16.608c5.019-7.273 3.191-17.237-4.082-22.256a15.994 15.994 0 00-5.79-2.488L16 291.563v-19.008l19.944-4.2c8.644-1.833 14.166-10.326 12.333-18.971a15.996 15.996 0 00-2.453-5.725l-11.456-16.656 14.576-14.544 16.632 11.456c7.279 5.009 17.242 3.169 22.251-4.11a15.983 15.983 0 002.477-5.778l1.4-6.656a152.347 152.347 0 006.344 27.128c-26.323 3.138-45.118 27.022-41.98 53.345 3.138 26.323 27.022 45.118 53.345 41.98a48.004 48.004 0 0037.011-25.725zM134 292.827c-5.974 16.605-24.277 25.223-40.882 19.25-16.605-5.974-25.223-24.277-19.25-40.882a31.952 31.952 0 0130.131-21.136h.304A151.512 151.512 0 00134 292.827zm326.512-119.856l-23.2-3.312c-13.122-1.874-25.278 7.245-27.152 20.366-.9 6.301.74 12.702 4.56 17.794l14.056 18.744-25.6 19.2-14.064-18.736c-7.952-10.605-22.995-12.756-33.599-4.804a24.004 24.004 0 00-9.361 15.804l-3.24 23.232-31.672-4.528 3.312-23.2c1.879-13.121-7.235-25.281-20.356-27.159a23.998 23.998 0 00-17.804 4.559l-18.744 14.056-19.2-25.6 18.736-14.064c10.605-7.952 12.756-22.995 4.804-33.599a24.004 24.004 0 00-15.804-9.361l-23.2-3.312 4.528-31.672 23.2 3.312c13.121 1.879 25.281-7.235 27.159-20.356a23.998 23.998 0 00-4.559-17.804l-14.104-18.76 25.6-19.2 14.064 18.744c7.952 10.605 22.995 12.756 33.599 4.804a24.004 24.004 0 009.361-15.804l3.312-23.2 31.672 4.52-3.312 23.2c-1.874 13.122 7.244 25.278 20.366 27.152 6.301.9 12.702-.74 17.794-4.56l18.744-14.056 19.2 25.6-18.744 14.064c-10.605 7.952-12.756 22.995-4.804 33.599a24.004 24.004 0 0015.804 9.361l23.2 3.312-4.552 31.664z"/><path d="M344 76.171c-35.346 0-64 28.654-64 64 0 35.346 28.654 64 64 64 35.346 0 64-28.654 64-64-.04-35.33-28.67-63.961-64-64zm0 112c-26.51 0-48-21.49-48-48s21.49-48 48-48 48 21.49 48 48c-.031 26.497-21.503 47.969-48 48zM234.112 354.059h16v24h-16zm-26.992-78.568c-49.385-19.292-73.78-74.966-54.487-124.351a96.005 96.005 0 0138.279-46.313l-8.552-13.536c-52.336 32.971-68.035 102.126-35.064 154.462a112.001 112.001 0 0054.016 44.626c19.752 7.568 32.795 26.528 32.8 47.68h16c.025-27.752-17.077-52.641-42.992-62.568zm186.992 22.568h56v16h-56zM380.993 352.2l10.241-12.293 48.004 39.994-10.242 12.292zm-34.881 9.859h16v56h-16zM8.169 138.29l63.996-15.996 3.878 15.513-63.996 15.998zm13.289-81.718l9.295-13.013 55.995 39.996-9.294 13.013zM90.003 4.03l15.5-3.963 16.363 63.995-15.5 3.963z"/></symbol><symbol viewBox="0 0 33.88 33.88" id="tw-ico" xmlns="http://www.w3.org/2000/svg"><path d="M30.414 10.031c.014.297.021.595.021.897 0 9.187-6.992 19.779-19.779 19.779A19.66 19.66 0 01-.001 27.584c.546.063 1.099.095 1.658.095 3.26 0 6.254-1.107 8.632-2.974a6.958 6.958 0 01-6.491-4.828c.424.082.858.125 1.308.125a6.89 6.89 0 001.83-.244 6.958 6.958 0 01-5.576-6.815v-.087c.939.521 2.01.833 3.15.869a6.95 6.95 0 01-3.091-5.787c0-1.274.343-2.467.94-3.495a19.733 19.733 0 0014.327 7.263 7.056 7.056 0 01-.18-1.584 6.95 6.95 0 016.953-6.949 6.94 6.94 0 015.07 2.192 13.944 13.944 0 004.416-1.686 6.964 6.964 0 01-3.057 3.844 13.834 13.834 0 003.991-1.092 14.104 14.104 0 01-3.465 3.6z"/></symbol><symbol viewBox="0 0 512 512" id="validity-ico" xmlns="http://www.w3.org/2000/svg"><path d="M40.871 444.183a15.001 15.001 0 0012.269 7.79l59.475 3.57 32.829 49.722a15 15 0 0025.592-.913l58.344-103.759 16.013 16.014A14.953 14.953 0 00256 421c3.839 0 7.678-1.464 10.606-4.394l16.013-16.014 58.344 103.759a15 15 0 0025.733.696l32.686-51.41 58.996-1.644a14.999 14.999 0 0012.658-22.345l-57.641-102.546 15.36-4.115a15.004 15.004 0 0010.607-18.371l-10.6-39.561a15.044 15.044 0 013.882-14.49l28.96-28.96c5.858-5.858 5.858-15.355 0-21.213l-28.96-28.96a15.045 15.045 0 01-3.883-14.489l10.6-39.562c1.03-3.843.491-7.937-1.499-11.382s-5.266-5.959-9.108-6.989l-39.561-10.6a15.042 15.042 0 01-10.607-10.607l-10.6-39.561a15 15 0 00-18.371-10.607l-39.561 10.6a15.04 15.04 0 01-14.416-3.809L266.785 4.575a15 15 0 00-21.57 0l-28.856 29.853a15.045 15.045 0 01-14.415 3.81l-39.562-10.6a15.004 15.004 0 00-18.371 10.607l-10.6 39.561a15.042 15.042 0 01-10.607 10.607l-39.561 10.6a15.004 15.004 0 00-10.607 18.371l10.6 39.561a15.044 15.044 0 01-3.882 14.49l-28.96 28.96c-5.858 5.858-5.858 15.355 0 21.213l28.96 28.96a15.045 15.045 0 013.883 14.489l-10.6 39.562c-1.03 3.843-.491 7.937 1.499 11.382s5.266 5.959 9.108 6.989l15.36 4.115L40.963 429.65a14.997 14.997 0 00-.092 14.533zm349.712-20.312a15.003 15.003 0 00-12.241 6.946L354.828 467.8l-47.513-84.498c2.572.193.56-.026 42.303 11.061a15.003 15.003 0 0018.371-10.607l10.6-39.561a15.026 15.026 0 015.458-8.083l48.669 86.584-42.133 1.175zM82.213 211l18.354-18.354c11.332-11.331 15.794-27.986 11.647-43.466l-6.718-25.073 25.072-6.718c15.48-4.147 27.673-16.34 31.821-31.821l6.718-25.072 25.073 6.718c15.481 4.146 32.135-.316 43.466-11.648.06-.059 18.354-18.983 18.354-18.983s18.294 18.925 18.354 18.984c11.332 11.332 27.986 15.796 43.466 11.647l25.073-6.718 6.718 25.072c4.147 15.48 16.34 27.673 31.821 31.821l25.072 6.718-6.718 25.073c-4.146 15.479.316 32.135 11.648 43.466L429.787 211l-18.354 18.354c-11.332 11.331-15.794 27.986-11.647 43.466l6.718 25.073-25.072 6.718c-15.48 4.147-27.673 16.34-31.821 31.821l-6.718 25.072-25.073-6.718c-14.373-3.848-29.752-.268-40.949 9.333-1.307 1.002-.315.148-20.871 20.668-20.415-20.375-19.565-19.673-20.902-20.692-11.314-9.684-26.689-13.122-40.918-9.309l-25.073 6.718-6.718-25.072c-4.147-15.48-16.34-27.673-31.821-31.821l-25.072-6.718 6.718-25.073c4.146-15.479-.316-32.135-11.648-43.466L82.213 211zm45.741 125.113a15.031 15.031 0 015.458 8.083l10.6 39.561a14.999 14.999 0 0018.371 10.607c42.018-11.16 39.74-10.867 42.303-11.061l-47.75 84.919-23.417-35.467a14.997 14.997 0 00-11.619-6.708l-43.044-2.583 49.098-87.351z"/><path d="M230.394 266.606c2.928 2.93 6.767 4.394 10.606 4.394s7.678-1.464 10.606-4.394l60-60c5.858-5.858 5.858-15.355 0-21.213-5.857-5.858-15.355-5.858-21.213 0L241 234.787l-19.394-19.393c-5.857-5.858-15.355-5.858-21.213 0-5.858 5.858-5.858 15.355 0 21.213l30.001 29.999z"/><path d="M256 331c66.168 0 120-53.832 120-120S322.168 91 256 91s-120 53.832-120 120 53.832 120 120 120zm0-210c49.626 0 90 40.374 90 90s-40.374 90-90 90-90-40.374-90-90 40.374-90 90-90z"/></symbol><symbol viewBox="0 0 548.358 548.358" id="vk-ico" xmlns="http://www.w3.org/2000/svg"><path d="M545.451 400.298c-.664-1.431-1.283-2.618-1.858-3.569-9.514-17.135-27.695-38.167-54.532-63.102l-.567-.571-.284-.28-.287-.287h-.288c-12.18-11.611-19.893-19.418-23.123-23.415-5.91-7.614-7.234-15.321-4.004-23.13 2.282-5.9 10.854-18.36 25.696-37.397 7.807-10.089 13.99-18.175 18.556-24.267 32.931-43.78 47.208-71.756 42.828-83.939l-1.701-2.847c-1.143-1.714-4.093-3.282-8.846-4.712-4.764-1.427-10.853-1.663-18.278-.712l-82.224.568c-1.332-.472-3.234-.428-5.712.144l-3.713.859-1.431.715-1.136.859c-.952.568-1.999 1.567-3.142 2.995-1.137 1.423-2.088 3.093-2.848 4.996-8.952 23.031-19.13 44.444-30.553 64.238-7.043 11.803-13.511 22.032-19.418 30.693-5.899 8.658-10.848 15.037-14.842 19.126-4 4.093-7.61 7.372-10.852 9.849-3.237 2.478-5.708 3.525-7.419 3.142-1.715-.383-3.33-.763-4.859-1.143-2.663-1.714-4.805-4.045-6.42-6.995-1.622-2.95-2.714-6.663-3.285-11.136-.568-4.476-.904-8.326-1-11.563-.089-3.233-.048-7.806.145-13.706.198-5.903.287-9.897.287-11.991 0-7.234.141-15.085.424-23.555.288-8.47.521-15.181.716-20.125.194-4.949.284-10.185.284-15.705s-.336-9.849-1-12.991a44.442 44.442 0 00-2.99-9.137c-1.335-2.95-3.289-5.232-5.853-6.852-2.569-1.618-5.763-2.902-9.564-3.856-10.089-2.283-22.936-3.518-38.547-3.71-35.401-.38-58.148 1.906-68.236 6.855-3.997 2.091-7.614 4.948-10.848 8.562-3.427 4.189-3.905 6.475-1.431 6.851 11.422 1.711 19.508 5.804 24.267 12.275l1.715 3.429c1.334 2.474 2.666 6.854 3.999 13.134 1.331 6.28 2.19 13.227 2.568 20.837.95 13.897.95 25.793 0 35.689-.953 9.9-1.853 17.607-2.712 23.127-.859 5.52-2.143 9.993-3.855 13.418-1.715 3.426-2.856 5.52-3.428 6.28-.571.76-1.047 1.239-1.425 1.427a21.387 21.387 0 01-7.71 1.431c-2.667 0-5.901-1.334-9.707-4-3.805-2.666-7.754-6.328-11.847-10.992-4.093-4.665-8.709-11.184-13.85-19.558-5.137-8.374-10.467-18.271-15.987-29.691l-4.567-8.282c-2.855-5.328-6.755-13.086-11.704-23.267-4.952-10.185-9.329-20.037-13.134-29.554-1.521-3.997-3.806-7.04-6.851-9.134l-1.429-.859c-.95-.76-2.475-1.567-4.567-2.427a30.301 30.301 0 00-6.567-1.854l-78.229.568c-7.994 0-13.418 1.811-16.274 5.428l-1.143 1.711c-.571.953-.859 2.475-.859 4.57 0 2.094.571 4.664 1.714 7.707 11.42 26.84 23.839 52.725 37.257 77.659 13.418 24.934 25.078 45.019 34.973 60.237 9.897 15.229 19.985 29.602 30.264 43.112 10.279 13.515 17.083 22.176 20.412 25.981 3.333 3.812 5.951 6.662 7.854 8.565l7.139 6.851c4.568 4.569 11.276 10.041 20.127 16.416 8.853 6.379 18.654 12.659 29.408 18.85 10.756 6.181 23.269 11.225 37.546 15.126 14.275 3.905 28.169 5.472 41.684 4.716h32.834c6.659-.575 11.704-2.669 15.133-6.283l1.136-1.431c.764-1.136 1.479-2.901 2.139-5.276.668-2.379 1-5 1-7.851-.195-8.183.428-15.558 1.852-22.124 1.423-6.564 3.045-11.513 4.859-14.846 1.813-3.33 3.859-6.14 6.136-8.418 2.282-2.283 3.908-3.666 4.862-4.142.948-.479 1.705-.804 2.276-.999 4.568-1.522 9.944-.048 16.136 4.429 6.187 4.473 11.99 9.996 17.418 16.56 5.425 6.57 11.943 13.941 19.555 22.124 7.617 8.186 14.277 14.271 19.985 18.274l5.708 3.426c3.812 2.286 8.761 4.38 14.853 6.283 6.081 1.902 11.409 2.378 15.984 1.427l73.087-1.14c7.229 0 12.854-1.197 16.844-3.572 3.998-2.379 6.373-5 7.139-7.851.764-2.854.805-6.092.145-9.712-.677-3.611-1.344-6.136-2.008-7.563z"/></symbol><symbol viewBox="0 -31 512 512" id="work-ico" xmlns="http://www.w3.org/2000/svg"><path d="M497.094 60.004c-.031 0-.063-.004-.094-.004H361V45c0-24.813-20.188-45-45-45H196c-24.813 0-45 20.188-45 45v15H15C6.648 60 0 66.844 0 75v330c0 24.813 20.188 45 45 45h422c24.813 0 45-20.188 45-45V75.258c-.574-9.852-6.633-15.2-14.906-15.254zM181 45c0-8.27 6.73-15 15-15h120c8.27 0 15 6.73 15 15v15H181zm295.188 45l-46.583 139.742A14.975 14.975 0 01415.38 240H331v-15c0-8.285-6.715-15-15-15H196c-8.285 0-15 6.715-15 15v15H96.621a14.975 14.975 0 01-14.226-10.258L35.813 90zM301 240v30h-90v-30zm181 165c0 8.27-6.73 15-15 15H45c-8.27 0-15-6.73-15-15V167.434l23.934 71.796A44.935 44.935 0 0096.62 270H181v15c0 8.285 6.715 15 15 15h120c8.285 0 15-6.715 15-15v-15h84.379a44.935 44.935 0 0042.687-30.77L482 167.434zm0 0"/></symbol></svg>