<?xml version="1.0" encoding="utf-8"?><svg xmlns="http://www.w3.org/2000/svg" xmlns:xlink="http://www.w3.org/1999/xlink"><symbol viewBox="0 0 504 504" id="call-ico" xmlns="http://www.w3.org/2000/svg"><path d="M377.6 0H126C56.8 0 0 56.8 0 126.4V378c0 69.2 56.8 126 126 126h251.6c69.6 0 126.4-56.8 126.4-126.4V126.4C504 56.8 447.2 0 377.6 0zM238.4 103.6c.8-12.4 12.4-8 18.4-8.8 75.2 2.4 140 70 139.2 142.8 0 7.2 2.4 17.6-8.4 17.6-10.4 0-7.6-10.8-8.8-18-10-77.2-46-113.6-124.4-125.6-6.4-.8-16.4.4-16-8zm112.4 137.2c-12 1.6-9.6-8.8-10.8-15.6-8-47.2-24.8-64.4-73.2-74.8-7.2-1.6-18.4-.4-16.4-11.2 1.6-10.4 11.6-6.8 19.2-6 48.4 5.6 88 46.8 87.6 92-.8 4.8 2.4 14-6.4 15.6zm-30-24.8c0 6.4-.8 12.4-8 13.2-5.2.8-8.4-3.6-9.2-8.8-2-19.2-12.4-30.8-32.4-34-6-.8-11.6-2.8-8.8-10.8 2-5.2 6.8-6 12-6 21.6-.4 46.4 24.8 46.4 46.4zm76 147.6c-8.4 22.8-36.8 46-61.2 45.6-3.6-.8-10.4-2-16.4-4.4C212 359.6 134 285.2 90 178.8c-14.8-35.6.8-66 38-78 6.8-2.4 13.2-2.4 20 0 16 5.6 56.4 60.4 57.2 76.4.8 12.4-8 19.2-16.4 24.8-16.4 10.8-16.4 24.4-9.2 40 15.6 34.4 42.4 58.4 77.2 73.6 12.4 5.6 24.8 5.2 33.2-7.6 15.2-22.8 34-21.6 54.4-7.6 10.4 7.2 20.8 14 30.4 21.6 13.2 10.8 30 19.6 22 41.6z"/></symbol><symbol viewBox="0 0 512.001 512.001" id="cancel-ico" xmlns="http://www.w3.org/2000/svg"><path d="M284.286 256.002L506.143 34.144c7.811-7.811 7.811-20.475 0-28.285s-20.475-7.811-28.285 0L256 227.717 34.143 5.859c-7.811-7.811-20.475-7.811-28.285 0s-7.811 20.475 0 28.285l221.857 221.857L5.858 477.859c-7.811 7.811-7.811 20.475 0 28.285 3.905 3.905 9.024 5.857 14.143 5.857s10.237-1.952 14.143-5.857L256 284.287l221.857 221.857c3.905 3.905 9.024 5.857 14.143 5.857s10.237-1.952 14.143-5.857c7.811-7.811 7.811-20.475 0-28.285L284.286 256.002z"/></symbol><symbol viewBox="0 0 492 492" id="carousel-arrow-ico" xmlns="http://www.w3.org/2000/svg"><path d="M198.608 246.104L382.664 62.04c5.068-5.056 7.856-11.816 7.856-19.024 0-7.212-2.788-13.968-7.856-19.032l-16.128-16.12C361.476 2.792 354.712 0 347.504 0s-13.964 2.792-19.028 7.864L109.328 227.008c-5.084 5.08-7.868 11.868-7.848 19.084-.02 7.248 2.76 14.028 7.848 19.112l218.944 218.932c5.064 5.072 11.82 7.864 19.032 7.864 7.208 0 13.964-2.792 19.032-7.864l16.124-16.12c10.492-10.492 10.492-27.572 0-38.06L198.608 246.104z"/></symbol><symbol viewBox="0 0 97.75 97.75" id="facebook-ico" xmlns="http://www.w3.org/2000/svg"><path d="M48.875 0C21.882 0 0 21.882 0 48.875S21.882 97.75 48.875 97.75 97.75 75.868 97.75 48.875 75.868 0 48.875 0zm18.646 24.89l-6.76.003c-5.301 0-6.326 2.519-6.326 6.215v8.15h12.641l-.006 12.765H54.436v32.758H41.251V52.023H30.229V39.258h11.022v-9.414c0-10.925 6.675-16.875 16.42-16.875l9.851.015V24.89h-.001z"/></symbol><symbol viewBox="0 0 24 24" id="google-plus-ico" xmlns="http://www.w3.org/2000/svg"><path d="M12 24c6.624 0 12-5.376 12-12S18.624 0 12 0 0 5.376 0 12s5.376 12 12 12zm4.283-12.857h1.718V9.426h1.718v1.718h1.703v1.718h-1.703v1.718h-1.718v-1.718h-1.718zM8.579 5.999c1.514 0 2.908.533 4.017 1.563L10.97 9.14c-.639-.625-1.514-.924-2.391-.924-2.076 0-3.736 1.718-3.736 3.779s1.655 3.779 3.736 3.779c1.577 0 3.14-.924 3.392-2.579H8.579v-2.061h5.657c.063.329.092.658.092 1.001 0 3.426-2.299 5.864-5.749 5.864V18c-3.329 0-6.001-2.686-6.001-6.001s2.672-6 6.001-6z"/></symbol><symbol viewBox="0 -28 512.001 512" id="heart-ico" xmlns="http://www.w3.org/2000/svg"><path d="M256 455.516a30.022 30.022 0 01-19.793-7.438c-20.684-18.086-40.625-35.082-58.219-50.074l-.09-.078c-51.582-43.957-96.125-81.918-127.117-119.313C16.137 236.81 0 197.172 0 153.871c0-42.07 14.426-80.883 40.617-109.293C67.121 15.832 103.488 0 143.031 0c29.555 0 56.621 9.344 80.446 27.77C235.5 37.07 246.398 48.453 256 61.73c9.605-13.277 20.5-24.66 32.527-33.96C312.352 9.344 339.418 0 368.973 0c39.539 0 75.91 15.832 102.414 44.578C497.578 72.988 512 111.801 512 153.871c0 43.3-16.133 82.938-50.777 124.738-30.993 37.399-75.532 75.356-127.106 119.309-17.625 15.016-37.597 32.039-58.328 50.168a30.046 30.046 0 01-19.789 7.43zM143.031 29.992c-31.066 0-59.605 12.399-80.367 34.914-21.07 22.856-32.676 54.45-32.676 88.965 0 36.418 13.535 68.988 43.883 105.606 29.332 35.394 72.961 72.574 123.477 115.625l.093.078c17.66 15.05 37.68 32.113 58.516 50.332 20.961-18.254 41.012-35.344 58.707-50.418 50.512-43.051 94.137-80.223 123.469-115.617 30.344-36.618 43.879-69.188 43.879-105.606 0-34.516-11.606-66.11-32.676-88.965-20.758-22.515-49.3-34.914-80.363-34.914-22.758 0-43.653 7.235-62.102 21.5-16.441 12.719-27.894 28.797-34.61 40.047-3.452 5.785-9.53 9.238-16.261 9.238s-12.809-3.453-16.262-9.238c-6.71-11.25-18.164-27.328-34.61-40.047-18.448-14.265-39.343-21.5-62.097-21.5zm0 0"/></symbol><symbol viewBox="0 0 512 512" id="leaf-ico" xmlns="http://www.w3.org/2000/svg"><path d="M495.922 80.261c.009-.066.016-.133.023-.199a8.014 8.014 0 00.052-1.044c-.001-.036-.006-.071-.007-.107a8.035 8.035 0 00-.095-.962c-.01-.063-.017-.126-.029-.19a8.029 8.029 0 00-.245-.985l-.062-.181a7.96 7.96 0 00-.94-1.884l-.115-.167a7.965 7.965 0 00-.66-.81c-.035-.038-.074-.073-.11-.11-.12-.123-.237-.247-.366-.363-.114-.103-.234-.195-.353-.29-.031-.026-.057-.056-.088-.081-.016-.012-.034-.021-.05-.033a7.976 7.976 0 00-.883-.59l-.165-.09a7.95 7.95 0 00-1.993-.764 4.945 4.945 0 00-.175-.04 7.973 7.973 0 00-1.023-.15c-.051-.005-.103-.006-.155-.009a7.966 7.966 0 00-1.001 0c-.028.001-.056 0-.084.003a7.986 7.986 0 00-1.04.152 8.227 8.227 0 00-.182.04 7.935 7.935 0 00-1.019.307c-.029.011-.057.025-.086.036a7.955 7.955 0 00-.95.45c-.024.014-.051.022-.077.036l-50.152 28.528A197.8 197.8 0 01277.005 117.4 141.89 141.89 0 0092.608 244.834l-3.476 62.567a89.021 89.021 0 01-9.315 35.077l-6.269 12.538-47.414 41.487a29.332 29.332 0 00-3.596 40.476v-.001a29.4 29.4 0 0022.947 11.03q.983 0 1.973-.067a29.4 29.4 0 0023.228-14.2l31.132-51.888a89.205 89.205 0 0174.93-6.805 219.895 219.895 0 00142.85 1.52 204.3 204.3 0 00132.257-138.82L495.703 81.35c.004-.015.005-.029.009-.043a7.969 7.969 0 00.21-1.046zM290.452 216h-.004a190.356 190.356 0 00-163.23 92.42l-32.806 54.678-4.596-4.596 30.425-58.083A186.818 186.818 0 01286.2 200a203.23 203.23 0 00134.454-50.793l19.647-17.315-8.23 11.458A174.759 174.759 0 01290.452 216zm-132.929-63.078a125.938 125.938 0 01114.664-20.263 213.94 213.94 0 00154.703-10.275l-15.942 14.05c-34.47 30.38-78.758 47.622-124.704 47.566-.47 0-.939.009-1.409.012a42.987 42.987 0 0115.53-13.803 7.97 7.97 0 003.842-9.59h-.001a8.018 8.018 0 00-11.363-4.53 59.035 59.035 0 00-26.7 28.896 203.198 203.198 0 00-50.135 11.438 86.959 86.959 0 0110.795-41.64 8.033 8.033 0 00-2.52-10.595 8.01 8.01 0 00-11.455 2.8A102.893 102.893 0 00200 196.846v6.236a202.377 202.377 0 00-55.28 38.117 43.293 43.293 0 01-2.799-23.968 8.053 8.053 0 00-5.334-9.034h-.001a8.013 8.013 0 00-10.428 6.27 59.2 59.2 0 006.839 39.104 204.422 204.422 0 00-26.93 39.425l-.123.236 2.64-47.51a125.779 125.779 0 0148.939-92.8zM56.966 425.508a13.388 13.388 0 01-21.934 1.475 13.362 13.362 0 011.638-18.439l42.965-37.595 6.291 6.291zm379.483-192.08a188.315 188.315 0 01-121.912 127.96 203.803 203.803 0 01-132.408-1.408 105.163 105.163 0 00-66.23-1.596l25.04-41.732a173.25 173.25 0 014.395-6.905l20.49-5.589a111.96 111.96 0 0195.122 17.372 8.014 8.014 0 0010.878-1.319 7.992 7.992 0 00-1.403-11.573 127.963 127.963 0 00-108.578-19.974 174.573 174.573 0 0142.7-34.032q6.64-3.76 13.577-6.898l5.442-1.088a181.307 181.307 0 01125.65 20.232 7.977 7.977 0 0010.697-2.732v-.001a8.02 8.02 0 00-2.87-11.223 197.83 197.83 0 00-55.351-21.259 189.835 189.835 0 0040.08-6.758l16.447 2.35a176.866 176.866 0 0025.027 1.786 175.227 175.227 0 0034.496-3.433 8.016 8.016 0 006.215-9.797 7.973 7.973 0 00-9.277-5.908 159.37 159.37 0 01-40.957 2.842 190.404 190.404 0 0071.35-60.061l22.994-32.018z" data-name="Out line"/></symbol><symbol viewBox="0 0 512 512" id="linkedin-ico" xmlns="http://www.w3.org/2000/svg"><path d="M256 0C114.637 0 0 114.637 0 256s114.637 256 256 256 256-114.637 256-256S397.363 0 256 0zm-74.39 387h-62.348V199.426h62.347zm-31.173-213.188h-.406c-20.922 0-34.453-14.402-34.453-32.402 0-18.406 13.945-32.41 35.274-32.41 21.328 0 34.453 14.004 34.859 32.41 0 18-13.531 32.403-35.274 32.403zM406.423 387h-62.34V286.652c0-25.218-9.027-42.418-31.586-42.418-17.223 0-27.48 11.602-31.988 22.801-1.649 4.008-2.051 9.61-2.051 15.215V387h-62.344s.817-169.977 0-187.574h62.344v26.558c8.285-12.78 23.11-30.96 56.188-30.96 41.02 0 71.777 26.808 71.777 84.421zm0 0"/></symbol><symbol viewBox="0 0 479.058 479.058" id="mail-ico" xmlns="http://www.w3.org/2000/svg"><path d="M434.146 59.882H44.912C20.146 59.882 0 80.028 0 104.794v269.47c0 24.766 20.146 44.912 44.912 44.912h389.234c24.766 0 44.912-20.146 44.912-44.912v-269.47c0-24.766-20.146-44.912-44.912-44.912zm0 29.941c2.034 0 3.969.422 5.738 1.159L239.529 264.631 39.173 90.982a14.902 14.902 0 015.738-1.159zm0 299.411H44.912c-8.26 0-14.971-6.71-14.971-14.971V122.615l199.778 173.141c2.822 2.441 6.316 3.655 9.81 3.655s6.988-1.213 9.81-3.655l199.778-173.141v251.649c-.001 8.26-6.711 14.97-14.971 14.97z"/></symbol><symbol viewBox="0 0 512 512" id="mailbox-ico" xmlns="http://www.w3.org/2000/svg"><path d="M512 203.06v-.045c0-.427-.024-.85-.059-1.271-.01-.115-.025-.229-.037-.344a15.13 15.13 0 00-.139-.981c-.021-.122-.042-.244-.066-.365a14.92 14.92 0 00-.282-1.172l-.031-.115a15.192 15.192 0 00-.401-1.163c-.056-.146-.118-.289-.179-.434a14.224 14.224 0 00-.35-.764c-.072-.146-.141-.293-.217-.437a15.366 15.366 0 00-.6-1.031c-.08-.125-.168-.245-.252-.368a14.775 14.775 0 00-.816-1.091 14.777 14.777 0 00-.825-.928l-.068-.07a14.93 14.93 0 00-.979-.9c-.042-.036-.078-.076-.121-.111L481 170.245v-65.229c0-19.299-15.701-35-35-35h-85.776l-69.1-57.345c-20.354-16.888-49.896-16.888-70.248 0l-69.1 57.344H66c-19.299 0-35 15.701-35 35v65.229L5.421 191.472c-.042.035-.079.075-.121.111a14.93 14.93 0 00-.979.9l-.068.07a15.1 15.1 0 00-.825.928c-.101.122-.198.247-.295.372-.181.235-.354.475-.521.719-.084.123-.172.243-.252.368-.214.335-.413.679-.6 1.031-.077.144-.146.291-.217.437-.124.251-.24.506-.35.764-.061.144-.123.288-.179.434-.148.382-.285.768-.401 1.163l-.031.115a14.92 14.92 0 00-.487 2.518c-.012.115-.027.229-.037.344-.034.419-.058.842-.058 1.269v253.98c0 15.718 6.638 29.906 17.246 39.939.301.301.603.599.925.87 9.757 8.814 22.676 14.19 36.829 14.19h402c14.154 0 27.074-5.377 36.832-14.193.319-.27.619-.565.918-.864 10.61-10.033 17.25-24.223 17.25-39.943V203.06zM66 100.015h380c2.757 0 5 2.243 5 5v116.682l-8.488 7.044-170.546 141.533c-9.251 7.677-22.681 7.676-31.932 0L69.488 228.742 61 221.697V105.015c0-2.757 2.243-5 5-5zm-36 356.98v-222.04l6.452 5.355.012.01 146.469 121.551L31.536 465.623A24.868 24.868 0 0130 456.995zm176.937-75.204l13.939 11.568c20.352 16.89 49.896 16.889 70.248 0l13.939-11.568 146.22 100.204H60.716zm122.13-19.919L475.535 240.32l.012-.01 6.452-5.355v222.04c0 3.031-.543 5.938-1.536 8.628zM240.034 35.758c9.251-7.677 22.681-7.677 31.932 0l41.281 34.258H198.753z"/><path d="M131.5 164.995c0 8.284 6.716 15 15 15h142c8.284 0 15-6.716 15-15s-6.716-15-15-15h-142c-8.284 0-15 6.716-15 15zm15 75h219c6.988 0 12.843-4.786 14.509-11.254.309-1.2.491-2.45.491-3.746 0-8.284-6.716-15-15-15h-219c-8.284 0-15 6.716-15 15 0 1.296.182 2.547.491 3.746 1.666 6.469 7.521 11.254 14.509 11.254z"/></symbol><symbol viewBox="0 0 512 512" id="menu-ico" xmlns="http://www.w3.org/2000/svg"><path d="M492 276H20c-11.046 0-20-8.954-20-20s8.954-20 20-20h472c11.046 0 20 8.954 20 20s-8.954 20-20 20zM492 116H20c-11.046 0-20-8.954-20-20s8.954-20 20-20h472c11.046 0 20 8.954 20 20s-8.954 20-20 20zM492 436H20c-11.046 0-20-8.954-20-20s8.954-20 20-20h472c11.046 0 20 8.954 20 20s-8.954 20-20 20z"/></symbol><symbol viewBox="-104 0 480 480" id="phone-ico" xmlns="http://www.w3.org/2000/svg"><path d="M232 0H40C17.918.027.027 17.918 0 40v400c.027 22.082 17.918 39.973 40 40h192c22.082-.027 39.973-17.918 40-40V40c-.027-22.082-17.918-39.973-40-40zM40 16h192c13.254 0 24 10.746 24 24v24H16V40c0-13.254 10.746-24 24-24zm216 64v320H16V80zm-24 384H40c-13.254 0-24-10.746-24-24v-24h240v24c0 13.254-10.746 24-24 24zm0 0"/><path d="M120 432h32v16h-32zM48 32h16v16H48zm32 0h48v16H80zM40 384h192a8 8 0 008-8V104a8 8 0 00-8-8H40a8 8 0 00-8 8v272a8 8 0 008 8zm8-16v-28.688l48-48L172.688 368zm176 0h-28.688l-64-64L192 243.312l32 32zm0-256v140.688l-26.344-26.344a8.004 8.004 0 00-11.312 0L120 292.688l-18.344-18.344a8.004 8.004 0 00-11.312 0L48 316.688V112zm0 0"/><path d="M160 192c17.672 0 32-14.328 32-32s-14.328-32-32-32-32 14.328-32 32 14.328 32 32 32zm0-48c8.836 0 16 7.164 16 16s-7.164 16-16 16-16-7.164-16-16 7.164-16 16-16zm0 0"/></symbol><symbol viewBox="0 -31 512 512" id="suitcase-ico" xmlns="http://www.w3.org/2000/svg"><path d="M497.094 60.004c-.031 0-.063-.004-.094-.004H361V45c0-24.813-20.188-45-45-45H196c-24.813 0-45 20.188-45 45v15H15C6.648 60 0 66.844 0 75v330c0 24.813 20.188 45 45 45h422c24.813 0 45-20.188 45-45V75.258c-.574-9.852-6.633-15.2-14.906-15.254zM181 45c0-8.27 6.73-15 15-15h120c8.27 0 15 6.73 15 15v15H181zm295.188 45l-46.583 139.742A14.975 14.975 0 01415.38 240H331v-15c0-8.285-6.715-15-15-15H196c-8.285 0-15 6.715-15 15v15H96.621a14.975 14.975 0 01-14.226-10.258L35.813 90zM301 240v30h-90v-30zm181 165c0 8.27-6.73 15-15 15H45c-8.27 0-15-6.73-15-15V167.434l23.934 71.796A44.935 44.935 0 0096.62 270H181v15c0 8.285 6.715 15 15 15h120c8.285 0 15-6.715 15-15v-15h84.379a44.935 44.935 0 0042.687-30.77L482 167.434zm0 0"/></symbol><symbol viewBox="0 0 512 512" id="twitter-ico" xmlns="http://www.w3.org/2000/svg"><path d="M256 0C114.637 0 0 114.637 0 256s114.637 256 256 256 256-114.637 256-256S397.363 0 256 0zm116.887 199.602c.113 2.52.168 5.05.168 7.593 0 77.645-59.102 167.18-167.184 167.184h.004-.004c-33.184 0-64.062-9.727-90.066-26.395 4.597.543 9.277.813 14.015.813 27.532 0 52.868-9.39 72.98-25.152-25.722-.477-47.41-17.465-54.894-40.813a58.481 58.481 0 0011.043 1.063 58.8 58.8 0 0015.496-2.07c-26.886-5.384-47.14-29.145-47.14-57.598 0-.266 0-.504.007-.75a58.354 58.354 0 0026.614 7.347c-15.778-10.527-26.149-28.523-26.149-48.91a58.597 58.597 0 017.957-29.535c28.977 35.555 72.282 58.937 121.118 61.394a58.708 58.708 0 01-1.528-13.398c0-32.437 26.317-58.754 58.766-58.754 16.902 0 32.168 7.145 42.89 18.567a117.855 117.855 0 0037.313-14.262c-4.395 13.715-13.707 25.222-25.84 32.5 11.887-1.422 23.215-4.574 33.742-9.254a119.412 119.412 0 01-29.308 30.43zm0 0"/></symbol><symbol viewBox="0 0 508 508" id="umbrella-ico" xmlns="http://www.w3.org/2000/svg"><path d="M262.2 24.8V0h-16.4v24.8C114.1 29.1 8.2 137.6 8.2 270.4v14.1L73.8 247l57.4 32.8 57.6-32.9 57.1 28.6V467c0 13.6-11 24.6-24.6 24.6-13.6 0-24.6-11-24.6-24.6v-24.6h-16.4V467c0 22.6 18.4 41 41 41s41-18.4 41-41V275.5l57.1-28.6 59 32.9 55.9-32.7 65.5 37.4v-14.1c0-132.8-105.9-241.3-237.6-245.6zM123.3 256.5l-49.5-28.3L25 256c7-111.6 94-201.8 204.3-213.7-64.1 53.8-102.1 130.8-106 214.2zm122.5.5l-57.6-28.7-48.5 27.7c4-80.5 41.9-154.8 105.3-205.6l.8-.7V257zm74-28.7l-57.6 28.8V49.8l.8.7c63.3 50.6 101.1 124.6 105.3 204.9l-48.5-27.1zm114.4-.2l-49.5 29C381 173.5 343 96.3 278.7 42.3 389 54.2 476 144.4 483 256l-48.8-27.9z"/></symbol><symbol viewBox="0 0 512 512" id="youtube-ico" xmlns="http://www.w3.org/2000/svg"><path d="M224.113 303.96L307.387 256l-83.274-47.96zm0 0"/><path d="M256 0C114.637 0 0 114.637 0 256s114.637 256 256 256 256-114.637 256-256S397.363 0 256 0zm159.96 256.262s0 51.918-6.585 76.953c-3.691 13.703-14.496 24.508-28.2 28.195C356.142 368 256 368 256 368s-99.879 0-125.176-6.852c-13.703-3.687-24.508-14.496-28.199-28.199-6.59-24.77-6.59-76.949-6.59-76.949s0-51.914 6.59-76.95c3.688-13.702 14.758-24.773 28.2-28.46C155.858 144 256 144 256 144s100.14 0 125.176 6.852c13.703 3.687 24.508 14.496 28.199 28.199 6.852 25.035 6.586 77.21 6.586 77.21zm0 0"/></symbol></svg>