<?xml version="1.0" encoding="utf-8"?><svg xmlns="http://www.w3.org/2000/svg" xmlns:xlink="http://www.w3.org/1999/xlink"><symbol viewBox="0 0 512 512" id="cake-ico" xmlns="http://www.w3.org/2000/svg"><path fill="#f8c066" d="M33.427 365.07h445.15v101.37H33.427z"/><path d="M148.54 442.569c-.65 0-1.31-.06-1.96-.189-.63-.13-1.26-.32-1.87-.57-.6-.25-1.18-.56-1.72-.92-.55-.37-1.06-.79-1.52-1.25s-.88-.97-1.25-1.52c-.36-.54-.66-1.12-.91-1.721-.25-.6-.45-1.23-.58-1.869-.12-.65-.19-1.301-.19-1.961 0-.649.07-1.3.19-1.949.13-.641.33-1.27.58-1.87.24-.601.55-1.19.91-1.73.37-.54.79-1.06 1.25-1.52s.97-.88 1.52-1.24c.54-.36 1.12-.67 1.72-.92.61-.25 1.24-.44 1.87-.57 1.29-.26 2.62-.26 3.91 0 .64.13 1.27.32 1.87.57.61.25 1.19.56 1.73.92.55.36 1.06.78 1.52 1.24a9.991 9.991 0 012.16 3.25c.25.6.44 1.229.57 1.87.13.649.2 1.3.2 1.949a10.065 10.065 0 01-2.93 7.071 9.87 9.87 0 01-3.25 2.17 9.839 9.839 0 01-3.82.759z"/><path d="M466.05 105.677H45.95c-19.855 0-35.95 16.095-35.95 35.95v123.525c0 14.213 12.493 25.842 27.762 25.842s27.762-11.629 27.762-25.842v-34.648c2.877 11.408 13.908 19.977 27.009 19.977 12.137 0 22.484-7.36 26.23-17.513v32.184c0 14.213 12.493 25.842 27.762 25.842s27.762-11.629 27.762-25.842v-8.633l.778-23.551c3.746 10.153 14.094 17.513 26.231 17.513 13.101 0 24.132-8.569 27.009-19.977v19.977c0 14.213 12.493 25.841 27.762 25.841.13 0 .259-.008.389-.009.13.002.258.009.389.009 15.269 0 27.762-11.629 27.762-25.841v-19.977c2.876 11.408 13.908 19.977 27.009 19.977 12.137 0 22.484-7.36 26.231-17.513l.778 23.551v8.633c0 14.213 12.493 25.842 27.762 25.842s26.848-11.629 26.848-25.842v-12.129c.089-.837.137-1.684.137-2.542v-19.977c2.876 11.408 13.908 19.977 27.009 19.977s24.132-8.569 27.009-19.977v34.648c0 14.213 12.493 25.842 27.762 25.842S502 279.365 502 265.152V141.627c0-19.855-16.095-35.95-35.95-35.95z" fill="#8e5644"/><path d="M107.553 105.677h43.599c7.464-6.239 12.214-15.616 12.214-26.105 0-18.785-15.229-34.014-34.014-34.014S95.339 60.787 95.339 79.572c0 10.489 4.751 19.865 12.214 26.105zm126.648 0H277.8c7.464-6.239 12.214-15.616 12.214-26.105 0-18.785-15.229-34.014-34.014-34.014s-34.014 15.228-34.014 34.014c0 10.489 4.751 19.865 12.215 26.105zm126.647 0h43.599c7.464-6.239 12.214-15.616 12.214-26.105 0-18.785-15.228-34.014-34.013-34.014s-34.014 15.228-34.014 34.014c0 10.489 4.75 19.865 12.214 26.105z" fill="#ff6554"/><path d="M475.153 290.994c-15.27 0-27.762-11.629-27.762-25.842v-34.648c-2.876 11.408-13.908 19.977-27.009 19.977s-24.132-8.569-27.009-19.977v19.977c0 .858-.048 1.705-.137 2.542v12.129c0 14.213-11.578 25.842-26.848 25.842-15.269 0-27.762-11.629-27.762-25.842v-8.633l-.778-23.551c-3.746 10.152-14.094 17.513-26.231 17.513-13.101 0-24.132-8.569-27.009-19.977v19.977c0 14.213-12.493 25.841-27.762 25.841-.131 0-.259-.008-.389-.009-.13.002-.259.009-.389.009-15.269 0-27.762-11.629-27.762-25.841v-19.977c-2.876 11.408-13.908 19.977-27.009 19.977-12.137 0-22.484-7.36-26.231-17.513l-.778 23.551v8.633c0 14.213-12.493 25.842-27.762 25.842s-27.762-11.629-27.762-25.842v-32.184c-3.746 10.153-14.094 17.513-26.23 17.513-13.101 0-24.132-8.569-27.009-19.977v34.648c0 14.213-12.493 25.842-27.762 25.842-1.474 0-2.921-.111-4.335-.32v74.396h445.146v-74.283a29.356 29.356 0 01-3.421.207z" fill="#f1da8d"/><path d="M90.115 365.063L58.37 333.318l31.745-31.744 31.744 31.744zm110.589-.004l-31.745-31.745 31.745-31.745 31.744 31.745zm110.596.006l-31.745-31.745 31.745-31.744 31.744 31.744zm110.596-.004l-31.745-31.744 31.745-31.745 31.744 31.745z" fill="#ff7c6e"/><path d="M404.94 149.569c-.65 0-1.31-.06-1.96-.189-.63-.13-1.26-.32-1.87-.58-.6-.25-1.18-.56-1.72-.92a9.615 9.615 0 01-1.52-1.24 9.87 9.87 0 01-2.17-3.25 9.84 9.84 0 01-.76-3.82 9.83 9.83 0 01.76-3.819 9.87 9.87 0 013.69-4.49c.54-.36 1.12-.67 1.72-.92.61-.25 1.23-.45 1.87-.57 1.29-.26 2.62-.26 3.91 0 .64.12 1.27.32 1.87.57.61.25 1.19.56 1.73.92.55.36 1.06.78 1.52 1.24s.88.97 1.24 1.52c.36.54.67 1.12.92 1.73.25.6.44 1.23.57 1.87s.2 1.3.2 1.949c0 .65-.07 1.311-.2 1.95-.13.641-.32 1.27-.57 1.87a9.87 9.87 0 01-.92 1.73c-.36.55-.78 1.06-1.24 1.52s-.97.88-1.52 1.24c-.54.36-1.13.67-1.73.92-.6.26-1.23.45-1.87.58-.64.13-1.3.189-1.95.189z"/><path d="M466.05 95.677h-42.442a43.967 43.967 0 003.053-16.104c0-24.27-19.745-44.014-44.014-44.014s-44.014 19.744-44.014 44.014c0 5.59 1.061 11.039 3.053 16.104H296.96a43.988 43.988 0 003.053-16.104c0-24.27-19.745-44.014-44.014-44.014s-44.014 19.744-44.014 44.014a43.98 43.98 0 003.053 16.104h-44.726a43.967 43.967 0 003.053-16.104c0-24.27-19.745-44.014-44.014-44.014S85.337 55.303 85.337 79.573a43.98 43.98 0 003.053 16.104H45.95C20.613 95.677 0 116.29 0 141.627v123.525c0 14.948 9.695 27.782 23.427 33.151v168.138c0 5.522 4.477 10 10 10h445.146c5.523 0 10-4.478 10-10V298.616C502.409 293.499 512 280.62 512 265.152V141.627c0-25.337-20.613-45.95-45.95-45.95zM358.634 79.572c0-13.241 10.772-24.014 24.014-24.014 13.241 0 24.014 10.772 24.014 24.014a23.944 23.944 0 01-6.206 16.104h-35.617a23.946 23.946 0 01-6.205-16.104zm-126.648 0c0-13.241 10.773-24.014 24.014-24.014s24.014 10.772 24.014 24.014a23.942 23.942 0 01-6.206 16.104h-35.616a23.944 23.944 0 01-6.206-16.104zm-126.647 0c0-13.241 10.772-24.014 24.014-24.014 13.241 0 24.014 10.772 24.014 24.014a23.942 23.942 0 01-6.206 16.104h-35.616a23.944 23.944 0 01-6.206-16.104zM43.877 300.516c.459-.071.916-.146 1.37-.233.217-.042.431-.091.646-.136.369-.077.737-.155 1.102-.242.238-.057.473-.12.709-.182.337-.088.674-.176 1.008-.272.244-.07.486-.146.729-.221a38.184 38.184 0 001.685-.563 39.152 39.152 0 002.547-1.022c.231-.103.463-.204.692-.311.303-.141.601-.289.899-.438.219-.109.439-.216.656-.329.311-.163.617-.334.923-.504.195-.109.393-.214.586-.326.363-.211.72-.432 1.075-.655.129-.081.262-.157.389-.239.475-.306.942-.621 1.401-.947.153-.108.3-.223.451-.333.308-.225.615-.45.916-.684.182-.141.358-.289.537-.433.262-.211.524-.423.779-.641.186-.158.367-.321.549-.483.241-.213.48-.428.715-.647.182-.17.361-.344.54-.518a38.412 38.412 0 001.191-1.212 37.865 37.865 0 001.128-1.258c.206-.241.407-.486.607-.733.154-.19.308-.379.458-.572.201-.259.395-.522.589-.785.138-.188.278-.374.413-.564.203-.288.397-.582.592-.875.115-.173.233-.343.345-.518.247-.388.484-.783.716-1.181.05-.086.104-.168.153-.254.277-.483.541-.974.794-1.47.082-.161.157-.326.237-.488.168-.341.334-.683.491-1.029.091-.201.174-.405.261-.608.134-.313.268-.627.393-.945.087-.221.167-.444.25-.666.114-.307.225-.614.33-.925.078-.231.151-.463.225-.696a32.296 32.296 0 00.704-2.594c.055-.239.109-.478.159-.719.067-.326.127-.654.185-.983.042-.237.085-.473.121-.711.053-.344.097-.691.14-1.039.028-.227.059-.452.083-.68.04-.386.067-.775.094-1.164.013-.192.032-.382.042-.575.03-.584.047-1.171.047-1.762v-8.494c5.138 2.459 10.927 3.822 17.009 3.822 5.74 0 11.262-1.245 16.23-3.506v8.178c0 19.763 16.94 35.841 37.763 35.841 20.822 0 37.762-16.078 37.762-35.841v-8.469l.002-.072a39.157 39.157 0 0017.006 3.869c6.286 0 12.26-1.457 17.524-4.073 2.984 16.953 18.55 29.915 37.247 29.915.137 0 .273-.002.379-.006.133.004.266.006.399.006 18.696 0 34.263-12.962 37.247-29.915 5.265 2.616 11.238 4.073 17.524 4.073 6.04 0 11.84-1.379 17.006-3.869l.003 8.541c0 19.763 16.94 35.841 37.763 35.841 20.662 0 36.848-15.743 36.848-35.841v-8.56c5.171 2.5 11.01 3.888 17.145 3.888 6.082 0 11.871-1.363 17.009-3.822v8.494c0 .587.017 1.17.047 1.75.01.191.028.379.041.569a34 34 0 00.093 1.16c.023.224.053.446.08.669.042.348.087.694.139 1.039.036.234.077.466.117.698a35.845 35.845 0 00.338 1.689 38.13 38.13 0 00.418 1.65c.091.325.189.646.29.967.068.216.134.434.206.648.113.339.236.673.36 1.007.071.191.137.384.211.573.161.413.334.821.511 1.227.046.105.087.213.134.318.226.506.465 1.005.715 1.499.08.157.166.31.248.466.176.336.354.672.541 1.002.109.193.225.382.338.573.17.288.341.574.52.857.126.2.257.397.388.595a35.885 35.885 0 00.962 1.388 37.494 37.494 0 001.02 1.335c.199.248.404.493.61.736.155.183.31.367.469.548.219.249.444.492.67.734.154.166.306.334.464.497.262.271.532.536.803.799.13.126.255.257.387.381.401.379.81.749 1.227 1.111.13.112.265.218.396.329.298.25.596.5.902.742.18.142.365.278.548.417.266.202.531.403.802.599.2.144.405.284.608.424.263.181.526.361.794.536a39.095 39.095 0 002.113 1.284c.279.157.56.31.844.461.222.118.444.237.669.351.296.15.595.293.895.436.218.104.435.21.656.31.334.151.673.293 1.012.435.193.081.383.166.577.243.53.212 1.065.413 1.606.602.111.038.224.071.335.109.44.149.882.294 1.329.428.211.063.426.118.638.178.352.099.704.197 1.061.287.237.06.477.113.717.168.338.078.676.154 1.018.223.25.051.501.097.752.143.189.034.375.075.564.107v54.622h-22.54l14.677-14.677c3.905-3.905 3.905-10.237 0-14.143l-31.745-31.745a10.001 10.001 0 00-14.142 0l-31.745 31.745c-3.905 3.905-3.905 10.237 0 14.143l14.677 14.677h-62.316l14.677-14.677c3.905-3.905 3.905-10.237 0-14.143l-31.745-31.745a10.003 10.003 0 00-14.142 0l-31.745 31.745c-3.905 3.905-3.905 10.237 0 14.143l14.677 14.677H224.85l14.677-14.677c3.905-3.905 3.905-10.237 0-14.143l-31.745-31.745a10.001 10.001 0 00-14.142 0l-31.745 31.745c-3.905 3.905-3.905 10.237 0 14.143l14.677 14.677h-62.316l14.677-14.677c3.905-3.905 3.905-10.237 0-14.143l-31.745-31.745a10.003 10.003 0 00-14.142 0L51.301 326.25c-3.905 3.905-3.905 10.237 0 14.143l14.676 14.677h-22.54v-54.48l.043-.007c.126-.019.261-.045.397-.067zm360.413 32.806l17.603-17.603 17.603 17.603-17.603 17.603-17.603-17.603zm-110.595 0l17.603-17.603 17.603 17.603-17.603 17.603-17.603-17.603zm-110.595 0l17.603-17.603 17.603 17.603-17.603 17.603-17.603-17.603zm-110.596 0l17.603-17.603 17.603 17.603-17.603 17.603-17.603-17.603zM43.427 456.441V375.07h425.146v47.504H185.575c-5.523 0-10 4.478-10 10 0 5.523 4.477 10 10 10h282.998v13.867H43.427zM492 265.152c0 8.252-6.39 14.834-14.871 15.728a23.07 23.07 0 01-.493.044c-.489.039-.982.068-1.484.068-9.794 0-17.762-7.107-17.762-15.841v-34.648a10 10 0 00-8.768-9.924 10.018 10.018 0 00-1.129-.07c-.037 0-.074-.007-.111-.007-.105 0-.208.01-.313.013-.145.004-.289.007-.433.018-.14.011-.278.029-.417.045-.153.018-.306.033-.457.058-.12.02-.237.047-.355.071-.166.033-.333.064-.496.106-.048.012-.095.029-.143.043-.46.125-.909.281-1.343.468l-.07.028c-.176.078-.346.166-.517.254-.081.042-.164.08-.245.123-.154.084-.302.177-.451.269-.092.057-.186.112-.277.172-.138.092-.272.19-.405.288-.095.07-.191.14-.284.213a9.767 9.767 0 00-.366.308 9.428 9.428 0 00-1.426 1.538c-.087.117-.174.233-.256.354-.083.121-.16.246-.238.372-.074.119-.148.237-.217.359-.077.138-.147.28-.219.422-.059.118-.121.234-.176.355-.073.161-.136.328-.201.494-.042.109-.09.216-.129.327-.084.24-.156.487-.222.736-.011.04-.026.079-.036.119-1.134 4.499-4.403 8.226-8.702 10.39a19.177 19.177 0 01-8.61 2.032c-8.217 0-15.497-5.224-17.313-12.422a9.998 9.998 0 00-10.928-7.479 10 10 0 00-8.768 9.924v19.977c0 .484-.027.984-.08 1.484a9.84 9.84 0 00-.056 1.058v12.13c0 8.883-7.4 15.841-16.848 15.841-9.794 0-17.762-7.107-17.762-15.841v-8.633c0-.11-.002-.22-.005-.33l-.778-23.551a10 10 0 00-19.376-3.132c-2.422 6.563-9.193 10.974-16.849 10.974-2.054 0-4.05-.326-5.916-.929a18.887 18.887 0 01-3.951-1.799c-3.673-2.221-6.424-5.645-7.444-9.695a9.982 9.982 0 00-4.801-6.275 10 10 0 00-14.896 8.721v19.977c0 .544-.031 1.082-.091 1.613-.664 5.834-4.894 10.743-10.71 12.961l-.033.011a19.249 19.249 0 01-3.283.922c-.227.042-.462.063-.692.097-.353.053-.703.115-1.063.149-.158.015-.32.012-.479.024-.44.031-.879.064-1.327.065a14.59 14.59 0 00-.473-.009c-.15.002-.297.004-.473.009-.236-.001-.466-.025-.7-.034-.37-.015-.743-.02-1.107-.055-.059-.006-.115-.018-.174-.024-7.64-.793-13.818-5.921-15.338-12.549-.026-.113-.036-.231-.059-.344a14.153 14.153 0 01-.301-2.835v-19.977a10 10 0 00-8.768-9.924 9.992 9.992 0 00-10.928 7.479c-1.815 7.198-9.096 12.422-17.312 12.422-7.656 0-14.427-4.41-16.849-10.975a10 10 0 00-19.376 3.132l-.778 23.551c-.003.11-.005.22-.005.33v8.634c0 8.734-7.968 15.841-17.763 15.841-9.794 0-17.762-7.107-17.762-15.841v-32.185a10.002 10.002 0 00-19.383-3.462c-1.968 5.334-6.807 9.245-12.658 10.524a19.63 19.63 0 01-4.19.45c-8.217 0-15.498-5.224-17.313-12.422a9.999 9.999 0 00-10.929-7.478 10 10 0 00-8.768 9.924v34.648c0 8.734-7.968 15.841-17.762 15.841-.546 0-1.084-.03-1.618-.073-.231-.019-.46-.049-.69-.076C26.749 279.829 20 273.188 20 265.152V149.57h347.901c5.523 0 10-4.477 10-10 0-5.522-4.477-10-10-10H22.982c4.349-8.252 13.01-13.893 22.969-13.893h420.1c14.309 0 25.95 11.642 25.95 25.95v123.525H492z"/></symbol><symbol viewBox="0 0 512 512" id="cupcake-ico" xmlns="http://www.w3.org/2000/svg"><g data-name="filled outline"><path d="M128 344a72 72 0 0172-72h112a72 72 0 0172 72z" fill="#ea9d2d"/><path d="M392 272a39.789 39.789 0 01-9.09 25.37 37.943 37.943 0 01-2.63 2.91 39.848 39.848 0 01-25.58 11.63q-1.335.09-2.7.09H160a39.989 39.989 0 01-30.93-65.36c.84-1.02 1.72-1.99 2.65-2.92a39.848 39.848 0 0125.58-11.63q1.335-.09 2.7-.09h192a40 40 0 0140 40z" fill="#ffb1b5"/><path d="M264 112a8 8 0 01-8-8 85.59 85.59 0 0158.6-81.3l18.87-6.29a8 8 0 015.06 15.18l-18.874 6.291A69.607 69.607 0 00272 104a8 8 0 01-8 8z" fill="#b94137"/><path d="M282.81 312h-25.62l-99.89-79.91q1.335-.09 2.7-.09h22.81zm-72 0h-25.62l-63.67-50.94a39.861 39.861 0 017.55-14.42q.285.2.57.42zm143.89-.09q-1.335.09-2.7.09h-22.81L237 238.25a7.958 7.958 0 01-3-6.25h20.81zm35.78-28.96a39.75 39.75 0 01-7.57 14.42L309 238.25a7.958 7.958 0 01-3-6.25h20.81z" fill="#ffc4c2"/><path d="M360 233.926A97.926 97.926 0 00262.074 136h-20.148A97.926 97.926 0 00144 233.926h55.252a27.189 27.189 0 0126.378 20.6l.4 1.581c3.237 12.95 14.23 22.763 27.538 23.8a30.742 30.742 0 0032.257-23.188l.549-2.2a27.189 27.189 0 0126.378-20.595z" fill="#8f563b"/><circle cx="264" cy="144" fill="#dc4d41" r="48"/><path d="M256 144h-16a24.027 24.027 0 0124-24v16a8.009 8.009 0 00-8 8z" fill="#f55648"/><path d="M200 192a7.976 7.976 0 01-5.657-2.343l-8-8a8 8 0 0111.314-11.314l8 8A8 8 0 01200 192z" fill="#6cbae5"/><path d="M256 248a7.976 7.976 0 01-5.657-2.343l-8-8a8 8 0 0111.314-11.314l8 8A8 8 0 01256 248z" fill="#fbb540"/><path d="M328 216a7.976 7.976 0 01-5.657-2.343l-8-8a8 8 0 0111.314-11.314l8 8A8 8 0 01328 216z" fill="#ffb1b5"/><path d="M279.993 225.207a8 8 0 01-6.5-12.651l6.576-9.206a8 8 0 0113.02 9.3l-6.576 9.206a7.992 7.992 0 01-6.52 3.351z" fill="#fd9226"/><path d="M217.417 217.207a8 8 0 01-6.5-12.651l6.576-9.206a8 8 0 0113.02 9.3l-6.576 9.206a7.992 7.992 0 01-6.52 3.351z" fill="#f55648"/><path d="M344 480H168l-48-136 7.029-2.343A43.189 43.189 0 01160 344l10.343-3.448a43.187 43.187 0 0127.314 0L208 344l10.343-3.448a43.187 43.187 0 0127.314 0L256 344l10.343-3.448a43.187 43.187 0 0127.314 0L304 344l10.343-3.448a43.187 43.187 0 0127.314 0L352 344a43.189 43.189 0 0132.971-2.343L392 344z" fill="#fbd699"/><path d="M160 344l40 136" fill="#4799cf"/><path d="M352 344l-10.343-3.448a43.187 43.187 0 00-27.314 0L304 344l-24 136h32zm-96 0v136h-24l-24-136 10.343-3.448a43.187 43.187 0 0127.314 0zm-56 136h-32l-48-136 7.029-2.343A43.189 43.189 0 01160 344z" fill="#ffb1b5"/><path d="M394.529 336.41l-3-1a79.978 79.978 0 00-8-27.245 48.829 48.829 0 002.406-2.23 48 48 0 00-18.2-79.292 105.724 105.724 0 00-47.767-81.416c.009-.41.031-.817.031-1.229a56.079 56.079 0 00-46.324-55.146A69.809 69.809 0 01319.66 37.88l18.87-6.29a8 8 0 00-5.06-15.18L314.6 22.7a85.832 85.832 0 00-57.154 65.7 56.118 56.118 0 00-48.394 44.822 106.121 106.121 0 00-72.978 97.2 48.248 48.248 0 00-10.011 7.644 47.967 47.967 0 002.4 70.106 80.015 80.015 0 00-8 27.243l-2.995 1a8 8 0 00-5.015 10.252l48 136A8 8 0 00168 488h176a8 8 0 007.544-5.338l48-136a8 8 0 00-5.015-10.252zm-83.479 13.673l5.823-1.94a35.4 35.4 0 0122.254 0l3.02 1.006L306.014 472h-16.478zm40.487-14.67l-7.35-2.45a51.511 51.511 0 00-32.373 0l-7.814 2.6-7.813-2.6a51.511 51.511 0 00-32.373 0l-7.814 2.6-7.813-2.6a51.511 51.511 0 00-32.373 0l-7.814 2.6-7.813-2.6a51.511 51.511 0 00-32.373 0l-7.351 2.45a50.72 50.72 0 00-23.242-3.863 63.867 63.867 0 014.951-14.976A47.969 47.969 0 00160 320h192a47.953 47.953 0 0017.828-3.427 63.936 63.936 0 014.951 14.977 50.72 50.72 0 00-23.242 3.863zm-150.587 14.67L222.464 472h-16.478l-36.133-122.851 3.02-1.006a35.4 35.4 0 0122.254 0zm-65.6-98.452a32.191 32.191 0 012.029-2.254 32.156 32.156 0 0111.7-7.447h20.524L247.194 304h-46.387zm177.4-9.7h.855l63.047 50.439a32.429 32.429 0 01-2.028 2.254 32.436 32.436 0 01-5.723 4.552A31.848 31.848 0 01352 304h-7.194l-52.3-41.838c.407-1.151.78-2.314 1.078-3.5l.549-2.2a19.169 19.169 0 0118.617-14.532zm-28.677 33.977L319.193 304h-46.387l-20.195-16.156c.11.01.218.024.328.032q1.5.117 2.985.116a39.03 39.03 0 0028.149-12.085zm-88.854-33.978h4.031a19.175 19.175 0 0118.625 14.552l.393 1.553q.386 1.548.885 3.042zm164.781 0a7.951 7.951 0 002.117-.293 32.009 32.009 0 0121.426 35.755l-44.325-35.462zM264 104a40 40 0 11-40 40 40.045 40.045 0 0140-40zm-55.616 46.46a55.987 55.987 0 00108.44 12.1 89.031 89.031 0 0134.826 63.37h-38.9a35.146 35.146 0 00-34.141 26.648l-.549 2.195a22.745 22.745 0 01-23.882 17.151 23.108 23.108 0 01-20.393-17.787l-.4-1.561a35.145 35.145 0 00-34.14-26.646h-46.889a90.166 90.166 0 0156.028-75.47zm-79.927 116.148L175.194 304H160a31.994 31.994 0 01-32-32 32.4 32.4 0 01.457-5.392zm1.8 82.414a34.891 34.891 0 0123.112.781L189.308 472H173.66zM238.712 472l-21.634-122.593 3.795-1.264a35.4 35.4 0 0122.254 0l4.873 1.624V472zM264 349.767l4.873-1.624a35.4 35.4 0 0122.254 0l3.8 1.264L273.288 472H264zM338.34 472h-15.648l35.94-122.2a34.909 34.909 0 0123.112-.782z"/><path d="M264 136v-16a24.027 24.027 0 00-24 24h16a8.009 8.009 0 018-8zm-69.657 53.657a8 8 0 0011.314-11.314l-8-8a8 8 0 00-11.314 11.314zm56 56a8 8 0 1011.314-11.314l-8-8a8 8 0 00-11.314 11.314zm72-32a8 8 0 1011.314-11.314l-8-8a8 8 0 00-11.314 11.314zm-46.993 10.059a8 8 0 0011.16-1.86l6.576-9.206a8 8 0 00-13.02-9.3l-6.576 9.206a8 8 0 001.86 11.16zm-62.576-8a8 8 0 0011.16-1.86l6.576-9.206a8 8 0 00-13.02-9.3l-6.576 9.206a8 8 0 001.86 11.16z"/></g></symbol><symbol viewBox="0 0 512 512" id="doughnut-ico" xmlns="http://www.w3.org/2000/svg"><path d="M255.999 18.209c-134.286 0-243.146 108.86-243.146 243.146s108.86 243.146 243.146 243.146 243.146-108.86 243.146-243.146S390.286 18.209 255.999 18.209zm0 327.892c-46.803 0-84.746-37.942-84.746-84.746s37.942-84.746 84.746-84.746 84.746 37.942 84.746 84.746-37.941 84.746-84.746 84.746z" fill="#fdca74"/><path d="M42.853 261.356C42.853 132.108 143.702 26.433 271 18.683a246.809 246.809 0 00-15-.474c-134.286 0-243.146 108.86-243.146 243.147S121.713 504.504 256 504.504c5.039 0 10.037-.172 15-.474-127.298-7.752-228.147-113.427-228.147-242.674z" fill="#e6a537"/><path d="M255.557 7.498c67.974-.116 131.897 26.301 179.949 74.353 10.45 10.45 23.305 28.213 33.439 43.185 8.027 11.86-5.464 26.641-17.891 19.523l-.316-.183a55.26 55.26 0 00-55.64 0 55.26 55.26 0 01-55.64 0 55.26 55.26 0 00-55.64 0 55.224 55.224 0 01-27.82 7.514 55.216 55.216 0 01-27.82-7.514 55.26 55.26 0 00-55.64 0 55.26 55.26 0 01-55.64 0 55.26 55.26 0 00-55.64 0l-.316.183c-12.427 7.117-25.918-7.664-17.891-19.523 10.137-14.973 22.992-32.735 33.442-43.185C124.547 33.799 188.47 7.382 256.444 7.498h-.887z" fill="#fa9eb0"/><path d="M255.557 7.498c.148 0 .295.004.444.004.148 0 .295-.005.444-.004h-.888zM61.263 144.377a55.369 55.369 0 016.414-3.197c11.308-16.408 24.697-34.476 35.802-45.58 49.352-49.352 112.837-79.427 181.326-86.479A258.387 258.387 0 00256 7.503c-67.808 0-131.557 26.401-179.506 74.348-10.45 10.45-23.305 28.213-33.439 43.186-8.027 11.86 5.464 26.641 17.891 19.523l.317-.183z" fill="#ed6883"/><path d="M180.897 93.107V78.158c0-4.143-3.358-7.5-7.5-7.5s-7.5 3.357-7.5 7.5v14.949c0 4.143 3.358 7.5 7.5 7.5s7.5-3.357 7.5-7.5zm165.206 0V78.158a7.5 7.5 0 00-7.5-7.5 7.5 7.5 0 00-7.5 7.5v14.949a7.5 7.5 0 007.5 7.5 7.5 7.5 0 007.5-7.5zm-90.104 15.48c10.11 0 19.599-4.222 26.034-11.584a7.5 7.5 0 10-11.294-9.872c-3.586 4.103-8.959 6.456-14.74 6.456-5.782 0-11.154-2.353-14.741-6.456a7.5 7.5 0 00-11.294 9.872c6.436 7.362 15.925 11.584 26.035 11.584zM70.163 217.932c1.645.011 3.305-.501 4.681-1.601a7.5 7.5 0 001.171-10.542l-12.853-16.067a7.5 7.5 0 10-11.713 9.371l12.853 16.067c1.423 1.778 3.627 2.757 5.861 2.772zm283.409 187.301c2.555 3.194 7.346 3.729 10.542 1.171a7.5 7.5 0 001.171-10.542l-12.853-16.067a7.5 7.5 0 00-11.713 9.371l12.853 16.067zm100.086-138.659c2.479 3.099 7.284 3.776 10.542 1.172a7.5 7.5 0 001.171-10.542l-12.853-16.067a7.5 7.5 0 00-11.713 9.371c0-.002 12.852 16.065 12.853 16.066zm-26.733 94.557l-6.227 19.611a7.5 7.5 0 004.88 9.418c3.897 1.234 8.176-.973 9.417-4.879l6.227-19.611a7.501 7.501 0 00-14.297-4.539zM104.758 279.17l14.51-14.589a7.5 7.5 0 00-10.635-10.577l-14.51 14.588a7.5 7.5 0 00.029 10.606c2.906 2.891 7.716 2.879 10.606-.028zM295.28 434.758l-14.509 14.589a7.5 7.5 0 00.029 10.606c2.808 2.793 7.662 2.932 10.607-.029l14.509-14.588a7.5 7.5 0 00-10.636-10.578zm98.101-116.996a7.114 7.114 0 003.352-.738l18.396-9.217a7.5 7.5 0 10-6.719-13.41l-18.396 9.217a7.498 7.498 0 00-3.346 10.063c1.228 2.452 3.941 4.025 6.713 4.085zm-.708-98.035l10.545-17.668a7.5 7.5 0 00-12.88-7.688l-10.545 17.668a7.5 7.5 0 002.597 10.284c3.518 2.101 8.182.925 10.283-2.596zM66.799 334.856l19.138 7.558c3.806 1.502 8.225-.41 9.73-4.221a7.5 7.5 0 00-4.22-9.731l-19.137-7.558a7.5 7.5 0 10-5.511 13.952zm134.173 69.619a7.499 7.499 0 00.333 10.601l14.999 14.086c2.987 2.804 7.794 2.658 10.601-.333a7.499 7.499 0 00-.333-10.601l-14.998-14.085a7.5 7.5 0 00-10.602.332zm-65.699-38.614a7.5 7.5 0 00.11 14.999h.115l20.573-.309a7.5 7.5 0 00-.225-14.999l-20.573.309zm212.973-104.507c0-50.865-41.381-92.246-92.246-92.246s-92.246 41.381-92.246 92.246S205.135 353.6 256 353.6s92.246-41.382 92.246-92.246zm-92.247 77.245c-42.593 0-77.246-34.652-77.246-77.246s34.652-77.246 77.246-77.246 77.246 34.652 77.246 77.246-34.651 77.246-77.246 77.246z"/><path d="M78.766 438.587C126.107 485.929 189.05 512 255.999 512c53.916 0 105.295-16.87 148.584-48.787a7.5 7.5 0 10-8.901-12.073C354.99 481.142 306.688 497 255.999 497c-62.944 0-122.119-24.511-166.628-69.02S20.353 324.297 20.353 261.354c0-37.924 9.164-75.356 26.57-108.776 4.028 1.551 8.439 1.773 12.702.596 1.915-.529 3.685-1.35 5.413-2.318 14.831-8.642 33.256-8.642 48.087 0 19.489 11.355 43.702 11.355 63.191 0 14.831-8.641 33.257-8.641 48.087 0 19.329 11.262 43.866 11.263 63.192 0 14.83-8.642 33.257-8.642 48.087 0 19.488 11.355 43.702 11.355 63.191 0 14.831-8.641 33.257-8.641 48.107.012 5.49 3.199 12.106 4.015 18.094 1.71 17.406 33.421 26.57 70.855 26.57 108.776 0 32.929-6.659 64.783-19.792 94.676-12.688 28.879-30.782 54.576-53.782 76.376a7.5 7.5 0 1010.319 10.887c24.457-23.181 43.701-50.51 57.197-81.229 13.974-31.807 21.059-65.69 21.059-100.709 0-41.646-10.4-82.743-30.109-119.166 3.472-6.727 3.093-14.747-1.382-21.357-13.814-20.408-25.37-35.308-34.347-44.284C391.448 27.184 325.814 0 256 0c-46.914 0-92.819 12.488-132.752 36.113a7.5 7.5 0 007.638 12.91C168.509 26.765 211.772 15 256 15c65.808 0 127.673 25.624 174.202 72.152 8.188 8.188 19.438 22.74 32.532 42.085 2.424 3.582.351 6.535-.521 7.524-.011.012-.024.022-.035.035-2.036 2.26-5.073 2.676-7.665 1.098-19.488-11.355-43.702-11.355-63.191 0-14.83 8.641-33.257 8.641-48.087 0-19.489-11.355-43.702-11.355-63.191 0-14.72 8.577-33.37 8.575-48.088 0-19.489-11.355-43.702-11.355-63.192 0-17.477 10.183-34.805 6.421-51.795-1.996-18.79-9.315-41.212-8.649-59.478 1.992-5.541 3.229-11.854-3.293-8.227-8.653C62.36 109.893 73.609 95.34 81.798 87.151a251.363 251.363 0 0124.47-21.466 7.5 7.5 0 00-9.141-11.893 266.31 266.31 0 00-25.936 22.753c-8.978 8.978-20.534 23.877-34.347 44.285-4.474 6.61-4.854 14.629-1.382 21.356-19.709 36.423-30.109 77.519-30.109 119.168 0 66.949 26.072 129.893 73.413 177.233z"/></symbol><symbol viewBox="0 0 480 480.015" id="muffin-ico" xmlns="http://www.w3.org/2000/svg"><path d="M399.094 247.047l-31.07 224.969h-256L80.436 243.367zm0 0" fill="#e9589d"/><path d="M200.023 240.016l32 232h-64l-32-232zm128 0l32 232h-64l-32-232zm0 0" fill="#ed8cba"/><path d="M440.023 200.016c.008 31.078-17.984 59.351-46.144 72.504-28.156 13.156-61.387 8.808-85.215-11.145-42.387 24.852-94.894 24.852-137.281 0-25.758 21.578-62.254 24.758-91.36 7.965-29.101-16.797-44.609-49.988-38.812-83.086 5.793-33.102 31.652-59.05 64.73-64.957C117.047 55.907 173.7 8.067 240.023 8.067c66.325 0 122.973 47.84 134.079 113.23 38.136 6.816 65.906 39.98 65.921 78.719zm0 0" fill="#ecaf4a"/><path d="M226.95 157.578l29.077 13.363-13.367 29.079-29.074-13.368zm8.003-109.566l29.078 13.363-13.367 29.078-29.074-13.367zM92.848 198.816l28.37-14.804 14.805 28.367-28.367 14.809zm272.531-17.242l29.078 13.363-13.363 29.079-29.078-13.368zm0 0" fill="#704a22"/><path d="M.023 464.016h16v16h-16zM403.078 276.68c31.508-17.66 49.012-52.79 44.133-88.578-4.879-35.79-31.145-64.954-66.227-73.536C367.047 47.82 308.207 0 240.024 0 171.835 0 113 47.82 99.061 114.566c-35.085 8.582-61.351 37.746-66.23 73.536-4.875 35.789 12.629 70.918 44.133 88.578l25.875 187.336H32.023v16h448v-16H377.207zM48.023 200.016c-.054-34.887 24.965-64.766 59.32-70.84h.118a72.547 72.547 0 0134.16 2.168l4.8-15.274a90.198 90.198 0 00-30.35-3.855c14.57-56.547 65.558-96.063 123.952-96.063 58.391 0 109.383 39.516 123.95 96.063-1.317-.078-2.606-.2-3.95-.2a88.359 88.359 0 00-70.402 35.2l12.8 9.601a72.3 72.3 0 0157.602-28.8c4.211-.02 8.418.359 12.559 1.136h.121c29.766 5.325 53.035 28.684 58.242 58.473 5.211 29.79-8.75 59.656-34.945 74.766-26.191 15.113-59.04 12.246-82.219-7.176a7.993 7.993 0 00-9.191-.742c-39.871 23.37-89.262 23.37-129.137 0a7.994 7.994 0 00-9.191.742c-21.442 17.965-51.348 21.887-76.696 10.05-25.347-11.831-41.546-37.277-41.543-65.25zm254.977 264l-4.578-33.098-15.848 2.195 4.274 30.903H239l-14.496-105.098-15.856 2.195 14.192 102.903H175l-21.121-153.098-15.856 2.195 20.817 150.903H119L94.152 284.12a88.001 88.001 0 0077.942-13.152 137.203 137.203 0 0025.601 10.543l6.582 47.601 15.856-2.195-5.735-41.438a149.246 149.246 0 0047.946.504l15.855 115.118 15.848-2.176-16-116.207a137.746 137.746 0 0029.926-11.75 88.012 88.012 0 0077.945 13.152l-24.871 179.895zm0 0"/><path d="M401.371 414.922l17.664-128.004 15.848 2.187-17.664 128.004zm-71.344-101.805l15.852-2.187 15.457 112-15.852 2.187zM210.238 193.918l29.082 13.371c4.016 1.84 8.766.078 10.606-3.937l13.367-29.07c1.844-4.016.086-8.766-3.926-10.61l-29.082-13.367a7.998 7.998 0 00-10.605 3.925l-13.367 29.083c-1.848 4.011-.086 8.761 3.925 10.605zm20.633-25.734l14.543 6.68-6.687 14.542-14.536-6.687zM218.238 84.36l29.082 13.367a8.078 8.078 0 003.344.73 8.003 8.003 0 007.262-4.656l13.367-29.082a7.996 7.996 0 00-3.934-10.606l-29.074-13.37a7.996 7.996 0 00-10.605 3.929L214.312 73.75a7.998 7.998 0 003.926 10.61zm20.633-25.735l14.543 6.688-6.687 14.535-14.536-6.68zM143.117 208.68l-14.804-28.368c-2.047-3.917-6.88-5.437-10.793-3.394l-28.368 14.809c-3.922 2.043-5.445 6.875-3.402 10.793l14.809 28.375a7.987 7.987 0 004.695 3.933 8.017 8.017 0 006.105-.539l28.368-14.816a8 8 0 003.39-10.793zm-32.07 7.718l-7.41-14.191 14.195-7.398 7.398 14.183zm237.641 1.52l29.07 13.371c4.015 1.844 8.762.082 10.61-3.93l13.366-29.078a8 8 0 00-3.93-10.61l-29.077-13.366a8.002 8.002 0 00-10.61 3.925l-13.367 29.083a7.997 7.997 0 003.938 10.605zm20.632-25.734l14.535 6.68-6.68 14.542-14.546-6.687zm-193.297 23.832h16v16h-16zm0-112h16v16h-16zm112-8h16v16h-16zm16 104h16v16h-16zm-258.289 72.8c-39.64-40.441-39.64-105.16 0-145.601l-11.422-11.2c-45.738 46.66-45.738 121.34 0 168zm0 0"/></symbol></svg>