<?xml version="1.0" encoding="utf-8"?><svg xmlns="http://www.w3.org/2000/svg" xmlns:xlink="http://www.w3.org/1999/xlink"><symbol viewBox="0 -3 512 512" id="burger-ico" xmlns="http://www.w3.org/2000/svg"><path d="M294.672 63.957c32.84 5.086 63.3 16.64 88.09 33.41 23.972 16.219 41.597 36.54 50.972 58.77a9.997 9.997 0 009.22 6.12 9.973 9.973 0 003.882-.788 10.003 10.003 0 005.328-13.102c-10.883-25.808-31.008-49.172-58.195-67.566-27.219-18.414-60.496-31.074-96.239-36.61-5.449-.843-10.566 2.895-11.41 8.356-.847 5.453 2.89 10.562 8.352 11.41zm-194.32 75.016c1.582 3.797 5.609 6.355 9.718 6.16 4.059-.196 7.785-3.067 9.02-6.938 1.25-3.918-.149-8.492-3.43-10.988-3.394-2.578-8.383-2.672-11.867-.21-3.707 2.616-5.156 7.792-3.441 11.976zm48.179-37.239c1.598 3.84 5.696 6.426 9.856 6.16 4.011-.261 7.66-3.12 8.89-6.945 1.254-3.89-.152-8.422-3.379-10.93-3.41-2.644-8.484-2.753-11.984-.218-3.64 2.636-5.117 7.773-3.383 11.933zm51.759 37.239c1.581 3.797 5.612 6.355 9.722 6.16 4.058-.196 7.793-3.067 9.027-6.938 1.25-3.922-.156-8.496-3.441-10.988-3.395-2.578-8.38-2.672-11.868-.21-3.703 2.616-5.156 7.792-3.44 11.976zm0 0"/><path d="M512 316.938c0-22.02-14.148-40.786-33.824-47.72v-25.023a42.946 42.946 0 009.074-4.629c11.387-7.652 17.918-19.73 17.918-33.148 0-8.39-2.594-16.332-7.414-23.012a32.269 32.269 0 001.988-18.511c-8.562-45.797-37.969-87.72-82.8-118.051C372.288 16.637 315.131 0 256 0S139.71 16.637 95.059 46.844c-44.832 30.328-74.239 72.254-82.801 118.05a32.247 32.247 0 004.176 22.774c-3.114 5.71-4.735 12.07-4.735 18.75 0 13.418 6.531 25.504 17.922 33.152a43.88 43.88 0 004.203 2.477v27.172C14.148 276.152 0 294.918 0 316.938v2.03c0 14.587 6.215 27.743 16.125 36.985a39.225 39.225 0 00-4.426 18.121c0 10.012 3.64 19.274 10.215 26.512v36.086c0 38.55 31.363 69.918 69.918 69.918h328.336c38.555 0 69.918-31.367 69.918-69.918v-31.55c9.621-7.669 15.082-18.798 15.082-31.052 0-7.683-2.164-14.957-6.207-21.246C507.059 343.855 512 331.98 512 318.97zm-20 0v2.03c0 10.325-5.148 19.466-13.008 25.009a30.65 30.65 0 01-17.578 5.578H306.348l63.77-63.203h91.292c16.867 0 30.59 13.722 30.59 30.586zm-340.434-30.586l1.586 1.59 10.258 10.253-21.473 21.477-33.32-33.32zm94.418 66.132l-61.351-61.347c0-.004-.004-.008-.008-.012l-4.773-4.773h161.812l-66.832 66.093c-.004.004-.008.008-.012.016l-.027.023-14.406 14.407zM31.914 168.566c7.574-40.5 33.98-77.847 74.352-105.16C147.645 35.414 200.82 20 256 20s108.355 15.414 149.734 43.406c40.371 27.313 66.774 64.66 74.352 105.16 1.402 7.512-4.598 14.688-12.223 14.688H44.137c-7.637 0-13.625-7.176-12.223-14.688zm.523 32.512a32.564 32.564 0 0011.7 2.176h423.726c5.52 0 11.07-1.43 15.883-4.137a19.387 19.387 0 011.422 7.297c0 6.645-3.305 12.676-9.07 16.547-5.895 3.96-13.403 4.91-20.145 2.777-3.332-1.054-6.476-2.414-9.914-3.148-3.719-.797-7.523-1.149-11.324-1.149-17.863 0-27.45 6.766-35.149 12.2-6.757 4.773-12.093 8.543-23.609 8.543s-16.852-3.77-23.61-8.54c-7.699-5.44-17.28-12.203-35.148-12.203-17.863 0-27.445 6.766-35.144 12.204-6.758 4.77-12.094 8.539-23.61 8.539-11.515 0-16.855-3.77-23.613-8.543-7.7-5.438-17.281-12.2-35.144-12.2s-27.45 6.766-35.149 12.2c-6.758 4.773-12.098 8.543-23.61 8.543-11.519 0-16.855-3.77-23.616-8.543-7.7-5.438-17.282-12.2-35.149-12.2-7.066 0-13.437 1.2-19.48 3.664-7.137 2.915-15.489 2.176-21.91-2.14-5.766-3.871-9.07-9.903-9.07-16.547-.005-1.84.245-3.629.734-5.34zm23.375 45.738c5.247-.254 10.168-1.578 15.051-3.437 4.871-1.86 10.184-2.227 15.344-1.766 8.828.785 13.656 4.196 19.57 8.367 7.7 5.438 17.282 12.204 35.149 12.204 17.863 0 27.445-6.766 35.144-12.204 6.758-4.77 12.098-8.539 23.614-8.539s16.851 3.77 23.609 8.54c7.7 5.437 17.285 12.203 35.148 12.203 17.864 0 27.446-6.766 35.145-12.204 6.758-4.77 12.098-8.539 23.61-8.539 11.515 0 16.855 3.77 23.613 8.54 7.699 5.437 17.28 12.203 35.144 12.203s27.445-6.766 35.145-12.204c6.761-4.77 12.097-8.539 23.613-8.539 4.086 0 8.098.68 11.906 2.176 3.715 1.461 7.582 2.512 11.555 2.977v19.761H53.824v-19.484a48.252 48.252 0 001.989-.055zM20 316.937c0-16.863 13.723-30.585 30.586-30.585h29.75l54.531 54.535c1.875 1.875 4.418 2.925 7.07 2.925s5.196-1.05 7.07-2.925l28.548-28.547 37.215 37.215H50.586a30.604 30.604 0 01-15.125-4.02C26.234 340.265 20 330.335 20 318.97zm13.352 49.59a50.736 50.736 0 0017.234 3.028H234.77l18.546 18.547c3.836 3.84 10.262 3.847 14.11.03l18.746-18.577H461.41c5.64 0 11.274-.957 16.602-2.801 1.117-.387 2.258-.777 3.308-1.317.34-.175.832-.566 1.235-.539.554.04.699.747.898 1.192 1.082 2.387 1.66 5 1.707 7.62.168 9.435-6.625 17.33-15.496 19.9-5.082 1.476-10.586 1.148-15.484-.852-6.032-2.465-12.403-3.664-19.47-3.664-17.862 0-27.444 6.765-35.144 12.203-6.761 4.773-12.097 8.543-23.613 8.543-11.512 0-16.851-3.77-23.61-8.543-7.698-5.438-17.28-12.203-35.144-12.203s-27.445 6.765-35.148 12.203c-6.758 4.773-12.094 8.543-23.61 8.543s-16.851-3.77-23.613-8.543c-7.7-5.438-17.281-12.203-35.144-12.203-17.864 0-27.446 6.765-35.149 12.203-6.758 4.773-12.094 8.543-23.61 8.543-11.519 0-16.855-3.774-23.613-8.543-7.703-5.438-17.285-12.203-35.152-12.203-7.066 0-13.437 1.199-19.476 3.668-6.528 2.664-14.137 2.312-20.297-1.157-5.45-3.066-9.508-8.324-10.461-14.57a19.733 19.733 0 01-.055-5.594c.07-.539.988-5.093 1.48-4.914zm436.734 70.145c0 27.523-22.395 49.918-49.918 49.918H91.832c-27.523 0-49.918-22.395-49.918-49.918v-23.719c8.211 2.328 17.074 2.164 25.52-.644a45.21 45.21 0 002.809-1.031c3.593-1.47 7.491-2.18 11.917-2.18 11.52 0 16.856 3.765 23.613 8.539 7.704 5.437 17.286 12.203 35.153 12.203 17.863 0 27.445-6.766 35.144-12.203 6.758-4.774 12.098-8.54 23.61-8.54 11.515 0 16.855 3.766 23.613 8.54 7.7 5.437 17.281 12.203 35.148 12.203 17.864 0 27.446-6.766 35.145-12.203 6.758-4.774 12.098-8.54 23.61-8.54 11.515 0 16.855 3.766 23.609 8.54 7.699 5.437 17.285 12.203 35.148 12.203s27.445-6.766 35.145-12.203c6.757-4.774 12.097-8.54 23.613-8.54 2.98 0 5.969.333 8.848 1.133 2.738.762 5.324 1.965 8.062 2.739 5.945 1.676 12.363 2.031 18.461 1.039v22.664zm0 0"/><path d="M225.91 101.734c1.582 3.797 5.613 6.375 9.727 6.164 4.058-.207 7.781-3.066 9.02-6.933 1.257-3.922-.153-8.488-3.43-10.992-3.387-2.59-8.383-2.688-11.864-.215-3.691 2.617-5.199 7.793-3.453 11.976zm45.11 44.079c1.582 3.8 5.609 6.355 9.718 6.16 4.063-.196 7.778-3.07 9.024-6.934 1.261-3.918-.153-8.496-3.434-10.992-3.394-2.582-8.383-2.668-11.867-.211-3.703 2.617-5.156 7.793-3.441 11.976zm-25.532-89.79c3.559 2.372 8.563 2.137 11.871-.574 3.235-2.648 4.528-7.34 3.036-11.254-1.454-3.8-5.305-6.507-9.387-6.488-4.04.023-7.88 2.676-9.309 6.457-1.597 4.234.035 9.336 3.79 11.86zm0 0"/></symbol><symbol viewBox="0 0 512.001 512.001" id="cancel-button" xmlns="http://www.w3.org/2000/svg"><path d="M294.111 256.001L504.109 46.003c10.523-10.524 10.523-27.586 0-38.109-10.524-10.524-27.587-10.524-38.11 0L256 217.892 46.002 7.894C35.478-2.63 18.416-2.63 7.893 7.894s-10.524 27.586 0 38.109l209.998 209.998L7.893 465.999c-10.524 10.524-10.524 27.586 0 38.109 10.524 10.524 27.586 10.523 38.109 0L256 294.11l209.997 209.998c10.524 10.524 27.587 10.523 38.11 0 10.523-10.524 10.523-27.586 0-38.109L294.111 256.001z"/></symbol><symbol viewBox="0 -7 511.049 511" id="cereals-ico" xmlns="http://www.w3.org/2000/svg"><path d="M489.95 191.918a81.128 81.128 0 01-29.962 1.117 106.08 106.08 0 00-42.886 3.457c3.48-4.5 6.921-9.039 10.316-13.613.207-.246.395-.508.57-.774 7.282-9.859 14.305-19.867 20.89-29.867.325-.433.614-.894.856-1.375 6.825-10.394 13.133-20.761 18.774-30.925a8.265 8.265 0 001.34-2.415 310.716 310.716 0 0016.082-33.605 8.316 8.316 0 00.949-2.406c11.785-30.567 13.746-56.395-.914-71.047a13.735 13.735 0 00-1.8-1.528c-24.977-21.605-78.735-1.996-139.306 38.051-.171.117-.351.203-.511.332a678.896 678.896 0 00-29.953 21.086c-.372.223-.72.48-1.043.766-18.688 13.93-37.622 29.363-56.243 45.766-.16.136-.324.273-.476.425a1049.08 1049.08 0 00-26.66 24.328l-.075.079a957.694 957.694 0 00-7.332 7.039c13.383-40.286 10.192-71.106-9.753-90.29a17.15 17.15 0 00-28.946 14.504c2.059 16.215-.34 50.528-36.043 105.02a284.193 284.193 0 00-2.781-6.098 196.276 196.276 0 00-3.621-7.18c-1.27-2.413-2.711-4.937-4.129-7.386l-.563-.992a32.964 32.964 0 00-3.488-5.274 12.935 12.935 0 00-11.523-4.777 12.98 12.98 0 00-11.008 15.223c3.191 24.796-.246 74.812-58.316 132.882C7.188 337.777 5.906 377.09 14.219 403.543l-4.164 4.164a34.227 34.227 0 000 48.461l30.273 30.336c13.387 13.371 35.074 13.371 48.461 0l9.61-9.574a89.96 89.96 0 0013.816 1.195c30.3 0 61.105-15.473 91.8-46.164 26.454-26.453 50.048-38.352 70.188-35.434 16.922 2.493 32.035 15.883 44.918 39.828a17.12 17.12 0 0032.07-6.625c2.473-27.203-.574-75.593-44.527-107.414 87.621-62.738 104.79-67.218 132.207-74.164 7.961-2.015 16.98-4.265 28.672-8.21a146.955 146.955 0 0036.043-17.305 16.781 16.781 0 005.973-20.864c-3.25-7.632-11.543-11.8-19.61-9.855zm-224.774-61.371a110.773 110.773 0 0128.832 18.207 1919.433 1919.433 0 00-12.305 11.95 159.068 159.068 0 00-28.55-19.235 989.267 989.267 0 0112.023-10.922zm26.988-23.11a133.8 133.8 0 0126.828 17.7 2143.604 2143.604 0 00-12.543 11.758 175.023 175.023 0 00-27.203-18.614c4.336-3.726 8.64-7.34 12.918-10.844zm28.246-22.289a164.184 164.184 0 0123.988 16.622c-4.199 3.785-8.464 7.66-12.8 11.632a196.548 196.548 0 00-24.97-17.664c4.661-3.66 9.25-7.203 13.782-10.617zm29.586-21.078c7.09 4.5 13.89 9.45 20.352 14.813-4.254 3.672-8.602 7.46-13.04 11.367a218.983 218.983 0 00-21.906-16.094 626.907 626.907 0 0114.594-10.113zm31.395-19.55c4.949 3.457 10.171 7.46 15.554 12a956.472 956.472 0 00-13.43 11.152c-6.273-5.25-12.273-9.856-17.921-13.746a433.141 433.141 0 0115.797-9.43zm33.894-17.032c2.942 2.34 5.973 4.82 9.07 7.52a698.595 698.595 0 00-13.894 10.64 262.269 262.269 0 00-12.45-10.12c6.052-3.04 11.821-5.743 17.274-8.04zm60.254 34.723c-1.238-1.441-2.562-2.918-3.875-4.387 2.738-4.02 5.172-7.738 7.176-11.043-.7 5.223-1.8 10.38-3.3 15.43zM460.91 98.348a260.075 260.075 0 00-10.043-12.356A685.586 685.586 0 00461.5 72.09a306.596 306.596 0 017.332 8.832 257.173 257.173 0 01-7.922 17.46zm-18.344 32.43c-3.832-5.54-8.414-11.505-13.656-17.813a1006.1 1006.1 0 0011.156-13.43c4.504 5.34 8.532 10.54 11.946 15.473a586.873 586.873 0 01-9.422 15.8zm-20.218 30.257a222.864 222.864 0 00-16.059-21.863c3.91-4.438 7.7-8.785 11.367-13.047a189.6 189.6 0 0114.79 20.3 576.285 576.285 0 01-10.098 14.645zm-37.953 48.922l-.106.094-.578.59c-1.809 2.175-3.73 4.359-5.582 6.535a175.538 175.538 0 00-18.516-27.11 2434.85 2434.85 0 0011.758-12.554 133.465 133.465 0 0117.64 26.754c-1.546 1.902-3.003 3.754-4.616 5.691zm-53.344 58.547a150.273 150.273 0 00-19.352-29.191c.492-.497.996-.973 1.485-1.461 3.644-3.645 7.09-7.184 10.605-10.75a100.501 100.501 0 0118.508 29.863c-3.684 3.851-7.457 7.7-11.246 11.539zm-108.196 25.121c-3.128-3.414-6.296-6.824-9.734-10.238-4.797-4.805-9.465-9.157-13.996-13.227 3.79-4.152 7.676-8.36 11.656-12.62 4.985 4.46 9.883 9 14.508 13.651s9.133 9.489 13.652 14.508a1004.526 1004.526 0 01-9.273 8.594c-2.27-.23-4.602-.555-6.813-.668zM251.383 274c-4.59-5.121-9.25-10.129-14-14.883-4.754-4.754-9.875-9.508-14.89-13.996a1945.26 1945.26 0 0111.859-12.465c5.324 4.735 10.43 9.446 15.207 14.223 4.964 5.027 9.668 10.113 14.285 15.266a1182.49 1182.49 0 01-12.461 11.87zm-36.438-95.438a93.085 93.085 0 0130.262 18.473 1114.37 1114.37 0 00-11.95 12.23 161.328 161.328 0 00-29.155-19.535c3.507-3.718 7.234-7.437 10.843-11.152zm46.715 56.32c-4.969-4.976-10.183-9.78-15.488-14.507 3.93-4.05 7.95-8.145 12.055-12.29 5.214 4.626 10.437 9.458 15.601 14.622 5.16 5.16 9.957 10.348 14.59 15.563a1599.67 1599.67 0 01-12.297 12.05c-4.59-5.136-9.316-10.285-14.437-15.457zm20.82-51.046c5.504 4.898 10.743 9.746 15.618 14.676a414.744 414.744 0 0114.605 15.539c-3.828 3.902-7.629 7.793-11.586 11.75l-.512.496c-4.687-5.254-9.55-10.496-14.71-15.656-5.165-5.164-10.422-10.036-15.66-14.715.171-.168.331-.348.503-.512 3.934-3.957 7.832-7.766 11.742-11.594zm16.989 67.488a98.684 98.684 0 0118.62 30.082c-3.773 3.696-7.519 7.39-11.402 11.094a158.581 158.581 0 00-19.402-29.227c4.063-3.941 8.121-7.93 12.184-11.964zm25.191-49.492c-4.863-5.434-9.683-10.625-14.508-15.36-4.82-4.734-10.007-9.702-15.453-14.574 4.149-4.058 8.27-8.054 12.364-11.988 5.12 4.531 10.242 9.25 15.277 14.3 5.035 5.052 9.77 10.173 14.3 15.282a4353.73 4353.73 0 01-11.98 12.317zm9.754-39.703c-4.934-4.941-9.941-9.586-14.941-14.047 4.23-3.984 8.43-7.918 12.593-11.812 4.684 4.164 9.508 8.628 14.508 13.656 5 5.023 9.516 9.855 13.653 14.504a2128.146 2128.146 0 01-11.809 12.605 349.771 349.771 0 00-14.004-14.933zm23.04-49.145c4.523 4.094 9.019 8.293 13.421 12.688 4.406 4.394 8.602 8.902 12.691 13.422a1715.94 1715.94 0 01-11.632 12.8c-4.063-4.523-8.352-9.12-13.25-14.019-4.899-4.898-9.48-9.172-14.02-13.254a1469.64 1469.64 0 0112.781-11.664zm25.917-22.777c3.871 3.543 7.79 7.238 11.766 11.207a317.606 317.606 0 0111.203 11.766 1757.658 1757.658 0 01-11.363 13.082c-3.903-4.266-7.895-8.535-12.036-12.657-4.136-4.12-8.386-8.132-12.652-12.03a1358.51 1358.51 0 0113.07-11.391zm26.512-22.187c3.012 2.8 6.125 5.77 9.515 9.156 3.387 3.39 6.313 6.46 9.145 9.508a770.629 770.629 0 01-11.09 13.398 451.223 451.223 0 00-10.242-10.719c-3.55-3.593-7.176-7.008-10.719-10.238a641.464 641.464 0 0113.383-11.145zm27.367-21.247c2.133 2.04 4.266 4.012 6.398 6.137 2.133 2.125 4.106 4.266 6.145 6.406-3.04 4.157-6.59 8.825-10.488 13.844a492.81 492.81 0 00-7.84-8.047 380.266 380.266 0 00-8.059-7.843c5.012-3.942 9.68-7.5 13.836-10.54zm33.637-21.086a132.093 132.093 0 01-11.094 19.372c-1.371-1.399-2.637-2.809-4.035-4.215-1.399-1.41-2.809-2.664-4.215-4.028a132.906 132.906 0 0119.336-11.171zM383.14 164.883c3.98-4.313 7.859-8.578 11.636-12.801a168.548 168.548 0 0116.606 23.938 819.096 819.096 0 01-10.621 13.753 197.155 197.155 0 00-17.621-24.89zm55.464-140.04c-1.554-1.382-3.132-2.808-4.652-4.113a97.305 97.305 0 0116.352-3.414c-3.45 2.067-7.407 4.625-11.664 7.528zm-199.16 129.528a94.76 94.76 0 0129.961 18.406c-3.566 3.516-7.125 6.973-10.734 10.59-.504.504-.965.988-1.469 1.492a150.56 150.56 0 00-29.219-19.37 749.591 749.591 0 0111.461-11.118zm-43.742 50.348a133.794 133.794 0 0125.602 16.91 2893.272 2893.272 0 00-11.778 12.39 203.995 203.995 0 00-21.945-15.683 706.805 706.805 0 008.121-13.68zm-17.406 27.953a183.107 183.107 0 0119.5 13.851 871.069 871.069 0 00-11.59 12.567c-6.11-4.973-11.945-9.387-17.262-12.918 2.551-3.602 5.7-8.176 9.352-13.559zm-11.547 32.855c2.563 1.91 5.25 4.016 8.012 6.246-2.84 3.172-5.692 6.34-8.422 9.387.308-5.242.445-10.473.41-15.695zm20.95 17.38A338.278 338.278 0 01200.5 295a82.857 82.857 0 00-36.762 15.164c7.399-8.687 15.453-17.836 23.961-27.316zm88.593 23.042a214.791 214.791 0 00-13.781-18.945c4.113-3.867 8.246-7.8 12.398-11.8a106.293 106.293 0 0118.528 29.608c-2.145 1.965-4.27 3.934-6.41 5.899a143.214 143.214 0 00-10.735-4.781zm78.676-62.5a154.663 154.663 0 00-19.172-28.594 1629.44 1629.44 0 0011.945-12.332 111.31 111.31 0 0118.133 28.786c-3.574 4.035-7.184 8.078-10.906 12.125zM201.098 68.824c25.601 24.66 7.988 74.188-11.47 111.598-.108.187-.222.383-.323.582a314.576 314.576 0 01-4.77 8.832c-7.512 13.574-15.207 25.648-21.531 34.984a219.447 219.447 0 00-7.594-29.379c42.856-61.464 48.496-102.671 45.688-126.617zM52.395 474.437L22.078 444.11c-6.469-6.398-6.754-16.754-.648-23.5a115.184 115.184 0 0052.625 49.801l2.898.973 2.152.691-2.382 2.383c-6.73 6.691-17.606 6.684-24.328-.02zm281.746-46.222c-15.567-28.93-34.903-45.281-57.465-48.598-25.735-3.797-54.238 9.754-84.727 40.242-33.101 33.102-64.086 46.078-94.77 39.586a124.612 124.612 0 01-14.753-4.265l-3.074-1.024a100 100 0 01-47.395-51.406c-12.039-31.488-1.082-64.527 32.606-98.191 51.824-51.817 63.55-98.774 64.113-129.403.36.711.699 1.426 1.039 2.153a207.428 207.428 0 013.074 6.722c.93 2.102 1.867 4.266 2.645 6.223l1.101 2.926a125.29 125.29 0 011.414 3.789A199.801 199.801 0 01149 248.066a227.675 227.675 0 01-2.867 59.563 16.974 16.974 0 007.972 17.555 16.669 16.669 0 0018.926-.856c21.426-16.21 51.371-18.105 89.004-5.555a132.853 132.853 0 0122.602 9.727c.855.437 1.656.855 2.691 1.504 43.8 25.36 49.664 67.371 46.813 98.21zm128-204.496c-11.094 3.707-19.782 5.914-27.453 7.851-21.57 5.473-37.223 9.524-79.778 36.89 14.582-15.292 28.305-30.608 40.754-45.534a110.028 110.028 0 0161.91-12.989 99.138 99.138 0 0036.43-1.398 130.23 130.23 0 01-31.871 15.18zm0 0"/><path d="M143.438 407.727c-24.883 24.863-54.715 5.808-55.946 5a8.531 8.531 0 00-13.25 6.547 8.53 8.53 0 003.778 7.652 67.673 67.673 0 0035.902 10.582 57.411 57.411 0 0041.582-17.75 8.537 8.537 0 002.328-8.301 8.532 8.532 0 00-14.395-3.766zm38.871-18.231a8.577 8.577 0 11-17.155.002 8.577 8.577 0 0117.155-.002zm0 0"/></symbol><symbol viewBox="0 0 512 512" id="cupcake-ico-2" xmlns="http://www.w3.org/2000/svg"><path d="M109.276 298.214a13.171 13.171 0 00-1.355 6.754l.021.392 34.411 184.54a7.928 7.928 0 007.781 6.605h211.775a7.856 7.856 0 007.824-6.905l28.858-184.114.034-.253c.664-5.867-.516-10.451-3.465-13.68a58.4 58.4 0 0011.576-11.468c7.846-10.472 10.789-22.574 8.51-35-3.344-18.238-19.891-32.238-28.093-38.182a48.085 48.085 0 00.6-6.261c.724-21.226-9.817-35.313-29.161-39.5a32.8 32.8 0 00-7.127-25.777c-6.885-8.563-16.489-10.864-25.626-10.778A48.121 48.121 0 00338.147 92.4 43.885 43.885 0 00325.275 61a45.643 45.643 0 00-10.122-7.546c-.612-11 5.125-17.478 23.162-27.177a6 6 0 10-5.683-10.569c-17.316 9.311-28.1 18.183-29.394 33.08a50.528 50.528 0 00-12.472-1.488c-21.332.122-35.918 11.369-43.337 26.247a423.651 423.651 0 01-1.491-8.99c-1.1-7.008-1.835-11.638-3.367-14.56-.558-1.062-2.795-4.442-8.21-3.377-11.464 2.252-34.38 21.127-46.515 33.885-16.7 17.558-37.319 46-40.734 81.769a54.882 54.882 0 001.187 14.334q.16.715.38 1.4c-19.215 2.225-32.241 18.973-33.88 34.55-.89 8.453 1.325 15.205 5.207 20.394a89.838 89.838 0 00-15.777 13.36c-5.858 6.482-11.383 23.651-6.047 37.737a30.156 30.156 0 0011.094 14.165zm10.622 5.8a.733.733 0 01.248-.536 59.869 59.869 0 0011.563 2.395q11.634 1.305 22.848 2.058L174.225 484.5h-20.671zM293.032 484.5l10.791-173.819c.6 0 1.208.01 1.811.01a309.6 309.6 0 0033.913-1.668L318.805 484.5zm-12.023 0h-21.7V309.246l4.446.2c9.316.417 18.7.832 28.052 1.064zm-56.277 0l-9.722-176.2c10.5-.217 21.4.04 32.3.45V484.5zM203.01 308.627l9.7 175.877H186.3l-19.592-175.9q9.506.4 18.706.409 8.948.002 17.596-.386zm183.705-4.866L358.385 484.5h-27.5l20.945-177.2a147.4 147.4 0 0028.567-7.766c.109-.02.213-.034.326-.055 4.22-.779 5.31-.13 5.543.088.287.272.739 1.484.449 4.194zm2.076-79.936c5.719 5.42 12.9 13.883 14.652 23.425 3.955 21.566-13.985 35.424-24.023 39.739-30.5 13.109-68.635 12.462-106.238 10.857a228.006 228.006 0 0038.656-14.668c40.225-19.787 60.5-46.353 69-60.428a72.665 72.665 0 002.209-3.9 87.06 87.06 0 015.744 4.975zM290.835 59.3h.224a36.6 36.6 0 0125.755 10.214 31.548 31.548 0 019.333 22.886 36.234 36.234 0 01-36.133 36.253v.043c-12.143.014-18.338-3.07-21.487-6.27-6.837-6.947-11.5-15.666-14.795-24.588.113-18.51 11.731-38.389 37.103-38.538zM126.733 213.82c1.15-10.925 10.95-23.211 24.781-24.011 2.344-.136 4.875-.482 7.554-.849q1.167-.16 2.37-.32a7.429 7.429 0 001.639-.125l.094-.013a6.189 6.189 0 001.065-.206c.283-.033.567-.064.854-.094 84.3-8.876 103.878-20.67 105.459-29a6 6 0 00-11.3-3.716c-1.511 1.517-14.871 12.3-95.411 20.782-.649.069-1.291.142-1.92.217a3.617 3.617 0 01-1.906-2.5 43.626 43.626 0 01-.95-10.564C164.415 107.3 217.219 67.923 233 59.883c.372 2.021.75 4.415 1.086 6.547 2.677 16.974 7.157 45.383 25.889 64.417 9.938 10.1 27.733 12.422 54.4 7.112 14.372-2.864 22.668-1.389 27.744 4.923 4.946 6.153 6.091 13.156 3.5 21.411-3.506 11.17-32.706 32.99-79.914 51.428-48.714 19.028-94.988 25.678-123.782 17.785-14.6-3.998-15.783-14.05-15.19-19.686zm-13.6 40.543a82.848 82.848 0 0116.235-13.2 39.223 39.223 0 009.378 3.916 118.11 118.11 0 0031.072 3.779c38.953 0 81.055-14.465 100.247-21.961 35.769-13.971 74.161-35.536 84.85-54.252 14.543 2.646 21.388 11.694 20.846 27.588-.212 6.266-1.426 10.076-5.192 16.31-7.824 12.95-26.548 37.429-64.028 55.866-45.039 22.155-103.412 29.4-173.493 21.533a46.333 46.333 0 01-10.481-2.3l-.028-.011c-6.661-2.4-11.064-6.358-13.135-11.826-3.754-9.905.912-22.325 3.729-25.442z"/></symbol><symbol viewBox="0 0 512 512" id="facebook-ico" xmlns="http://www.w3.org/2000/svg"><path d="M288 176v-64c0-17.664 14.336-32 32-32h32V0h-64c-53.024 0-96 42.976-96 96v80h-64v80h64v256h96V256h64l32-80h-96z"/></symbol><symbol viewBox="0 -15 511.998 511" id="fruits-ico" xmlns="http://www.w3.org/2000/svg"><path d="M470.328 378.684l-5.57-1.278c53.984-44.226 65.488-142.43 14.64-193.597-19.566-19.68-31.253-50.825-31.253-83.32 0-47.102-30.985-85.43-69.079-85.43-38.082 0-69.078 38.328-69.078 85.43 0 10.702-1.265 21.25-3.672 31.288-35.488-40.96-91.843-45.656-129.527-19.472V16.227c0-4.164-3.379-7.543-7.539-7.543a7.545 7.545 0 00-7.543 7.543v29.617C139.18 5.204 98.187-5.668 52.281 3.574 47.645 4.512 45 9.45 46.79 13.832c.421 1.027 10.581 25.516 30.21 46.957 23.23 25.379 52.062 37.98 84.707 28.941v22.575c-44.3-30.782-118.477-19.73-148.95 50.457-1.655 3.82.102 8.254 3.923 9.914a7.533 7.533 0 009.918-3.914c27.886-64.219 94.57-69.407 129.937-41.551 7.363 6.195 18.102 6.164 25.426 0 40.262-31.711 109.914-17.91 133.781 51.477 12.832 37.37 10.266 76.453-12.008 116.878a5515.773 5515.773 0 00-22.156 39.997c-46.71-10.063-53.379-13.743-69.277-13.399-4.164.082-7.473 3.52-7.383 7.684.082 4.175 3.512 7.492 7.695 7.39 2.735-.058 5.84.082 9.117.485l-4.523 40.625a7.54 7.54 0 006.66 8.328 7.544 7.544 0 008.332-6.66l4.375-39.274c30.13 6.88 49.738 11.363 73.102 16.707l-2.156 19.371a7.542 7.542 0 1014.992 1.668l1.965-17.66c4.66 1.067 111.714 25.52 113.054 25.828l-5.824 52.293a7.542 7.542 0 1014.992 1.672l5.637-50.582 14.637 3.348c18.144 4.14 30.129 20.996 28.058 39.5-2.05 18.402-17.57 32.312-36.082 32.351l-77.203.149 2.742-24.594a7.542 7.542 0 00-6.66-8.332c-4.144-.457-7.871 2.52-8.332 6.66l-2.93 26.297-73.992.14 2.574-23.12a7.54 7.54 0 00-6.66-8.329c-4.129-.464-7.87 2.52-8.332 6.66-.64 5.762-2.699 24.208-2.761 24.82l-35.426.067 4.484-40.246a7.54 7.54 0 00-6.66-8.328 7.537 7.537 0 00-8.332 6.66l-4.676 41.946h-.27c-.488 0-2.855.003-12.492.023-29.605 0-54.984-20.195-62.199-48.102-7.402-28.504 5.559-60.332 34.735-74.195 3.761-1.789 5.367-6.285 3.578-10.047-1.79-3.762-6.285-5.37-10.047-3.578-14.703 6.977-26.567 17.98-34.461 31.434-15.266-7.614-32.727-19.59-42.04-37.227-12.034-22.863-46.745-14.277-46.862 11.535l-23.633-42.965c-16.2-29.433-22.133-62.468-15.082-96.562a7.546 7.546 0 00-5.864-8.918 7.538 7.538 0 00-8.91 5.863c-7.562 36.586-1.82 73.34 16.633 106.89l32.223 58.567-23.614-2.633c-13.664-1.52-25.957 8.301-27.476 21.973-1.516 13.629 8.328 25.957 21.965 27.477l39.097 4.351c-9.695 8.68-17.5 16.547-16.52 28.953 1.696 21.93 29.286 31.067 43.704 14.23 11.867-13.886 30.41-22.464 49.207-27.093 10.219 31.941 40.227 55.133 75.566 55.133 11.493-.024 231.067-.445 244.946-.473 28.511-.054 51.379-23.16 51.379-51.512-.004-24.132-16.457-44.75-40.02-50.128zM64.871 16.73c50.152-6.847 81.777 17.055 92.34 58.59-40.86 11-72.992-21.3-92.34-58.59zm380.215 356.18l-148.16-33.851a4007.49 4007.49 0 0114.32-26.024c13.969 24.063 40.012 40.274 69.77 40.274 38.285 0 71.523-27.211 79.023-64.704.816-4.082-1.84-8.054-5.922-8.867a7.532 7.532 0 00-8.87 5.91c-6.095 30.461-33.106 52.579-64.231 52.579-27.555 0-51.188-17.106-60.852-41.254 12.531-23.852 18.535-49.055 18.332-74.055 37.844-32.36 96.192-11.95 106.54 35.86a7.535 7.535 0 008.972 5.773 7.537 7.537 0 005.77-8.969c-3.829-17.71-13.727-33.812-27.837-45.336-26.808-21.879-65.128-24.348-94.64-5.207-2.512-19.824-9.102-40.484-19.63-57.695 4.837-14.582 7.403-30.453 7.403-46.856 0-34.8 21.676-70.343 53.992-70.343 31.973 0 53.993 35.066 53.993 70.343 0 36.93 12.992 71.172 35.64 93.961 39.281 39.5 35.48 112.836 1.36 156.035-7.414 9.383-15.852 16.926-24.973 22.426zm-309.84 37.903c-21.488 5.226-43.23 15.5-57.46 32.14-3.513 4.106-9.708 4.586-13.81 1.078-4.113-3.527-4.593-9.699-1.074-13.8 6.567-7.676 14.434-14.356 22.805-19.731 5.938-3.84 3.785-13.047-3.258-13.824-6.531-.73-52.87-5.899-57.812-6.45-5.36-.593-9.242-5.449-8.649-10.808a9.79 9.79 0 0110.82-8.648c.032.003.063.003.09.007-.015 0-.03-.004-.043-.004.036.004.094.012.18.02h-.015c.082.008.14.012.175.02-.027-.004-.066-.008-.11-.016l52.247 5.824c2.398-.152 9.707 2.953 12.902-3.601a7.543 7.543 0 00-1.398-8.586c-7.32-7.465-13.344-15.63-17.898-24.258-2.524-4.778-.684-10.711 4.082-13.235h.011c4.82-2.535 10.696-.671 13.223 4.094 11.113 21.059 31.496 35.067 49.035 43.785-4.004 11.293-5.5 23.84-4.043 35.993zm0 0"/></symbol><symbol viewBox="0 0 512 512" id="linkedin-ico" xmlns="http://www.w3.org/2000/svg"><path d="M475.074 0H36.926C16.53 0 0 16.531 0 36.926v438.148C0 495.47 16.531 512 36.926 512h438.148C495.47 512 512 495.469 512 475.074V36.926C512 16.53 495.469 0 475.074 0zM181.61 387h-62.347V199.426h62.347zm-31.172-213.188h-.406c-20.922 0-34.453-14.402-34.453-32.402 0-18.406 13.945-32.41 35.274-32.41 21.328 0 34.453 14.004 34.859 32.41 0 18-13.531 32.403-35.274 32.403zM406.423 387h-62.34V286.652c0-25.218-9.027-42.418-31.586-42.418-17.223 0-27.48 11.602-31.988 22.801-1.649 4.008-2.051 9.61-2.051 15.215V387h-62.344s.817-169.977 0-187.574h62.344v26.558c8.285-12.78 23.11-30.96 56.188-30.96 41.02 0 71.777 26.808 71.777 84.421zm0 0"/></symbol><symbol viewBox="0 0 368 368" id="logo" xmlns="http://www.w3.org/2000/svg"><path d="M360 0h-48c-30.879 0-56 25.129-56 56v40h-24c-20.344 0-38.191 10.902-48 27.176C174.191 106.902 156.344 96 136 96h-24V56c0-30.871-25.121-56-56-56H8C3.586 0 0 3.574 0 8v48c0 30.871 25.121 56 56 56h80c22.055 0 40 17.945 40 40v37.129C157.297 171.137 131.945 160 104 160 46.656 160 0 206.656 0 264s46.656 104 104 104c32.145 0 60.922-14.672 80.016-37.656C203.68 354.054 232.8 368 264 368c57.344 0 104-46.656 104-104s-46.656-104-104-104c-27.281 0-52.871 10.664-72 29.113V152c0-22.055 17.945-40 40-40h80c30.879 0 56-25.129 56-56V8c0-4.426-3.586-8-8-8zM96 84.688L61.656 50.343c-3.129-3.13-8.183-3.13-11.312 0s-3.13 8.183 0 11.312L84.687 96H56c-22.055 0-40-17.945-40-40V16h40c22.055 0 40 17.945 40 40zm111.512 169.738a103.492 103.492 0 00-4.121-21.02c-.055-.183-.11-.375-.176-.558a101.49 101.49 0 00-7.688-18.16c-.086-.16-.175-.313-.261-.473-.555-1.008-1.075-2.031-1.664-3.016C210.137 189.062 236.078 176 264 176c48.52 0 88 39.48 88 88s-39.48 88-88 88c-27.832 0-53.785-13.047-70.39-35.16.59-1 1.109-2.04 1.671-3.055.086-.168.184-.336.27-.504a102.56 102.56 0 007.984-19.25c.899-2.984 1.703-5.984 2.328-9.039a.236.236 0 00.016-.082c.625-3.047 1.066-6.125 1.418-9.23.078-.735.152-1.48.223-2.223.289-3.129.48-6.281.48-9.457 0-3.215-.2-6.406-.488-9.574zm-15.918 17.613c-.067.746-.16 1.488-.25 2.234a85.906 85.906 0 01-.953 6.223c-.11.574-.2 1.16-.32 1.734a85.774 85.774 0 01-2.008 7.786c-.055.168-.118.336-.176.511a89.306 89.306 0 01-2.598 7.098c-.168.406-.344.809-.52 1.215-1.042 2.398-2.152 4.762-3.402 7.039-.008.016-.015.031-.023.043C166.434 333.344 137.352 352 104 352c-48.52 0-88-39.48-88-88s39.48-88 88-88c36.336 0 67.594 22.137 81 53.633.04.086.078.183.121.27A86.956 86.956 0 01190.137 246c.062.313.11.625.175.938.45 2.285.793 4.605 1.063 6.957.074.648.152 1.296.21 1.945.247 2.695.415 5.406.415 8.16 0 2.71-.168 5.39-.406 8.04zM352 56c0 22.055-17.945 40-40 40h-28.688l34.344-34.344c3.13-3.129 3.13-8.183 0-11.312s-8.183-3.13-11.312 0L272 84.687V56c0-22.055 17.945-40 40-40h40zm0 0"/><path d="M104 304c-22.055 0-40-17.945-40-40 0-4.426-3.586-8-8-8s-8 3.574-8 8c0 30.871 25.121 56 56 56 4.414 0 8-3.574 8-8s-3.586-8-8-8zm160 16c30.879 0 56-25.129 56-56 0-4.426-3.586-8-8-8s-8 3.574-8 8c0 22.055-17.945 40-40 40-4.414 0-8 3.574-8 8s3.586 8 8 8zm0 0"/></symbol><symbol viewBox="0 0 512 512" id="meat-ico" xmlns="http://www.w3.org/2000/svg"><path d="M468.467 125.688c-23.347-18.607-56.3-33.841-97.944-45.277-80.091-21.994-170.408-24.368-205.522-24.368C74.019 56.043 0 130.063 0 221.045v69.91c0 90.983 74.019 165.002 165.001 165.002 41.953 0 73.46-13.142 106.817-27.056 34.496-14.389 70.165-29.267 120.331-29.267 66.086 0 119.851-53.766 119.851-119.851v-69.91c0-32.839-14.647-61.163-43.533-84.185zm-8.421 170.954c3.786 4.023 10.115 4.212 14.136.427A120.12 120.12 0 00492 275.907v3.876c0 55.059-44.793 99.851-99.851 99.851-54.17 0-91.718 15.662-128.03 30.808-31.457 13.121-61.169 25.515-99.118 25.515-76.82 0-139.869-60.053-144.693-135.678 28.08 51.073 82.409 85.766 144.693 85.766 41.953 0 73.46-13.142 106.817-27.056 34.496-14.389 70.165-29.267 120.331-29.267 3.727 0 7.492-.176 11.192-.522 5.499-.515 9.539-5.39 9.024-10.889-.515-5.498-5.396-9.537-10.889-9.023-3.083.288-6.22.435-9.327.435-54.17 0-91.718 15.662-128.03 30.808-31.457 13.121-61.169 25.515-99.118 25.515-79.954 0-145.001-65.047-145.001-145 0-79.954 65.047-145.002 145.001-145.002 34.303 0 122.481 2.305 200.226 23.654C449.347 122.799 492 159.867 492 209.873c0 27.295-11.492 53.769-31.528 72.633-4.021 3.786-4.212 10.115-.426 14.136z"/><path d="M451.823 303.025c-2.352-4.997-8.311-7.142-13.306-4.79-.072.033-.167.08-.238.115-4.939 2.47-6.941 8.477-4.472 13.416a10 10 0 0013.357 4.502c4.903-2.393 6.99-8.29 4.659-13.243zM237.188 98.862l-.515-.042c-5.514-.43-10.325 3.668-10.764 9.174-.439 5.505 3.668 10.324 9.173 10.764l.511.04c.271.022.54.033.808.033 5.161 0 9.538-3.97 9.958-9.203.44-5.506-3.666-10.325-9.171-10.766z"/><path d="M465.756 182.933c-9.919-19.604-31.989-36.546-65.599-50.354-27.195-11.173-56.936-18.231-77.097-22.186-12.083-2.369-24.745-4.485-37.635-6.287-5.467-.772-10.523 3.048-11.289 8.519-.765 5.47 3.049 10.523 8.519 11.288 12.53 1.752 24.829 3.807 36.556 6.107 68.69 13.471 115.599 36.048 128.699 61.94 2.752 5.441 4.09 11.3 4.09 17.912 0 33.001-26.849 59.85-59.851 59.85-33.368 0-65.771 5.453-99.061 16.672-14.338 4.833-28.26 10.61-41.723 16.198-8.905 3.695-18.113 7.517-27.253 10.98-23.065 8.742-40.744 12.472-59.111 12.472-57.898 0-105.002-47.103-105.002-105 0-57.898 47.104-105.002 105.002-105.002a918.907 918.907 0 0139.848.869c5.513.25 10.188-4.032 10.431-9.55.244-5.517-4.032-10.188-9.549-10.431A939.421 939.421 0 00165 96.042c-68.926 0-125.002 56.075-125.002 125.002 0 68.925 56.075 125 125.002 125 20.935 0 40.733-4.118 66.199-13.77 9.431-3.574 18.785-7.456 27.832-11.211 13.153-5.458 26.754-11.103 40.444-15.717 31.198-10.514 61.512-15.625 92.674-15.625 44.03.002 79.851-35.819 79.851-79.848 0-9.822-2.043-18.634-6.244-26.94z"/><path d="M174.578 135.82c-27.956 0-50.701 20.625-50.701 45.977s22.745 45.977 50.701 45.977c27.957 0 50.701-20.625 50.701-45.977s-22.744-45.977-50.701-45.977zm0 71.953c-16.929 0-30.701-11.653-30.701-25.977 0-14.323 13.772-25.977 30.701-25.977s30.701 11.653 30.701 25.977-13.772 25.977-30.701 25.977z"/></symbol><symbol viewBox="0 -53 384 384" id="menu-burger" xmlns="http://www.w3.org/2000/svg"><path d="M368 154.668H16c-8.832 0-16-7.168-16-16s7.168-16 16-16h352c8.832 0 16 7.168 16 16s-7.168 16-16 16zM368 32H16C7.168 32 0 24.832 0 16S7.168 0 16 0h352c8.832 0 16 7.168 16 16s-7.168 16-16 16zm0 245.332H16c-8.832 0-16-7.168-16-16s7.168-16 16-16h352c8.832 0 16 7.168 16 16s-7.168 16-16 16zm0 0"/></symbol><symbol viewBox="-46 0 511 511.998" id="pizza-ico" xmlns="http://www.w3.org/2000/svg"><path d="M410.371 8.363C404.398 2.637 396.56-.32 388.293.027c-74.152 3.149-148.035 23.11-213.656 57.735-65.61 34.617-123.754 84.304-168.145 143.691-4.957 6.629-6.937 14.781-5.574 22.95 1.367 8.171 5.887 15.242 12.73 19.906l40.266 27.437.004.004 23.906 16.29v20.862c0 5.524 4.477 10 10 10 5.524 0 10-4.476 10-10v-26.148c0-3.309-1.636-6.402-4.367-8.266L73.559 260.93c8.82-12.278 18.312-24.043 28.402-35.301 10.371-11.574 21.418-22.598 33.078-32.883 11.223-9.898 22.91-19.25 35.113-27.918 12.68-9.004 25.868-17.238 39.453-24.805 13.61-7.585 27.727-14.328 42.133-20.265a509.034 509.034 0 015.434-2.2 54.232 54.232 0 004.433 22.18c5.739 13.34 16.329 23.649 29.82 29.02 6.513 2.597 13.325 3.89 20.13 3.89 7.293 0 14.578-1.488 21.476-4.453 13.34-5.742 23.645-16.332 29.02-29.82 5.375-13.492 5.172-28.266-.567-41.605a54.763 54.763 0 00-2.586-5.211 413.076 413.076 0 0140.739-2.996v251.406c-16.239 5.57-29.008 18.683-34.196 35.05-5.742 18.122-1.347 38.422 11.317 52.583 6.176 6.906 14.117 12.152 22.879 15.152v40.371l-47-32.027a10.005 10.005 0 00-10.309-.578 10.01 10.01 0 00-5.324 8.843v23.184c0 5.066-4.121 9.183-9.184 9.183s-9.183-4.12-9.183-9.183v-49.328c0-1.227-.227-2.422-.645-3.535 14.082-15.48 18.32-38.262 9.774-58.125-11.844-27.536-43.887-40.301-71.426-28.454-11.387 4.899-20.672 13.602-26.438 24.36l-13.535-9.223a10.006 10.006 0 00-10.304-.578 10.005 10.005 0 00-5.329 8.84v38.46c0 5.063-4.117 9.18-9.18 9.18s-9.183-4.12-9.183-9.18v-64.6c0-3.31-1.637-6.403-4.367-8.266l-46.184-31.465a9.997 9.997 0 00-15.629 8.262v133.66c0 5.066-4.12 9.183-9.183 9.183s-9.18-4.12-9.18-9.183v-53.649c0-5.523-4.48-10-10.004-10-5.523 0-10 4.477-10 10v53.649c0 16.093 13.094 29.183 29.184 29.183 16.09 0 29.183-13.09 29.183-29.183V327.813l26.18 17.835v59.317c0 16.09 13.09 29.18 29.184 29.18 16.09 0 29.183-13.09 29.183-29.18v-19.543l8.282 5.644c.003 0 .003.004.007.004l68.493 46.672 1.117.762v44.043c0 16.09 13.09 29.183 29.183 29.183 16.09 0 29.184-13.093 29.184-29.183v-4.274l47.004 32.032c6.523 4.445 15.633-.407 15.633-8.266V30.08c-.004-8.278-3.293-15.99-9.27-21.716zM246.54 378.801c3.492-7.738 9.703-13.883 17.703-17.324 17.41-7.489 37.66.578 45.153 17.984 5.539 12.883 2.585 27.707-6.872 37.488l-37-25.21zM20.65 221.113a9.996 9.996 0 011.863-7.687C65.138 156.402 120.97 108.691 183.97 75.449c63.02-33.25 133.96-52.418 205.168-55.437a9.975 9.975 0 017.395 2.79c2 1.92 3.1 4.503 3.1 7.272v38.469a434.086 434.086 0 00-47.808 3.754c-4.52.61-9.047 1.246-13.543 1.988a431.734 431.734 0 00-71.261 18.16c-16.348 5.692-32.34 12.54-47.915 20.082-15.804 7.649-31.144 16.395-45.843 25.996a449.214 449.214 0 00-41.617 30.747c-13.391 11.144-26.024 23.171-37.993 35.824-11.75 12.426-22.687 25.64-32.859 39.379a438.01 438.01 0 00-3.781 5.18L24.91 227.776a9.98 9.98 0 01-4.262-6.664zm322.82-90.144c-3.399 8.527-9.91 15.222-18.344 18.851-8.434 3.625-17.77 3.754-26.297.356-8.527-3.395-15.223-9.91-18.851-18.344-3.02-7.023-3.61-14.68-1.758-21.969 15.004-5.031 30.316-9.261 45.812-12.48a471.893 471.893 0 0112.727-2.48 33.828 33.828 0 016.351 9.769c3.63 8.433 3.754 17.77.36 26.297zm42.258 273.976c-3.63-8.43-3.754-17.77-.36-26.297 2.828-7.097 7.817-12.921 14.27-16.77v58.974a34.273 34.273 0 01-13.91-15.907zm0 0"/><path d="M165.672 295.625c6.512 2.594 13.324 3.887 20.129 3.887 7.293 0 14.578-1.485 21.476-4.453 27.536-11.848 40.301-43.891 28.453-71.426-5.738-13.34-16.328-23.649-29.82-29.02-13.488-5.375-28.265-5.175-41.605.567-13.34 5.738-23.645 16.328-29.02 29.82-5.375 13.488-5.172 28.266.567 41.605 5.738 13.34 16.328 23.645 29.82 29.02zm-11.805-63.223c3.395-8.527 9.91-15.222 18.344-18.851a34.308 34.308 0 0113.574-2.817c4.3 0 8.606.82 12.723 2.461 8.527 3.395 15.222 9.91 18.851 18.34 7.489 17.406-.582 37.66-17.988 45.149-8.43 3.628-17.77 3.753-26.297.359-8.527-3.398-15.222-9.914-18.847-18.344-3.63-8.433-3.758-17.773-.36-26.297zm159.938 83.715a54.235 54.235 0 0020.129 3.89c7.293 0 14.578-1.487 21.476-4.456 13.34-5.738 23.645-16.328 29.02-29.817 5.375-13.492 5.175-28.265-.567-41.609-5.738-13.336-16.328-23.645-29.816-29.02-13.492-5.375-28.27-5.171-41.606.567-13.34 5.738-23.648 16.328-29.023 29.82-5.371 13.492-5.172 28.266.566 41.606s16.329 23.648 29.82 29.02zM302 252.895c3.395-8.528 9.91-15.22 18.344-18.848a34.308 34.308 0 0113.574-2.817c4.3 0 8.605.817 12.723 2.458 8.527 3.398 15.222 9.914 18.851 18.343 3.625 8.434 3.754 17.774.356 26.301-3.399 8.523-9.91 15.219-18.344 18.848-8.43 3.625-17.77 3.754-26.297.355-8.527-3.394-15.223-9.91-18.852-18.34-3.625-8.433-3.75-17.773-.355-26.3zM87.832 358.91c4.23 0 8.082-2.777 9.453-6.765 1.375-3.997.008-8.614-3.367-11.18-3.238-2.461-7.73-2.707-11.227-.633-3.617 2.145-5.504 6.492-4.648 10.605.957 4.583 5.102 7.973 9.789 7.973zm0 0"/></symbol><symbol viewBox="0 -47 512.002 512" id="twitter-ico" xmlns="http://www.w3.org/2000/svg"><path d="M191.012 419.043c-22.14 0-44.93-1.793-67.856-5.387-40.379-6.336-81.254-27.457-92.82-33.781L0 363.289l32.844-10.8c35.902-11.805 57.742-19.13 84.777-30.598-27.07-13.11-47.933-36.692-57.976-67.176l-7.641-23.195 6.266.957A113.939 113.939 0 0144 214.883c-12.934-19.645-19.781-43.649-18.324-64.219l1.437-20.246 12.121 4.695a113.316 113.316 0 01-10.98-30.777c-5.293-26.36-.863-54.363 12.476-78.852L51.29 6.102l14.12 16.96c44.66 53.649 101.227 85.473 168.363 94.79-2.742-18.903-.687-37.145 6.114-53.497 7.918-19.039 22.004-35.183 40.722-46.69 20.79-12.778 46-18.97 70.989-17.435 26.511 1.63 50.582 11.563 69.699 28.747 9.336-2.426 16.215-5.016 25.512-8.516 5.593-2.106 11.937-4.496 19.875-7.23l29.25-10.079-19.075 54.477a96.355 96.355 0 013.91-.254l31.235-1.414-18.461 25.23c-1.059 1.446-1.328 1.856-1.703 2.422-1.488 2.242-3.34 5.032-28.68 38.867-6.344 8.473-9.512 19.508-8.922 31.079 2.246 43.968-3.148 83.75-16.043 118.234-12.195 32.625-31.093 60.617-56.164 83.2-31.023 27.937-70.582 47.066-117.582 56.847-23.054 4.797-47.812 7.203-73.437 7.203zm0 0"/></symbol></svg>