<?xml version="1.0" encoding="utf-8"?><svg xmlns="http://www.w3.org/2000/svg" xmlns:xlink="http://www.w3.org/1999/xlink"><symbol viewBox="0 0 503.2 503.2" id="diagram-colour" xmlns="http://www.w3.org/2000/svg"><path d="M370.9 248.228c67.5 0 122.3 54.7 122.3 122.3s-54.7 122.3-122.3 122.3c-67.5 0-122.3-54.7-122.3-122.3s54.8-122.3 122.3-122.3zm55.6 196.5v-123.7h-16.6v-29.2h-77.4v29.2h-16.6v123.7h110.6z" fill="#fdc75b"/><path d="M452 209.828l-117.2.2c-8.5-41-40.9-73.3-81.8-82-.2 0 .8-117.1.8-117.1 104 10.5 188 93.9 198.2 198.9z" fill="#ed664c"/><g fill="#fdc75b"><path d="M426.5 321.028v123.7H394v-37.7h-47.6v37.7h-30.6v-123.7h94.1z"/><path d="M332.5 291.928h77.4v29.2h-77.4zm13.9 115.1H394v37.7h-47.6zm-135.8-71.4v116.9c-1 0-.8 0-1-.1-45-4.3-86.3-22.2-119.4-49.4l82.5-82.7c10.9 7.2 23.7 12.4 36.9 15.1.2.1 0 .1 1 .2z"/></g><path d="M209.7 10.428l-.2 58.5-48.3-48.3c15.3-5.1 31.4-8.5 48-10.2h.5z" fill="#ed664c"/><path d="M209.4 68.928l-.2 56.1h-.2l-87-87c12.4-7 25.5-12.9 39.2-17.4l48.2 48.3z" fill="#fdc75b"/><path d="M209.2 127.428c-13.9 2.9-26.8 8.5-38.1 16.3l-.1-.2-82.4-82.3c10.4-8.7 21.6-16.5 33.4-23.2l87 87h.2v2.4z" fill="#ed664c"/><path d="M170.9 143.528l.1.2c-11.1 7.6-20.6 17.2-28.2 28.3l-.2-.1-82.3-82.4c8.6-10.2 18-19.7 28.2-28.3l82.4 82.3z" fill="#fdc75b"/><path d="M142.7 171.928l.2.1c-7.5 11-12.9 23.4-15.8 36.6h-4.6v-.4l-85.3-85.3c6.7-11.9 14.4-23.1 23.1-33.5l82.4 82.5z" fill="#ed664c"/><path d="M122.5 208.228v.4H65.8v-.5l-45.9-45.9c4.5-13.7 10.3-26.8 17.3-39.3l85.3 85.3z" fill="#fdc75b"/><path d="M65.8 208.128v.5H10.1c1.6-16 4.9-31.5 9.8-46.4l45.9 45.9zm-55.7 45.1c0-.2 0 .4-.1-.6h116.9c2.7 13 8 26 15.2 37.1l-82.7 82.7c-27.2-33.1-45-74.2-49.3-119.2z" fill="#ed664c"/><path d="M150.5 284.228c-6.4-9.7-11.3-21.7-13.8-33.6-1-4.6-5.1-8-9.8-8H10c-2.7 0-5.3 1.1-7.1 3-1.9 1.9-2.9 4.5-2.9 7.2 0 .5 0 1 .1 1.5 4.5 45.8 22.3 88.9 51.6 124.5 1.8 2.2 4.4 3.5 7.2 3.6h.5c2.6 0 5.2-1 7.1-2.9l82.7-82.7c3.3-3.4 3.9-8.7 1.3-12.6zm-90.1 73.1c-20.7-28-34-60.3-39.1-94.7h97.8c2.5 8.9 6.1 17.6 10.5 25.5l-69.2 69.2zm150.9-31.7c-12-2.5-23.4-7.2-33-13.6-4-2.6-9.2-2.1-12.6 1.3l-82.5 82.7c-2 2-3 4.7-2.9 7.6.1 2.8 1.5 5.4 3.6 7.2 35.5 29.2 78.6 47.1 124.5 51.6.7.1 1.3.1 2 .1h.2c2.6 0 5.1-1 7-2.9s3-4.5 3-7.1v-116.9c0-5.3-4.1-9.7-9.3-10zm-10.7 115.6c-34.6-5-67.2-18.4-95.3-39.1l69-69.2c8.2 4.5 17.1 8.1 26.3 10.6v97.7zm50.1-303.4h.2c37.3 7.9 66.3 36.8 74.1 74 1 4.6 5.1 7.7 9.8 7.7H452c2.8 0 5.5-1.1 7.4-3.2 1.9-2.1 2.8-4.8 2.5-7.6-10.6-109.4-97.7-196.8-207.1-207.7-2.8-.3-5.6.6-7.7 2.5-2.1 1.9-3.3 4.6-3.3 7.4l-.4 58.5c-.1 14.6-.2 29.3-.3 40.3 0 5.5-.1 10.1-.1 13.3v3.8c0 8 4.9 10.3 7.7 11zm13-115.5c44.1 6.8 85.4 27.7 117.3 59.7 32 32.1 53 73.6 59.7 117.9l-98 .2c-10.9-38.5-41.1-68.7-79.6-79.8 0-17.6.3-62.2.6-98zm-253.6 196.3h117c4.7 0 8.8-3.3 9.8-7.9 2.5-11.8 7.4-22.9 14.3-33.1 6.9-10.1 15.5-18.8 25.6-25.7 10.5-7.2 22.1-12.2 34.5-14.8 4.6-1 7.9-5 8-9.7v-2.4l.5-114.6c0-2.9-1.2-5.6-3.3-7.5s-5-2.8-7.8-2.5h-.4c-17.1 1.7-33.9 5.2-50.1 10.6-14.1 4.7-27.9 10.8-41 18.2-12.3 6.9-24 15.1-34.9 24.2-10.8 9-20.7 18.9-29.7 29.7-9.1 10.9-17.2 22.7-24.1 35-7.3 13-13.4 26.9-18.1 41.1-5.2 15.7-8.6 32-10.3 48.5-.3 2.8.6 5.6 2.5 7.7s4.7 3.2 7.5 3.2zm189.5-196.9l-.1 23.1-19.3-19.3c6.4-1.5 12.9-2.8 19.4-3.8zm-41.1 10.4l40.9 40.9-.1 28.2-60.6-60.6c6.4-3.2 13.1-6 19.8-8.5zm-38.1 18.5l71.4 71.4c-6.7 2.4-13.1 5.4-19.3 9l-68.9-69c5.4-4.1 11-7.9 16.8-11.4zm-32.3 24.2l67.8 67.8c-5.1 4.3-9.8 9-14.1 14.2L74 89.028c4.5-4.9 9.2-9.7 14.1-14.2zm-26.9 29.7l69 69c-3.6 6.2-6.6 12.7-8.9 19.3l-71.5-71.5c3.5-5.7 7.3-11.4 11.4-16.8zm-21.4 35.2l58.9 58.9H70.4l-39-39c2.5-6.8 5.3-13.4 8.4-19.9zm-14.9 41.6l17.3 17.3H21.5c.9-5.8 2-11.6 3.4-17.3zm346 56.9c-72.9 0-132.3 59.3-132.3 132.3 0 72.9 59.3 132.3 132.3 132.3s132.3-59.3 132.3-132.3c0-73-59.3-132.3-132.3-132.3zm0 244.5c-61.9 0-112.3-50.4-112.3-112.3s50.4-112.3 112.3-112.3 112.3 50.5 112.3 112.4-50.4 112.2-112.3 112.2z"/><path d="M426.5 310.628h-6.9v-18.7c0-5.5-4.2-10.3-9.7-10.3h-77.4c-5.5 0-9.9 4.7-9.9 10.3v18.7h-6.8c-5.5 0-10.2 4.9-10.2 10.4v123.7c0 5.5 4.7 9.9 10.2 9.9h110.7c5.5 0 10.1-4.4 10.1-9.9v-123.7c0-5.5-4.5-10.4-10.1-10.4zm-83.9-9h57v9h-57v-9zm41 133h-27v-18h27v18zm33 0h-13v-27.6c0-5.5-4.1-10.4-9.6-10.4h-47.6c-5.5 0-9.8 4.9-9.8 10.4v27.6h-11v-104h91v104z"/><path d="M351.2 360.628h40c5.5 0 10-4.5 10-10s-4.5-10-10-10h-40c-5.5 0-10 4.5-10 10s4.5 10 10 10zm0 28h40c5.5 0 10-4.5 10-10s-4.5-10-10-10h-40c-5.5 0-10 4.5-10 10s4.5 10 10 10z"/></symbol><symbol viewBox="0 0 480.001 480" id="gears-colour" xmlns="http://www.w3.org/2000/svg"><path d="M405.04 141.84l21.6-43.281-45.199-45.2-43.28 21.602a191.334 191.334 0 00-50.88-21.04L272 8h-64l-15.281 45.922a191.334 191.334 0 00-50.88 21.039L98.56 53.359l-45.2 45.2 21.602 43.28a191.205 191.205 0 00-21.04 50.88L8 208v64l45.922 15.281a191.152 191.152 0 0021.039 50.88l-21.602 43.28 45.2 45.2 43.28-21.602a191.344 191.344 0 0050.88 21.043L208 472h64l13.52-40.719A103.128 103.128 0 01264 368c-.016-3.5.172-7 .559-10.48A124.037 124.037 0 01240 360c-66.273 0-120-53.727-120-120s53.727-120 120-120 120 53.727 120 120c-.008 8.25-.84 16.477-2.48 24.559 3.48-.387 6.98-.575 10.48-.559 22.898-.05 45.16 7.52 63.281 21.52L472 272v-64l-45.922-15.281a191.205 191.205 0 00-21.039-50.88zm0 0" fill="#ff5023"/><path d="M357.52 264.559A124.037 124.037 0 00360 240c0-66.273-53.727-120-120-120s-120 53.727-120 120 53.727 120 120 120c8.25-.008 16.477-.84 24.559-2.48 4.992-49.125 43.836-87.97 92.96-92.961zm0 0" fill="#fff3c1"/><path d="M357.52 264.559c-49.125 4.992-87.97 43.836-92.961 92.96A91.228 91.228 0 00264 368c.027 57.398 46.57 103.914 103.969 103.906 57.398-.011 103.926-46.539 103.933-103.937C471.914 310.57 425.398 264.027 368 264c-3.5-.016-7 .172-10.48.559zm72.703 63.84L390.625 368l39.598 39.602-22.621 22.62L368 390.626l-39.602 39.598-22.62-22.621L345.374 368l-39.598-39.602 22.621-22.62L368 345.374l39.602-39.598zm0 0" fill="#ffda44"/><path d="M328.398 305.777l-22.62 22.621L345.374 368l-39.598 39.602 22.621 22.62L368 390.626l39.602 39.598 22.62-22.621L390.626 368l39.598-39.602-22.621-22.62L368 345.374zm0 0" fill="#d80027"/><g fill="#231f20"><path d="M480 202.23l-47.29-15.734a199.592 199.592 0 00-18.589-44.894l22.246-44.594-53.344-53.383-44.582 22.254a199.63 199.63 0 00-44.937-18.59L277.77 0h-75.54l-15.734 47.29a199.592 199.592 0 00-44.894 18.589L96.977 43.625 43.633 96.977l22.246 44.625a199.647 199.647 0 00-18.59 44.925L0 202.23v75.54l47.29 15.734a199.592 199.592 0 0018.589 44.894l-22.246 44.625 53.344 53.352 44.625-22.254a199.526 199.526 0 0044.933 18.59L202.23 480h75.547l10.95-32.984A110.83 110.83 0 00368 480c61.828-.066 111.934-50.172 112-112a110.84 110.84 0 00-32.977-79.273L480 277.777zM368 464c-52.992-.063-95.938-43.008-96-96a83.57 83.57 0 01.52-9.688 97.595 97.595 0 011.207-8.367c8.035-41.675 42.449-73.148 84.671-77.433h.106A79.526 79.526 0 01368 272c2.668 0 5.316.105 7.953.32 49.734 4.207 87.98 45.77 88.047 95.68-.059 52.996-43.004 95.941-96 96zm-17.328-206.625c-.64.098-1.266.266-1.902.379-1.434.246-2.84.535-4.258.797-1.657.355-3.305.738-4.926 1.16-1.399.371-2.79.762-4.172 1.176-1.598.488-3.2 1.008-4.726 1.601-1.352.48-2.704.977-4 1.504-1.528.61-3.032 1.274-4.536 1.945-1.297.59-2.593 1.168-3.863 1.801-1.48.735-2.922 1.535-4.36 2.324-1.234.692-2.472 1.356-3.671 2.083-1.418.855-2.785 1.777-4.16 2.695-1.153.8-2.328 1.512-3.457 2.328-1.375.992-2.688 2.055-4 3.113-1.047.801-2.13 1.598-3.145 2.489-1.45 1.238-2.816 2.558-4.2 3.863a136.301 136.301 0 00-4.862 4.879c-1.204 1.281-2.403 2.535-3.563 3.87-1 1.169-1.918 2.403-2.871 3.618s-1.848 2.305-2.71 3.496c-.864 1.191-1.794 2.64-2.673 4a98.938 98.938 0 00-2.336 3.602c-.8 1.367-1.601 2.78-2.402 4.199-.688 1.254-1.383 2.496-2.024 3.777-.718 1.438-1.375 2.903-2.039 4.375a119.613 119.613 0 00-1.718 4 103.812 103.812 0 00-1.664 4.473 115.146 115.146 0 00-1.426 4.3 106.69 106.69 0 00-1.266 4.473c-.39 1.504-.797 3.121-1.11 4.696a120.425 120.425 0 00-.855 4.347c-.113.653-.28 1.293-.386 1.957A115.694 115.694 0 01240 352c-61.855 0-112-50.145-112-112s50.145-112 112-112 112 50.145 112 112a115.51 115.51 0 01-1.328 17.375zM464 266.223l-31.297 10.402c-.719-.512-1.48-.96-2.215-1.457-1.129-.8-2.258-1.512-3.398-2.23a112.795 112.795 0 00-4.18-2.473 105.096 105.096 0 00-3.558-1.961c-1.43-.742-2.887-1.43-4.344-2.113-1.223-.567-2.399-1.141-3.672-1.664-1.496-.63-3.016-1.192-4.527-1.75-1.25-.465-2.48-.946-3.739-1.36-1.597-.52-3.199-.96-4.797-1.41-1.242-.344-2.457-.719-3.707-1.023-1.703-.407-3.43-.727-5.152-1.063-1.184-.226-2.352-.496-3.543-.687-1.941-.313-3.91-.512-5.879-.723-1-.102-1.984-.262-2.984-.344A112.63 112.63 0 00368 256h-1.113A130.5 130.5 0 00368 240c0-70.691-57.309-128-128-128s-128 57.309-128 128 57.309 128 128 128a132.005 132.005 0 0016-1.105V368c0 3.031.129 6.04.36 9.023.081.993.242 1.97.343 2.954.207 1.984.41 3.96.723 5.918.191 1.18.453 2.335.687 3.515.328 1.727.649 3.461 1.063 5.168.304 1.254.68 2.477 1.031 3.719.441 1.598.883 3.2 1.402 4.758.414 1.28.903 2.53 1.368 3.793.558 1.488 1.101 2.984 1.726 4.449.535 1.281 1.129 2.527 1.711 3.785.664 1.414 1.328 2.824 2.05 4.215a113.19 113.19 0 002.032 3.695c.8 1.352 1.55 2.696 2.399 4 .847 1.305 1.539 2.399 2.335 3.567.48.707.907 1.433 1.403 2.129L266.223 464H213.77l-14.848-44.617-4.258-1.063a183.43 183.43 0 01-48.754-20.16l-3.742-2.222-42.023 20.968-37.055-37.058 20.972-42.016-2.222-3.75a183.69 183.69 0 01-20.16-48.746l-1.063-4.254L16 266.23v-52.46l44.617-14.848 1.063-4.258a183.612 183.612 0 0120.16-48.742l2.222-3.754-20.972-42.016 37.055-37.054 42.023 20.965 3.742-2.223a183.43 183.43 0 0148.754-20.16l4.258-1.063L213.77 16h52.46l14.848 44.617 4.258 1.063a183.43 183.43 0 0148.754 20.16l3.742 2.223 42.023-20.965 37.055 37.054-20.973 42.016 2.223 3.754a183.612 183.612 0 0120.16 48.742l1.063 4.258L464 213.77zm0 0"/><path d="M407.602 294.465L368 334.063l-39.602-39.598-33.933 33.933L334.055 368l-39.59 39.602 33.933 33.933L368 401.937l39.602 39.598 33.933-33.933L401.945 368l39.59-39.602zm11.308 113.137l-11.308 11.312L368 379.313l-39.602 39.601-11.308-11.312L356.68 368l-39.59-39.602 11.308-11.308L368 356.688l39.602-39.598 11.308 11.308L379.32 368zm0 0"/></g></symbol><symbol viewBox="0 -27 512 511" id="search-colour" xmlns="http://www.w3.org/2000/svg"><path d="M424 202.5h48c16.57 0 30-13.43 30-30v-132c0-16.57-13.43-30-30-30H40c-16.57 0-30 13.43-30 30v132c0 16.57 13.43 30 30 30zm0 0" fill="#ffc66c"/><path d="M378.094 358.406l83.09 83.09c9.34 9.34 24.476 9.34 33.812 0 9.34-9.336 9.34-24.473 0-33.809l-83.09-83.093zm0 0" fill="#ff5d5d"/><path d="M430.004 256.5c0 66.273-53.727 120-120 120-66.274 0-120-53.727-120-120s53.726-120 120-120c66.273 0 120 53.727 120 120zm0 0" fill="#fff"/><path d="M388.004 256.5c0 43.078-34.922 78-78 78s-78-34.922-78-78 34.922-78 78-78 78 34.922 78 78zm0 0" fill="#72d8ff"/><path d="M310.004 168.5c-48.524 0-88 39.477-88 88s39.476 88 88 88c48.523 0 88-39.477 88-88s-39.477-88-88-88zm0 156c-37.496 0-68-30.504-68-68s30.504-68 68-68 68 30.504 68 68-30.504 68-68 68zm0 0"/><path d="M310.004 211.504c-5.524 0-10 4.476-10 10 0 5.523 4.476 10 10 10 13.781 0 24.996 11.215 24.996 24.996 0 5.523 4.477 10 10 10s10-4.477 10-10c0-24.813-20.184-44.996-44.996-44.996zM61.645 75.902c-2.54-4.902-8.57-6.82-13.477-4.285-4.906 2.54-6.824 8.574-4.285 13.48l26.918 52c1.742 3.368 5.265 5.426 9.031 5.403a10.004 10.004 0 008.863-5.672l16.297-33.93 17.7 34.2a10.009 10.009 0 008.882 5.402h.149a10.01 10.01 0 008.867-5.672l24.972-52c2.391-4.976.293-10.953-4.683-13.344-4.98-2.39-10.953-.293-13.344 4.688l-16.297 33.93-17.703-34.2c-1.742-3.367-5.258-5.433-9.027-5.402a10.005 10.005 0 00-8.867 5.672l-16.293 33.93zM125.988 20.5c2.633 0 5.211-1.07 7.07-2.93 1.864-1.86 2.93-4.441 2.93-7.07s-1.066-5.21-2.93-7.07a10.073 10.073 0 00-7.07-2.93 10.07 10.07 0 00-7.066 2.93c-1.863 1.86-2.934 4.441-2.934 7.07s1.07 5.21 2.934 7.07a10.07 10.07 0 007.066 2.93zm0 0"/><path d="M512 172.5v-132c0-22.055-17.945-40-40-40H167.988c-5.52 0-10 4.477-10 10s4.48 10 10 10H472c11.027 0 20 8.973 20 20v132c0 11.027-8.973 20-20 20h-48c-.29 0-.57.02-.852.043-15.433-27.195-40.382-48.305-70.293-58.777l14.825-30.864 17.703 34.196a9.991 9.991 0 008.879 5.402h.152a10.004 10.004 0 008.863-5.672l24.973-52c2.39-4.976.293-10.95-4.684-13.34-4.976-2.394-10.953-.297-13.343 4.684l-16.293 33.93-17.703-34.2c-1.743-3.367-5.254-5.433-9.032-5.398a9.988 9.988 0 00-8.863 5.668l-16.297 33.93-17.7-34.2c-2.538-4.902-8.573-6.82-13.48-4.28-4.906 2.538-6.82 8.57-4.285 13.476l22.133 42.754a130.581 130.581 0 00-18.695-1.352 129.72 129.72 0 00-35.477 4.922l22.38-46.594c2.39-4.976.292-10.95-4.688-13.34-4.977-2.394-10.953-.297-13.34 4.684l-16.297 33.93-17.703-34.2c-1.742-3.367-5.238-5.433-9.031-5.398a9.993 9.993 0 00-8.864 5.668l-16.293 33.93-17.703-34.2c-2.539-4.902-8.57-6.82-13.476-4.28a9.997 9.997 0 00-4.286 13.476l26.918 52c1.743 3.367 5.25 5.425 9.032 5.402a10.004 10.004 0 008.863-5.672l16.297-33.926 17.7 34.196c.296.574.66 1.093 1.054 1.59-24.524 11.476-44.899 30.382-58.207 53.812H40c-11.027 0-20-8.973-20-20v-132c0-11.027 8.973-20 20-20h40.992c5.524 0 10-4.477 10-10s-4.476-10-10-10H40C17.945.5 0 18.445 0 40.5v132c0 22.059 17.945 40 40 40h147.676c-4.961 13.75-7.672 28.563-7.672 44 0 71.684 58.316 130 130 130 23.555 0 45.668-6.297 64.742-17.297l79.367 79.367c6.61 6.61 15.293 9.914 23.977 9.914s17.367-3.304 23.976-9.914c13.223-13.222 13.223-34.734 0-47.957l-31.183-31.183c-3.906-3.903-10.238-3.907-14.14 0a9.996 9.996 0 000 14.14l31.183 31.188c5.422 5.422 5.422 14.246 0 19.672-5.422 5.422-14.246 5.422-19.668 0l-76.738-76.742c29.546-23.848 48.484-60.344 48.484-101.188 0-15.437-2.711-30.25-7.672-44H472c22.059 0 40-17.945 40-40zm-201.996 194c-60.652 0-110-49.348-110-110s49.348-110 110-110 110 49.348 110 110-49.344 110-110 110zm0 0"/><path d="M433.02 345.71a10.073 10.073 0 00-2.93 7.071c0 2.63 1.07 5.207 2.93 7.07 1.87 1.86 4.44 2.93 7.07 2.93s5.21-1.07 7.07-2.93a10.037 10.037 0 002.93-7.07c0-2.633-1.059-5.21-2.93-7.07a10.059 10.059 0 00-7.07-2.93 10.08 10.08 0 00-7.07 2.93zm0 0"/></symbol></svg>