<?xml version="1.0" encoding="utf-8"?><svg xmlns="http://www.w3.org/2000/svg" xmlns:xlink="http://www.w3.org/1999/xlink"><symbol viewBox="0 0 512 512" id="arrow-ico" xmlns="http://www.w3.org/2000/svg"><path d="M508.875 248.458l-160-160c-4.167-4.167-10.917-4.167-15.083 0-4.167 4.167-4.167 10.917 0 15.083l141.792 141.792H10.667C4.771 245.333 0 250.104 0 256s4.771 10.667 10.667 10.667h464.917L333.792 408.458c-4.167 4.167-4.167 10.917 0 15.083a10.634 10.634 0 007.542 3.125c2.729 0 5.458-1.042 7.542-3.125l160-160c4.166-4.166 4.166-10.916-.001-15.083z"/></symbol><symbol viewBox="0 0 512 512" id="bug-ico" xmlns="http://www.w3.org/2000/svg"><path d="M497.229 260.925h-88.615v-30.708c44.584-7.102 78.769-45.816 78.769-92.368v-19.692c0-8.156-6.613-14.769-14.769-14.769s-14.769 6.613-14.769 14.769v19.692c0 30.206-21.04 55.573-49.23 62.261v-13.03c0-13.573-11.042-24.615-24.615-24.615h-14.77v-54.153c0-31.066-22.254-57.024-51.656-62.793l10.998-24.746c3.313-7.453-.044-16.182-7.498-19.494-7.455-3.314-16.182.044-19.494 7.498l-15.794 35.536h-59.573L210.42 8.775c-3.312-7.453-12.041-10.811-19.494-7.498-7.453 3.312-10.81 12.041-7.498 19.494l10.998 24.746c-29.401 5.77-51.655 31.726-51.655 62.793v54.153h-14.769c-13.573 0-24.615 11.042-24.615 24.615v13.03c-28.19-6.687-49.23-32.055-49.23-62.261v-19.692c0-8.156-6.613-14.769-14.769-14.769s-14.769 6.613-14.769 14.769v19.692c0 46.552 34.185 85.265 78.769 92.368v30.708H14.771c-8.156 0-14.769 6.613-14.769 14.769s6.613 14.769 14.769 14.769h88.615v30.708c-44.584 7.102-78.769 45.816-78.769 92.368v19.692c0 8.156 6.613 14.769 14.769 14.769s14.769-6.613 14.769-14.769v-19.692c0-30.206 21.04-55.573 49.23-62.261v8.107C103.386 443.537 171.849 512 256 512s152.614-68.463 152.614-152.614v-8.107c28.19 6.688 49.23 32.055 49.23 62.261v19.692c0 8.156 6.613 14.769 14.769 14.769s14.769-6.613 14.769-14.769V413.54c0-46.552-34.185-85.265-78.769-92.368v-30.708h88.615c8.156 0 14.769-6.613 14.769-14.769s-6.612-14.77-14.768-14.77zM172.308 108.311c0-19.002 15.459-34.461 34.461-34.461h98.461c19.002 0 34.461 15.459 34.461 34.461v54.153H172.308v-54.153zm206.768 251.075c0 67.864-55.212 123.076-123.076 123.076S132.924 427.25 132.924 359.386V192.003h108.307v142.768c0 8.156 6.613 14.769 14.769 14.769s14.769-6.613 14.769-14.769V192.003h108.307v167.383z"/></symbol><symbol viewBox="0 -53 15 15" id="burger-menu-ico" xmlns="http://www.w3.org/2000/svg"><path d="M368 154.668H16c-8.832 0-16-7.168-16-16s7.168-16 16-16h352c8.832 0 16 7.168 16 16s-7.168 16-16 16zM368 32H16C7.168 32 0 24.832 0 16S7.168 0 16 0h352c8.832 0 16 7.168 16 16s-7.168 16-16 16zm0 245.332H16c-8.832 0-16-7.168-16-16s7.168-16 16-16h352c8.832 0 16 7.168 16 16s-7.168 16-16 16zm0 0"/></symbol><symbol viewBox="0 0 512 512" id="camera-ico" xmlns="http://www.w3.org/2000/svg"><path d="M402 166c-5.52 0-10 4.48-10 10s4.48 10 10 10 10-4.48 10-10-4.48-10-10-10z"/><path d="M482 126H372.18l-31.706-63.413C335.357 52.356 325.075 46 313.64 46H198.36c-11.437 0-21.719 6.356-26.834 16.588L139.82 126H120v-10c0-16.542-13.458-30-30-30H70c-16.542 0-30 13.458-30 30v10H30c-16.542 0-30 13.458-30 30v280c0 16.542 13.458 30 30 30h452c16.542 0 30-13.458 30-30V156c0-16.542-13.458-30-30-30zM189.415 71.532A9.948 9.948 0 01198.36 66h115.28a9.95 9.95 0 018.946 5.532L349.82 126H162.18l27.235-54.468zM60 116c0-5.514 4.486-10 10-10h20c5.514 0 10 4.486 10 10v10H60v-10zM20 225.9h126.451C133.161 246.661 126 270.992 126 296c0 25.01 7.162 49.243 20.45 70H20V225.9zM256 186c60.133 0 110 48.719 110 110 0 61.212-49.797 110-110 110-60.257 0-110-48.842-110-110 0-61.205 49.79-110 110-110zm236 250c0 5.514-4.486 10-10 10H30c-5.514 0-10-4.486-10-10v-50h142.226c24.435 25.472 58.349 40 93.774 40 35.431 0 69.348-14.532 93.775-40H492v50zm0-70H365.549C378.839 345.239 386 321.009 386 296s-7.161-49.239-20.451-70H492v140zm0-160H349.774c-24.434-25.472-58.348-40-93.774-40-35.43 0-69.347 14.532-93.775 40H20v-50c0-5.514 4.486-10 10-10h452c5.514 0 10 4.486 10 10v50z"/><path d="M286 86h-60c-5.523 0-10 4.477-10 10s4.477 10 10 10h60c5.522 0 10-4.477 10-10s-4.478-10-10-10zm-30 120c-49.626 0-90 40.374-90 90s40.374 90 90 90 90-40.374 90-90-40.374-90-90-90zm0 160c-38.598 0-70-31.402-70-70s31.402-70 70-70 70 31.402 70 70-31.402 70-70 70z"/><path d="M256 246c-27.57 0-50 22.43-50 50 0 5.523 4.477 10 10 10s10-4.477 10-10c0-16.542 13.458-30 30-30 5.522 0 10-4.477 10-10s-4.478-10-10-10zm206-80h-20c-5.522 0-10 4.477-10 10s4.478 10 10 10h20c5.522 0 10-4.477 10-10s-4.478-10-10-10z"/></symbol><symbol viewBox="0 0 413.348 413.348" id="close-ico" xmlns="http://www.w3.org/2000/svg"><path d="M413.348 24.354L388.994 0l-182.32 182.32L24.354 0 0 24.354l182.32 182.32L0 388.994l24.354 24.354 182.32-182.32 182.32 182.32 24.354-24.354-182.32-182.32z"/></symbol><symbol viewBox="0 0 512 512" id="facebook-ico" xmlns="http://www.w3.org/2000/svg"><path d="M297.277 508.668zm5.121-.875c-1.02.187-2.039.36-3.058.535 1.02-.176 2.039-.348 3.058-.535zm-17.261 2.547zm4.918-.602zm19.312-3.328zm17.297-4.297c-.726.207-1.453.403-2.18.606.727-.203 1.454-.399 2.18-.606zm-5.23 1.43c-.79.207-1.582.418-2.375.617.793-.2 1.586-.406 2.375-.617zm-6.844 1.711c-.836.195-1.68.379-2.524.566.844-.187 1.688-.37 2.524-.566zm-37.063 5.836zM512 256C512 114.637 397.363 0 256 0S0 114.637 0 256s114.637 256 256 256c1.504 0 3-.031 4.5-.059V312.656h-55V248.56h55v-47.17c0-54.703 33.395-84.477 82.191-84.477 23.368 0 43.454 1.742 49.309 2.52v57.171h-33.648c-26.547 0-31.688 12.618-31.688 31.13v40.824h63.477l-8.274 64.097h-55.203V502.11C433.668 471.434 512 372.852 512 256zM272.914 511.43zm-8.16.406zm0 0"/></symbol><symbol viewBox="0 0 512 512" id="gears-transp-ico" xmlns="http://www.w3.org/2000/svg"><path d="M262.785 317.207a8.084 8.084 0 00-10.769-3.837 128.725 128.725 0 01-20.448 7.648 8.08 8.08 0 00-5.748 6.2l-8.552 42.758a9.088 9.088 0 01-8.888 7.287h-23.329a9.088 9.088 0 01-8.888-7.287l-8.552-42.758a8.084 8.084 0 00-5.748-6.2 128.448 128.448 0 01-28.391-11.764 8.086 8.086 0 00-8.452.317l-36.286 24.19c-3.582 2.388-8.392 1.911-11.438-1.133L60.8 316.131c-3.045-3.045-3.52-7.855-1.133-11.438l24.19-36.286a8.081 8.081 0 00.317-8.452 128.411 128.411 0 01-11.764-28.391 8.08 8.08 0 00-6.2-5.748l-42.758-8.552a9.088 9.088 0 01-7.287-8.888v-23.329a9.088 9.088 0 017.287-8.888l42.758-8.552a8.084 8.084 0 006.2-5.748 128.448 128.448 0 0111.764-28.391 8.086 8.086 0 00-.317-8.452L59.669 88.734a9.09 9.09 0 011.133-11.438L77.298 60.8c3.045-3.045 7.856-3.52 11.438-1.133l36.286 24.19a8.083 8.083 0 008.452.317 128.448 128.448 0 0128.391-11.764 8.08 8.08 0 005.748-6.2l8.552-42.758a9.088 9.088 0 018.888-7.287h23.329a9.088 9.088 0 018.888 7.287l8.552 42.758a8.084 8.084 0 005.748 6.2 128.448 128.448 0 0128.391 11.764 8.086 8.086 0 008.452-.317l36.286-24.19c3.582-2.388 8.391-1.911 11.438 1.133l16.496 16.496c3.045 3.045 3.52 7.855 1.133 11.438l-24.19 36.286a8.081 8.081 0 00-.317 8.452 128.448 128.448 0 0111.764 28.391 8.08 8.08 0 006.2 5.748l42.758 8.552a9.088 9.088 0 017.287 8.888v23.329a9.088 9.088 0 01-7.287 8.888l-42.758 8.552a8.084 8.084 0 00-6.2 5.75 128.672 128.672 0 01-7.88 20.934 8.083 8.083 0 003.791 10.785 8.082 8.082 0 0010.785-3.791 144.997 144.997 0 007.442-18.777l37.991-7.598c11.749-2.352 20.279-12.758 20.279-24.744V185.05c0-11.986-8.53-22.391-20.284-24.743l-37.99-7.598a144.66 144.66 0 00-9.434-22.769l21.492-32.239c6.648-9.973 5.323-23.363-3.153-31.839l-16.496-16.496c-8.477-8.476-21.867-9.8-31.839-3.153l-32.239 21.492a144.755 144.755 0 00-22.769-9.434l-7.598-37.99C230.772 8.53 220.366 0 208.38 0h-23.329c-11.986 0-22.391 8.53-24.743 20.284l-7.598 37.99a144.66 144.66 0 00-22.769 9.434L97.704 46.216c-9.972-6.648-23.363-5.324-31.839 3.153L49.369 65.865c-8.475 8.476-9.801 21.865-3.153 31.839l21.492 32.239a144.716 144.716 0 00-9.434 22.769l-37.991 7.598C8.53 162.66 0 173.066 0 185.052v23.329c0 11.986 8.53 22.391 20.284 24.743l37.99 7.598a144.644 144.644 0 009.434 22.769L46.216 295.73c-6.648 9.973-5.323 23.363 3.153 31.839l16.496 16.496c8.476 8.476 21.866 9.8 31.839 3.153l32.239-21.492a144.716 144.716 0 0022.769 9.434l7.598 37.992c2.35 11.75 12.756 20.281 24.742 20.281h23.329c11.986 0 22.391-8.53 24.743-20.284l7.598-37.99a144.831 144.831 0 0018.228-7.18 8.085 8.085 0 003.835-10.772z"/><path d="M266.739 241.636a8.083 8.083 0 0010.882-3.504c6.52-12.715 9.967-27.036 9.967-41.415 0-50.107-40.765-90.873-90.873-90.873-23.838 0-46.364 9.162-63.43 25.801a8.084 8.084 0 0011.285 11.577c14.029-13.676 32.547-21.209 52.143-21.209 41.192 0 74.705 33.512 74.705 74.705 0 11.994-2.754 23.446-8.185 34.038a8.084 8.084 0 003.506 10.88zm-145.696-79.511a8.083 8.083 0 00-10.274 5.014 90.728 90.728 0 00-4.924 29.577c0 50.108 40.766 90.873 90.873 90.873 19.271 0 37.683-5.956 53.247-17.227a8.086 8.086 0 00-9.483-13.097c-12.788 9.259-27.921 14.154-43.765 14.154-41.193 0-74.705-33.513-74.705-74.705 0-8.334 1.36-16.517 4.044-24.318a8.08 8.08 0 00-5.013-10.271zm375.399 191.191l-23.377-4.675a97.791 97.791 0 00-5.127-12.373l13.226-19.838c5.099-7.65 4.083-17.92-2.418-24.42l-10.84-10.84c-6.501-6.5-16.771-7.517-24.42-2.418l-19.838 13.226a97.639 97.639 0 00-12.373-5.126l-4.675-23.377c-1.803-9.015-9.784-15.558-18.977-15.558h-15.331c-9.192 0-17.174 6.543-18.977 15.558l-4.675 23.377a97.933 97.933 0 00-12.373 5.126l-19.838-13.226c-7.65-5.098-17.92-4.083-24.42 2.418l-10.84 10.84c-6.501 6.501-7.517 16.771-2.418 24.42l13.226 19.838a97.706 97.706 0 00-6.605 17.177 8.086 8.086 0 0015.571 4.357 81.578 81.578 0 017.476-18.043 8.086 8.086 0 00-.317-8.452l-15.897-23.845a3.194 3.194 0 01.398-4.019l10.84-10.84a3.198 3.198 0 014.019-.398l23.845 15.897a8.083 8.083 0 008.452.317 81.598 81.598 0 0118.043-7.476 8.08 8.08 0 005.748-6.2l5.619-28.097a3.193 3.193 0 013.123-2.56h15.331a3.195 3.195 0 013.123 2.56l5.619 28.099a8.084 8.084 0 005.748 6.2 81.578 81.578 0 0118.043 7.476 8.086 8.086 0 008.452-.317l23.845-15.897a3.193 3.193 0 014.019.398l10.84 10.84a3.196 3.196 0 01.398 4.019l-15.897 23.845a8.081 8.081 0 00-.317 8.452 81.598 81.598 0 017.476 18.043 8.08 8.08 0 006.2 5.748l28.097 5.619a3.193 3.193 0 012.56 3.123v15.331a3.195 3.195 0 01-2.56 3.123l-28.099 5.619a8.084 8.084 0 00-6.2 5.748 81.578 81.578 0 01-7.476 18.043 8.086 8.086 0 00.317 8.452l15.897 23.845a3.194 3.194 0 01-.398 4.019l-10.84 10.84a3.195 3.195 0 01-4.019.398l-23.845-15.897a8.086 8.086 0 00-8.452-.317 81.598 81.598 0 01-18.043 7.476 8.08 8.08 0 00-5.748 6.2l-5.619 28.097a3.193 3.193 0 01-3.123 2.56H372.29a3.195 3.195 0 01-3.123-2.56l-5.619-28.099a8.084 8.084 0 00-5.748-6.2 81.578 81.578 0 01-18.043-7.476 8.085 8.085 0 00-8.452.317L307.46 467.71a3.193 3.193 0 01-4.019-.398l-10.84-10.84a3.196 3.196 0 01-.398-4.019l15.897-23.845a8.081 8.081 0 00.317-8.452 81.598 81.598 0 01-7.476-18.043 8.08 8.08 0 00-6.2-5.748l-28.097-5.619a3.193 3.193 0 01-2.56-3.123v-15.331a3.195 3.195 0 012.56-3.123l1.72-.344a8.083 8.083 0 006.341-9.513c-.876-4.378-5.13-7.213-9.514-6.341l-1.72.344c-9.013 1.804-15.556 9.785-15.556 18.978v15.331c0 9.192 6.543 17.174 15.558 18.977l23.377 4.675a97.933 97.933 0 005.126 12.373l-13.226 19.838c-5.1 7.65-4.083 17.92 2.418 24.42l10.84 10.84c6.501 6.501 16.771 7.517 24.42 2.418l19.838-13.226a97.639 97.639 0 0012.373 5.126l4.675 23.377C355.119 505.457 363.1 512 372.293 512h15.331c9.192 0 17.174-6.543 18.977-15.558l4.675-23.377a97.791 97.791 0 0012.373-5.127l19.838 13.226c7.65 5.099 17.92 4.083 24.42-2.418l10.84-10.84c6.501-6.501 7.517-16.771 2.418-24.42l-13.226-19.838a97.639 97.639 0 005.126-12.373l23.377-4.675c9.014-1.803 15.557-9.784 15.557-18.977v-15.331c.001-9.192-6.542-17.173-15.557-18.976z"/><path d="M379.958 350.855c16.048 0 29.103 13.055 29.103 29.103a8.084 8.084 0 0016.168 0c0-24.963-20.309-45.272-45.272-45.272s-45.272 20.309-45.272 45.272 20.309 45.272 45.272 45.272c10.111 0 19.675-3.261 27.659-9.429a8.086 8.086 0 00-9.886-12.796c-5.128 3.961-11.274 6.056-17.773 6.056-16.048 0-29.103-13.055-29.103-29.103.001-16.049 13.056-29.103 29.104-29.103zM245.969 196.716c0-27.158-22.096-49.253-49.253-49.253-27.158 0-49.253 22.096-49.253 49.253 0 27.158 22.095 49.253 49.253 49.253s49.253-22.096 49.253-49.253zm-82.338 0c0-18.242 14.843-33.085 33.085-33.085s33.085 14.843 33.085 33.085-14.842 33.085-33.085 33.085c-18.244 0-33.085-14.843-33.085-33.085z"/></symbol><symbol viewBox="0 0 24 24" id="google-plus-ico" xmlns="http://www.w3.org/2000/svg"><path d="M12 24c6.624 0 12-5.376 12-12S18.624 0 12 0 0 5.376 0 12s5.376 12 12 12zm4.283-12.857h1.718V9.426h1.718v1.718h1.703v1.718h-1.703v1.718h-1.718v-1.718h-1.718zM8.579 5.999c1.514 0 2.908.533 4.017 1.563L10.97 9.14c-.639-.625-1.514-.924-2.391-.924-2.076 0-3.736 1.718-3.736 3.779s1.655 3.779 3.736 3.779c1.577 0 3.14-.924 3.392-2.579H8.579v-2.061h5.657c.063.329.092.658.092 1.001 0 3.426-2.299 5.864-5.749 5.864V18c-3.329 0-6.001-2.686-6.001-6.001s2.672-6 6.001-6z"/></symbol><symbol viewBox="0 0 512 512" id="linkedin-ico" xmlns="http://www.w3.org/2000/svg"><path d="M256 0C114.637 0 0 114.637 0 256s114.637 256 256 256 256-114.637 256-256S397.363 0 256 0zm-74.39 387h-62.348V199.426h62.347zm-31.173-213.188h-.406c-20.922 0-34.453-14.402-34.453-32.402 0-18.406 13.945-32.41 35.274-32.41 21.328 0 34.453 14.004 34.859 32.41 0 18-13.531 32.403-35.274 32.403zM406.423 387h-62.34V286.652c0-25.218-9.027-42.418-31.586-42.418-17.223 0-27.48 11.602-31.988 22.801-1.649 4.008-2.051 9.61-2.051 15.215V387h-62.344s.817-169.977 0-187.574h62.344v26.558c8.285-12.78 23.11-30.96 56.188-30.96 41.02 0 71.777 26.808 71.777 84.421zm0 0"/></symbol><symbol viewBox="0 0 512 512" id="magnet-ico" xmlns="http://www.w3.org/2000/svg"><path d="M480 0H368c-8.837 0-16 7.163-16 16v256c0 53.019-42.981 96-96 96s-96-42.981-96-96V16c0-8.837-7.163-16-16-16H32c-8.837 0-16 7.163-16 16v256c0 132.548 107.452 240 240 240s240-107.452 240-240V16c0-8.837-7.163-16-16-16zM48 32h80v48H48V32zm416 240c0 114.875-93.125 208-208 208S48 386.875 48 272v-96h80v96c0 70.692 57.308 128 128 128s128-57.308 128-128v-96h80v96zm0-192h-80V32h80v48z"/></symbol><symbol viewBox="0 0 492.004 492.004" id="next-arrow-ico" xmlns="http://www.w3.org/2000/svg"><path d="M382.678 226.804L163.73 7.86C158.666 2.792 151.906 0 144.698 0s-13.968 2.792-19.032 7.86l-16.124 16.12c-10.492 10.504-10.492 27.576 0 38.064L293.398 245.9l-184.06 184.06c-5.064 5.068-7.86 11.824-7.86 19.028 0 7.212 2.796 13.968 7.86 19.04l16.124 16.116c5.068 5.068 11.824 7.86 19.032 7.86s13.968-2.792 19.032-7.86L382.678 265c5.076-5.084 7.864-11.872 7.848-19.088.016-7.244-2.772-14.028-7.848-19.108z"/></symbol><symbol viewBox="0 0 512 512" id="plus-ico" xmlns="http://www.w3.org/2000/svg"><path d="M492 236H276V20c0-11.046-8.954-20-20-20s-20 8.954-20 20v216H20c-11.046 0-20 8.954-20 20s8.954 20 20 20h216v216c0 11.046 8.954 20 20 20s20-8.954 20-20V276h216c11.046 0 20-8.954 20-20s-8.954-20-20-20z"/></symbol><symbol viewBox="0 0 511.999 511.999" id="samsung-logo" xmlns="http://www.w3.org/2000/svg"><path d="M155.13 231.017a1.653 1.653 0 00-1.627-1.355h-20.269c-.953 0-1.77.68-1.943 1.617l-9.219 50.039a.872.872 0 00.858 1.03h12.153c.546 0 1.01-.4 1.091-.94l6.798-45.319c.064-.429.683-.427.745.001l6.611 45.166a1.277 1.277 0 001.263 1.092h11.864a.911.911 0 00.896-1.075l-9.221-50.256zm76.983-.227a1.153 1.153 0 00-1.153-1.127h-18.868c-.777 0-1.44.564-1.563 1.332l-5.885 36.652c-.094.584-.934.584-1.028 0l-5.866-36.537a1.72 1.72 0 00-1.698-1.447h-18.357c-.86 0-1.563.688-1.582 1.548l-1.079 49.753a1.356 1.356 0 001.356 1.385h10.669v-.001c.578 0 1.047-.466 1.052-1.044l.331-44.979c.002-.317.462-.358.52-.045l8.206 44.451a1.977 1.977 0 001.944 1.618h10.544c.639 0 1.186-.456 1.302-1.084l8.362-45.245c.052-.282.468-.246.47.042l.328 44.571c.007.95.779 1.716 1.729 1.716h9.604c.995 0 1.796-.819 1.774-1.814l-1.112-49.745zm51.03 32.896c-2.164-10.93-21.816-14.217-23.308-20.305-.227-1.052-.172-2.159-.051-2.73.384-1.684 1.512-3.524 4.758-3.524 3.023 0 4.798 1.901 4.798 4.737v1.875c0 .74.6 1.341 1.341 1.341h10.129c.802 0 1.453-.65 1.453-1.452v-2.203c0-11.36-10.116-13.14-17.457-13.14-9.221 0-16.754 3.064-18.145 11.593-.364 2.321-.45 4.388.131 7.022 2.245 10.652 20.689 13.746 23.358 20.477.47 1.274.339 2.902.096 3.873-.4 1.749-1.567 3.504-5.051 3.504-3.256 0-5.223-1.886-5.223-4.727v-3.754c0-.72-.583-1.302-1.301-1.302H247.16c-.608 0-1.101.493-1.101 1.101v2.923c0 11.644 9.075 15.147 18.844 15.147 9.368 0 17.098-3.2 18.337-11.922.585-4.504.14-7.437-.097-8.534zm49.359 3.747v-35.968c0-.996-.808-1.804-1.804-1.804h-9.827c-.892 0-1.615.723-1.615 1.615v37.365c.025.672 0 1.446-.116 2.002-.278 1.304-1.375 3.823-5.03 3.823-3.615 0-4.747-2.518-5-3.823-.131-.556-.156-1.33-.131-2.002v-37.147h-.001a1.833 1.833 0 00-1.833-1.833h-9.39a2.023 2.023 0 00-2.023 2.023v35.749c-.015.971.056 2.953.116 3.479.91 9.843 8.62 13.034 18.261 13.034 9.651 0 17.357-3.19 18.287-13.034.081-.525.162-2.507.106-3.479zm57.23-37.769h-9.818c-.986 0-1.78.808-1.764 1.793l.639 38.56c.007.321-.451.39-.541.08L366.97 231.32a2.301 2.301 0 00-2.209-1.658h-15.964c-.968 0-1.753.785-1.753 1.753v48.733c0 .911.738 1.649 1.649 1.649h9.518c.931 0 1.681-.763 1.665-1.694l-.668-39.05c-.008-.489.683-.598.825-.129l12.037 39.728c.206.68.833 1.146 1.544 1.146h15.784a1.67 1.67 0 001.67-1.67V231a1.335 1.335 0 00-1.336-1.336z"/><path d="M511.574 211.291c-6.683-38.548-85.749-44.805-124.863-45.605-4.134-.078-7.568 3.204-7.652 7.345a7.5 7.5 0 007.345 7.652c77.509 1.584 107.909 18.859 110.39 33.164 2.444 14.165-17.935 33.477-54.735 52.086v-11.949c0-.67-.543-1.213-1.213-1.213h-16.179c-.636 0-1.152.516-1.152 1.152v5.037c0 .826.67 1.496 1.496 1.496h2.87c.552 0 .999.447.999.999v6.63c.149 4.012-2.175 5.84-5.495 5.84-3.415 0-5.485-1.763-5.485-5.84v-24.081c0-.859.061-1.784.242-2.482.258-1.284 1.391-3.822 5.213-3.822 4.009 0 5.005 2.665 5.228 3.822.207.993.172 2.575.172 3.594 0 .746.605 1.351 1.351 1.351h10.149a1.69 1.69 0 001.691-1.691v-.038c.36-11.649-6.589-16.487-18.484-16.487-11.646 0-18.651 4.706-18.651 16.487 0 25.005-.068 22.933.202 25.634.405 4.515 2.458 7.653 5.477 9.717-74.932 29.989-176.556 49.171-259.122 51.229a7.5 7.5 0 10.37 14.993c161.155-4.012 370.973-70.492 359.836-135.02zm-160.307-45.245C189.847 172.258-10.416 237.911.422 300.782c6.212 35.864 75.246 43.807 115.844 45.35a7.5 7.5 0 00.569-14.989c-58.661-2.229-98.555-15.151-101.632-32.915-2.56-14.851 20.524-35.671 60.604-54.984.013 1.112.134 2.262.401 3.552 2.265 10.764 20.896 13.893 23.606 20.699.505 1.274.344 2.892.096 3.888-.43 1.78-1.613 3.559-5.116 3.559-3.266 0-5.233-1.911-5.233-4.788l-.016-4.02a1.055 1.055 0 00-1.055-1.051H76.897c-.78 0-1.413.633-1.413 1.413v2.616c0 11.775 9.196 15.319 19.041 15.319 9.475 0 17.255-3.241 18.519-12.058.632-4.54.157-7.513-.066-8.625-2.199-11.067-22.084-14.333-23.576-20.507-.243-1.057-.187-2.179-.051-2.76.369-1.683 1.496-3.554 4.788-3.554 3.079 0 4.884 1.921 4.884 4.793v2.104c0 .636.516 1.152 1.152 1.152h10.267a1.65 1.65 0 001.65-1.65v-2.061c0-5.802-2.642-9.131-6.212-11.005 67.707-26.341 161.651-45.98 245.963-49.224a7.5 7.5 0 007.206-7.783c-.158-4.14-3.663-7.36-7.782-7.207z"/></symbol><symbol viewBox="0 -10 511.987 511" id="star-ico" xmlns="http://www.w3.org/2000/svg"><path d="M510.652 185.902a27.158 27.158 0 00-23.425-18.71l-147.774-13.419-58.433-136.77C276.71 6.98 266.898.494 255.996.494s-20.715 6.487-25.023 16.534l-58.434 136.746-147.797 13.418a27.208 27.208 0 00-23.402 18.71c-3.371 10.368-.258 21.739 7.957 28.907l111.7 97.96-32.938 145.09c-2.41 10.668 1.73 21.696 10.582 28.094 4.757 3.438 10.324 5.188 15.937 5.188 4.84 0 9.64-1.305 13.95-3.883l127.468-76.184 127.422 76.184c9.324 5.61 21.078 5.097 29.91-1.305a27.223 27.223 0 0010.582-28.094l-32.937-145.09 111.699-97.94a27.224 27.224 0 007.98-28.927zm0 0"/></symbol><symbol viewBox="1 -35 512 511" id="telegram-logo" xmlns="http://www.w3.org/2000/svg"><path d="M121.453 253.172l63.555 158.887 82.75-82.754 141.535 112.504L512 .5 0 205.98zm-39.933-47.64l244.046-97.946-194.074 117.363zm287.535-89.25l-161.98 148.187-19.485 73.426-36.035-90.086zm-149.852 219.23l9.817-36.996 15.144 12.035zm171.656 53.394L243.473 271.754 465.375 68.746zm0 0"/></symbol><symbol viewBox="0 0 512 512" id="twitter-ico" xmlns="http://www.w3.org/2000/svg"><path d="M256 0C114.637 0 0 114.637 0 256s114.637 256 256 256 256-114.637 256-256S397.363 0 256 0zm116.887 199.602c.113 2.52.168 5.05.168 7.593 0 77.645-59.102 167.18-167.184 167.184h.004-.004c-33.184 0-64.062-9.727-90.066-26.395 4.597.543 9.277.813 14.015.813 27.532 0 52.868-9.39 72.98-25.152-25.722-.477-47.41-17.465-54.894-40.813a58.481 58.481 0 0011.043 1.063 58.8 58.8 0 0015.496-2.07c-26.886-5.384-47.14-29.145-47.14-57.598 0-.266 0-.504.007-.75a58.354 58.354 0 0026.614 7.347c-15.778-10.527-26.149-28.523-26.149-48.91a58.597 58.597 0 017.957-29.535c28.977 35.555 72.282 58.937 121.118 61.394a58.708 58.708 0 01-1.528-13.398c0-32.437 26.317-58.754 58.766-58.754 16.902 0 32.168 7.145 42.89 18.567a117.855 117.855 0 0037.313-14.262c-4.395 13.715-13.707 25.222-25.84 32.5 11.887-1.422 23.215-4.574 33.742-9.254a119.412 119.412 0 01-29.308 30.43zm0 0"/></symbol><symbol viewBox="0 0 97.75 97.75" id="vk-ico" xmlns="http://www.w3.org/2000/svg"><path d="M48.875 0C21.883 0 0 21.882 0 48.875S21.883 97.75 48.875 97.75 97.75 75.868 97.75 48.875 75.867 0 48.875 0zm24.792 54.161c2.278 2.225 4.688 4.319 6.733 6.774.906 1.086 1.76 2.209 2.41 3.472.928 1.801.09 3.776-1.522 3.883l-10.013-.002c-2.586.214-4.644-.829-6.379-2.597-1.385-1.409-2.67-2.914-4.004-4.371-.545-.598-1.119-1.161-1.803-1.604-1.365-.888-2.551-.616-3.333.81-.797 1.451-.979 3.059-1.055 4.674-.109 2.361-.821 2.978-3.19 3.089-5.062.237-9.865-.531-14.329-3.083-3.938-2.251-6.986-5.428-9.642-9.025-5.172-7.012-9.133-14.708-12.692-22.625-.801-1.783-.215-2.737 1.752-2.774 3.268-.063 6.536-.055 9.804-.003 1.33.021 2.21.782 2.721 2.037 1.766 4.345 3.931 8.479 6.644 12.313.723 1.021 1.461 2.039 2.512 2.76 1.16.796 2.044.533 2.591-.762.35-.823.501-1.703.577-2.585.26-3.021.291-6.041-.159-9.05-.28-1.883-1.339-3.099-3.216-3.455-.956-.181-.816-.535-.351-1.081.807-.944 1.563-1.528 3.074-1.528l11.313-.002c1.783.35 2.183 1.15 2.425 2.946l.01 12.572c-.021.695.349 2.755 1.597 3.21 1 .33 1.66-.472 2.258-1.105 2.713-2.879 4.646-6.277 6.377-9.794.764-1.551 1.423-3.156 2.063-4.764.476-1.189 1.216-1.774 2.558-1.754l10.894.013c.321 0 .647.003.965.058 1.836.314 2.339 1.104 1.771 2.895-.894 2.814-2.631 5.158-4.329 7.508-1.82 2.516-3.761 4.944-5.563 7.471-1.656 2.31-1.525 3.473.531 5.479z"/></symbol></svg>